<mxfile host="app.diagrams.net" modified="2020-04-29T19:00:09.516Z" agent="5.0 (Windows NT 10.0; Win64; x64) AppleWebKit/537.36 (KHTML, like Gecko) Chrome/81.0.4044.122 Safari/537.36" etag="xCor6J_RzAWgFJw3UvlO" version="13.0.2" type="github" pages="2">
  <diagram id="p6y2a8yfUsux8Aevoc7T" name="Class Diagram">
    <mxGraphModel dx="-2891" dy="-1447" grid="1" gridSize="10" guides="1" tooltips="1" connect="1" arrows="1" fold="1" page="1" pageScale="1" pageWidth="850" pageHeight="1100" math="0" shadow="0">
      <root>
        <mxCell id="0" />
        <mxCell id="1" parent="0" />
        <mxCell id="QnjThRcbRtgQiOO7DC1N-1" style="edgeStyle=orthogonalEdgeStyle;rounded=0;orthogonalLoop=1;jettySize=auto;html=1;" parent="1" source="QnjThRcbRtgQiOO7DC1N-38" target="QnjThRcbRtgQiOO7DC1N-44" edge="1">
          <mxGeometry relative="1" as="geometry" />
        </mxCell>
        <mxCell id="QnjThRcbRtgQiOO7DC1N-2" style="edgeStyle=orthogonalEdgeStyle;rounded=0;orthogonalLoop=1;jettySize=auto;html=1;entryX=0;entryY=0.5;entryDx=0;entryDy=0;" parent="1" source="QnjThRcbRtgQiOO7DC1N-3" target="QnjThRcbRtgQiOO7DC1N-84" edge="1">
          <mxGeometry relative="1" as="geometry">
            <Array as="points">
              <mxPoint x="4740" y="3069" />
              <mxPoint x="4740" y="3049" />
            </Array>
          </mxGeometry>
        </mxCell>
        <mxCell id="QnjThRcbRtgQiOO7DC1N-3" value="&lt;&lt;Enumeration&gt;&gt;&#xa;ClientType" style="swimlane;fontStyle=1;align=center;verticalAlign=top;childLayout=stackLayout;horizontal=1;startSize=31;horizontalStack=0;resizeParent=1;resizeParentMax=0;resizeLast=0;collapsible=1;marginBottom=0;spacing=-6;" parent="1" vertex="1">
          <mxGeometry x="4500" y="3040" width="160" height="57" as="geometry" />
        </mxCell>
        <mxCell id="QnjThRcbRtgQiOO7DC1N-4" value="+ name: String" style="text;strokeColor=none;fillColor=none;align=left;verticalAlign=top;spacingLeft=4;spacingRight=4;overflow=hidden;rotatable=0;points=[[0,0.5],[1,0.5]];portConstraint=eastwest;" parent="QnjThRcbRtgQiOO7DC1N-3" vertex="1">
          <mxGeometry y="31" width="160" height="26" as="geometry" />
        </mxCell>
        <mxCell id="QnjThRcbRtgQiOO7DC1N-5" value="&lt;&lt;Enumeration&gt;&gt;&#xa;EventType" style="swimlane;fontStyle=1;align=center;verticalAlign=top;childLayout=stackLayout;horizontal=1;startSize=31;horizontalStack=0;resizeParent=1;resizeParentMax=0;resizeLast=0;collapsible=1;marginBottom=0;spacing=-6;" parent="1" vertex="1">
          <mxGeometry x="4500" y="2960" width="160" height="57" as="geometry" />
        </mxCell>
        <mxCell id="QnjThRcbRtgQiOO7DC1N-6" value="+ name: String" style="text;strokeColor=none;fillColor=none;align=left;verticalAlign=top;spacingLeft=4;spacingRight=4;overflow=hidden;rotatable=0;points=[[0,0.5],[1,0.5]];portConstraint=eastwest;" parent="QnjThRcbRtgQiOO7DC1N-5" vertex="1">
          <mxGeometry y="31" width="160" height="26" as="geometry" />
        </mxCell>
        <mxCell id="QnjThRcbRtgQiOO7DC1N-7" value="&lt;&lt;Enumeration&gt;&gt;&#xa;EventStatus" style="swimlane;fontStyle=1;align=center;verticalAlign=top;childLayout=stackLayout;horizontal=1;startSize=31;horizontalStack=0;resizeParent=1;resizeParentMax=0;resizeLast=0;collapsible=1;marginBottom=0;spacing=-6;" parent="1" vertex="1">
          <mxGeometry x="4500" y="2886.5" width="160" height="57" as="geometry" />
        </mxCell>
        <mxCell id="QnjThRcbRtgQiOO7DC1N-8" value="+ name: String" style="text;strokeColor=none;fillColor=none;align=left;verticalAlign=top;spacingLeft=4;spacingRight=4;overflow=hidden;rotatable=0;points=[[0,0.5],[1,0.5]];portConstraint=eastwest;" parent="QnjThRcbRtgQiOO7DC1N-7" vertex="1">
          <mxGeometry y="31" width="160" height="26" as="geometry" />
        </mxCell>
        <mxCell id="QnjThRcbRtgQiOO7DC1N-9" value="&lt;&lt;Enumeration&gt;&gt;&#xa;PaymentType" style="swimlane;fontStyle=1;align=center;verticalAlign=top;childLayout=stackLayout;horizontal=1;startSize=31;horizontalStack=0;resizeParent=1;resizeParentMax=0;resizeLast=0;collapsible=1;marginBottom=0;spacing=-6;" parent="1" vertex="1">
          <mxGeometry x="4900" y="2432" width="160" height="57" as="geometry" />
        </mxCell>
        <mxCell id="QnjThRcbRtgQiOO7DC1N-10" value="+ name: String" style="text;strokeColor=none;fillColor=none;align=left;verticalAlign=top;spacingLeft=4;spacingRight=4;overflow=hidden;rotatable=0;points=[[0,0.5],[1,0.5]];portConstraint=eastwest;" parent="QnjThRcbRtgQiOO7DC1N-9" vertex="1">
          <mxGeometry y="31" width="160" height="26" as="geometry" />
        </mxCell>
        <mxCell id="QnjThRcbRtgQiOO7DC1N-11" value="EventAsset::BaseEntity" style="swimlane;fontStyle=0;childLayout=stackLayout;horizontal=1;startSize=26;fillColor=none;horizontalStack=0;resizeParent=1;resizeParentMax=0;resizeLast=0;collapsible=1;marginBottom=0;labelBackgroundColor=none;" parent="1" vertex="1">
          <mxGeometry x="4280" y="2588" width="140" height="156" as="geometry" />
        </mxCell>
        <mxCell id="QnjThRcbRtgQiOO7DC1N-12" value="+ event: Event" style="text;strokeColor=none;fillColor=none;align=left;verticalAlign=top;spacingLeft=4;spacingRight=4;overflow=hidden;rotatable=0;points=[[0,0.5],[1,0.5]];portConstraint=eastwest;labelBackgroundColor=none;" parent="QnjThRcbRtgQiOO7DC1N-11" vertex="1">
          <mxGeometry y="26" width="140" height="26" as="geometry" />
        </mxCell>
        <mxCell id="QnjThRcbRtgQiOO7DC1N-13" value="+ asset: Asset" style="text;strokeColor=none;fillColor=none;align=left;verticalAlign=top;spacingLeft=4;spacingRight=4;overflow=hidden;rotatable=0;points=[[0,0.5],[1,0.5]];portConstraint=eastwest;" parent="QnjThRcbRtgQiOO7DC1N-11" vertex="1">
          <mxGeometry y="52" width="140" height="26" as="geometry" />
        </mxCell>
        <mxCell id="QnjThRcbRtgQiOO7DC1N-14" value="+ quantity: long" style="text;strokeColor=none;fillColor=none;align=left;verticalAlign=top;spacingLeft=4;spacingRight=4;overflow=hidden;rotatable=0;points=[[0,0.5],[1,0.5]];portConstraint=eastwest;" parent="QnjThRcbRtgQiOO7DC1N-11" vertex="1">
          <mxGeometry y="78" width="140" height="26" as="geometry" />
        </mxCell>
        <mxCell id="QnjThRcbRtgQiOO7DC1N-15" value="+ rate: double" style="text;strokeColor=none;fillColor=none;align=left;verticalAlign=top;spacingLeft=4;spacingRight=4;overflow=hidden;rotatable=0;points=[[0,0.5],[1,0.5]];portConstraint=eastwest;" parent="QnjThRcbRtgQiOO7DC1N-11" vertex="1">
          <mxGeometry y="104" width="140" height="26" as="geometry" />
        </mxCell>
        <mxCell id="QnjThRcbRtgQiOO7DC1N-16" value="+ notes: String" style="text;strokeColor=none;fillColor=none;align=left;verticalAlign=top;spacingLeft=4;spacingRight=4;overflow=hidden;rotatable=0;points=[[0,0.5],[1,0.5]];portConstraint=eastwest;labelBackgroundColor=none;" parent="QnjThRcbRtgQiOO7DC1N-11" vertex="1">
          <mxGeometry y="130" width="140" height="26" as="geometry" />
        </mxCell>
        <mxCell id="QnjThRcbRtgQiOO7DC1N-17" value="Event::BaseEntity" style="swimlane;fontStyle=0;childLayout=stackLayout;horizontal=1;startSize=26;fillColor=none;horizontalStack=0;resizeParent=1;resizeParentMax=0;resizeLast=0;collapsible=1;marginBottom=0;labelBackgroundColor=none;" parent="1" vertex="1">
          <mxGeometry x="4510" y="2600" width="140" height="260" as="geometry" />
        </mxCell>
        <mxCell id="QnjThRcbRtgQiOO7DC1N-18" value="+ name: String" style="text;strokeColor=none;fillColor=none;align=left;verticalAlign=top;spacingLeft=4;spacingRight=4;overflow=hidden;rotatable=0;points=[[0,0.5],[1,0.5]];portConstraint=eastwest;" parent="QnjThRcbRtgQiOO7DC1N-17" vertex="1">
          <mxGeometry y="26" width="140" height="26" as="geometry" />
        </mxCell>
        <mxCell id="QnjThRcbRtgQiOO7DC1N-19" value="+ eventType: EventType" style="text;strokeColor=none;fillColor=none;align=left;verticalAlign=top;spacingLeft=4;spacingRight=4;overflow=hidden;rotatable=0;points=[[0,0.5],[1,0.5]];portConstraint=eastwest;" parent="QnjThRcbRtgQiOO7DC1N-17" vertex="1">
          <mxGeometry y="52" width="140" height="26" as="geometry" />
        </mxCell>
        <mxCell id="QnjThRcbRtgQiOO7DC1N-20" value="+ eventDate: Date" style="text;strokeColor=none;fillColor=none;align=left;verticalAlign=top;spacingLeft=4;spacingRight=4;overflow=hidden;rotatable=0;points=[[0,0.5],[1,0.5]];portConstraint=eastwest;" parent="QnjThRcbRtgQiOO7DC1N-17" vertex="1">
          <mxGeometry y="78" width="140" height="26" as="geometry" />
        </mxCell>
        <mxCell id="QnjThRcbRtgQiOO7DC1N-21" value="+ location: Location" style="text;strokeColor=none;fillColor=none;align=left;verticalAlign=top;spacingLeft=4;spacingRight=4;overflow=hidden;rotatable=0;points=[[0,0.5],[1,0.5]];portConstraint=eastwest;labelBackgroundColor=none;" parent="QnjThRcbRtgQiOO7DC1N-17" vertex="1">
          <mxGeometry y="104" width="140" height="26" as="geometry" />
        </mxCell>
        <mxCell id="QnjThRcbRtgQiOO7DC1N-22" value="+ client: Client" style="text;strokeColor=none;fillColor=none;align=left;verticalAlign=top;spacingLeft=4;spacingRight=4;overflow=hidden;rotatable=0;points=[[0,0.5],[1,0.5]];portConstraint=eastwest;labelBackgroundColor=none;" parent="QnjThRcbRtgQiOO7DC1N-17" vertex="1">
          <mxGeometry y="130" width="140" height="26" as="geometry" />
        </mxCell>
        <mxCell id="QnjThRcbRtgQiOO7DC1N-23" value="+ notes: String" style="text;strokeColor=none;fillColor=none;align=left;verticalAlign=top;spacingLeft=4;spacingRight=4;overflow=hidden;rotatable=0;points=[[0,0.5],[1,0.5]];portConstraint=eastwest;labelBackgroundColor=none;" parent="QnjThRcbRtgQiOO7DC1N-17" vertex="1">
          <mxGeometry y="156" width="140" height="26" as="geometry" />
        </mxCell>
        <mxCell id="QnjThRcbRtgQiOO7DC1N-24" value="+ deliveryDate: Date" style="text;strokeColor=none;fillColor=none;align=left;verticalAlign=top;spacingLeft=4;spacingRight=4;overflow=hidden;rotatable=0;points=[[0,0.5],[1,0.5]];portConstraint=eastwest;labelBackgroundColor=none;" parent="QnjThRcbRtgQiOO7DC1N-17" vertex="1">
          <mxGeometry y="182" width="140" height="26" as="geometry" />
        </mxCell>
        <mxCell id="QnjThRcbRtgQiOO7DC1N-25" value="+ pickupDate: Date" style="text;strokeColor=none;fillColor=none;align=left;verticalAlign=top;spacingLeft=4;spacingRight=4;overflow=hidden;rotatable=0;points=[[0,0.5],[1,0.5]];portConstraint=eastwest;labelBackgroundColor=none;" parent="QnjThRcbRtgQiOO7DC1N-17" vertex="1">
          <mxGeometry y="208" width="140" height="26" as="geometry" />
        </mxCell>
        <mxCell id="QnjThRcbRtgQiOO7DC1N-26" value="+ status: EventStatus" style="text;strokeColor=none;fillColor=none;align=left;verticalAlign=top;spacingLeft=4;spacingRight=4;overflow=hidden;rotatable=0;points=[[0,0.5],[1,0.5]];portConstraint=eastwest;labelBackgroundColor=none;" parent="QnjThRcbRtgQiOO7DC1N-17" vertex="1">
          <mxGeometry y="234" width="140" height="26" as="geometry" />
        </mxCell>
        <mxCell id="QnjThRcbRtgQiOO7DC1N-27" value="Receipt::BaseEntity" style="swimlane;fontStyle=1;align=center;verticalAlign=top;childLayout=stackLayout;horizontal=1;startSize=26;horizontalStack=0;resizeParent=1;resizeParentMax=0;resizeLast=0;collapsible=1;marginBottom=0;" parent="1" vertex="1">
          <mxGeometry x="4710" y="2510" width="160" height="78" as="geometry" />
        </mxCell>
        <mxCell id="QnjThRcbRtgQiOO7DC1N-28" value="+ image: Blob" style="text;strokeColor=none;fillColor=none;align=left;verticalAlign=top;spacingLeft=4;spacingRight=4;overflow=hidden;rotatable=0;points=[[0,0.5],[1,0.5]];portConstraint=eastwest;" parent="QnjThRcbRtgQiOO7DC1N-27" vertex="1">
          <mxGeometry y="26" width="160" height="26" as="geometry" />
        </mxCell>
        <mxCell id="QnjThRcbRtgQiOO7DC1N-29" value="+ assets: Set&lt;Asset&gt;" style="text;strokeColor=none;fillColor=none;align=left;verticalAlign=top;spacingLeft=4;spacingRight=4;overflow=hidden;rotatable=0;points=[[0,0.5],[1,0.5]];portConstraint=eastwest;" parent="QnjThRcbRtgQiOO7DC1N-27" vertex="1">
          <mxGeometry y="52" width="160" height="26" as="geometry" />
        </mxCell>
        <mxCell id="QnjThRcbRtgQiOO7DC1N-30" value="Asset::BaseEntity" style="swimlane;fontStyle=1;align=center;verticalAlign=top;childLayout=stackLayout;horizontal=1;startSize=26;horizontalStack=0;resizeParent=1;resizeParentMax=0;resizeLast=0;collapsible=1;marginBottom=0;" parent="1" vertex="1">
          <mxGeometry x="4510" y="2430" width="160" height="156" as="geometry" />
        </mxCell>
        <mxCell id="QnjThRcbRtgQiOO7DC1N-31" value="+ name: String" style="text;strokeColor=none;fillColor=none;align=left;verticalAlign=top;spacingLeft=4;spacingRight=4;overflow=hidden;rotatable=0;points=[[0,0.5],[1,0.5]];portConstraint=eastwest;" parent="QnjThRcbRtgQiOO7DC1N-30" vertex="1">
          <mxGeometry y="26" width="160" height="26" as="geometry" />
        </mxCell>
        <mxCell id="QnjThRcbRtgQiOO7DC1N-32" value="+ description: String" style="text;strokeColor=none;fillColor=none;align=left;verticalAlign=top;spacingLeft=4;spacingRight=4;overflow=hidden;rotatable=0;points=[[0,0.5],[1,0.5]];portConstraint=eastwest;" parent="QnjThRcbRtgQiOO7DC1N-30" vertex="1">
          <mxGeometry y="52" width="160" height="26" as="geometry" />
        </mxCell>
        <mxCell id="QnjThRcbRtgQiOO7DC1N-33" value="+ adquisitionDate: Date" style="text;strokeColor=none;fillColor=none;align=left;verticalAlign=top;spacingLeft=4;spacingRight=4;overflow=hidden;rotatable=0;points=[[0,0.5],[1,0.5]];portConstraint=eastwest;" parent="QnjThRcbRtgQiOO7DC1N-30" vertex="1">
          <mxGeometry y="78" width="160" height="26" as="geometry" />
        </mxCell>
        <mxCell id="QnjThRcbRtgQiOO7DC1N-34" value="+ assetType: AssetType" style="text;strokeColor=none;fillColor=none;align=left;verticalAlign=top;spacingLeft=4;spacingRight=4;overflow=hidden;rotatable=0;points=[[0,0.5],[1,0.5]];portConstraint=eastwest;" parent="QnjThRcbRtgQiOO7DC1N-30" vertex="1">
          <mxGeometry y="104" width="160" height="26" as="geometry" />
        </mxCell>
        <mxCell id="QnjThRcbRtgQiOO7DC1N-35" value="- receipt: Receipt" style="text;strokeColor=none;fillColor=none;align=left;verticalAlign=top;spacingLeft=4;spacingRight=4;overflow=hidden;rotatable=0;points=[[0,0.5],[1,0.5]];portConstraint=eastwest;" parent="QnjThRcbRtgQiOO7DC1N-30" vertex="1">
          <mxGeometry y="130" width="160" height="26" as="geometry" />
        </mxCell>
        <mxCell id="QnjThRcbRtgQiOO7DC1N-36" value="&lt;&lt;Enumeration&gt;&gt;&#xa;AssetType" style="swimlane;fontStyle=1;align=center;verticalAlign=top;childLayout=stackLayout;horizontal=1;startSize=31;horizontalStack=0;resizeParent=1;resizeParentMax=0;resizeLast=0;collapsible=1;marginBottom=0;spacing=-6;" parent="1" vertex="1">
          <mxGeometry x="4710" y="2430" width="160" height="57" as="geometry" />
        </mxCell>
        <mxCell id="QnjThRcbRtgQiOO7DC1N-37" value="+ name: String" style="text;strokeColor=none;fillColor=none;align=left;verticalAlign=top;spacingLeft=4;spacingRight=4;overflow=hidden;rotatable=0;points=[[0,0.5],[1,0.5]];portConstraint=eastwest;" parent="QnjThRcbRtgQiOO7DC1N-36" vertex="1">
          <mxGeometry y="31" width="160" height="26" as="geometry" />
        </mxCell>
        <mxCell id="QnjThRcbRtgQiOO7DC1N-38" value="Roles::BaseEntity" style="swimlane;fontStyle=1;align=center;verticalAlign=top;childLayout=stackLayout;horizontal=1;startSize=26;horizontalStack=0;resizeParent=1;resizeParentMax=0;resizeLast=0;collapsible=1;marginBottom=0;" parent="1" vertex="1">
          <mxGeometry x="4710" y="2341" width="160" height="52" as="geometry" />
        </mxCell>
        <mxCell id="QnjThRcbRtgQiOO7DC1N-39" value="+ name: String" style="text;strokeColor=none;fillColor=none;align=left;verticalAlign=top;spacingLeft=4;spacingRight=4;overflow=hidden;rotatable=0;points=[[0,0.5],[1,0.5]];portConstraint=eastwest;" parent="QnjThRcbRtgQiOO7DC1N-38" vertex="1">
          <mxGeometry y="26" width="160" height="26" as="geometry" />
        </mxCell>
        <mxCell id="QnjThRcbRtgQiOO7DC1N-40" value="Person::BaseEntity" style="swimlane;fontStyle=1;align=center;verticalAlign=top;childLayout=stackLayout;horizontal=1;startSize=26;horizontalStack=0;resizeParent=1;resizeParentMax=0;resizeLast=0;collapsible=1;marginBottom=0;" parent="1" vertex="1">
          <mxGeometry x="4510" y="2280" width="160" height="130" as="geometry">
            <mxRectangle x="4280" y="2280" width="140" height="26" as="alternateBounds" />
          </mxGeometry>
        </mxCell>
        <mxCell id="QnjThRcbRtgQiOO7DC1N-41" value="+ username: String" style="text;strokeColor=none;fillColor=none;align=left;verticalAlign=top;spacingLeft=4;spacingRight=4;overflow=hidden;rotatable=0;points=[[0,0.5],[1,0.5]];portConstraint=eastwest;" parent="QnjThRcbRtgQiOO7DC1N-40" vertex="1">
          <mxGeometry y="26" width="160" height="26" as="geometry" />
        </mxCell>
        <mxCell id="QnjThRcbRtgQiOO7DC1N-42" value="+ password: String" style="text;strokeColor=none;fillColor=none;align=left;verticalAlign=top;spacingLeft=4;spacingRight=4;overflow=hidden;rotatable=0;points=[[0,0.5],[1,0.5]];portConstraint=eastwest;" parent="QnjThRcbRtgQiOO7DC1N-40" vertex="1">
          <mxGeometry y="52" width="160" height="26" as="geometry" />
        </mxCell>
        <mxCell id="QnjThRcbRtgQiOO7DC1N-43" value="+ email: String" style="text;strokeColor=none;fillColor=none;align=left;verticalAlign=top;spacingLeft=4;spacingRight=4;overflow=hidden;rotatable=0;points=[[0,0.5],[1,0.5]];portConstraint=eastwest;" parent="QnjThRcbRtgQiOO7DC1N-40" vertex="1">
          <mxGeometry y="78" width="160" height="26" as="geometry" />
        </mxCell>
        <mxCell id="QnjThRcbRtgQiOO7DC1N-44" value="+ roles: Set&lt;Roles&gt;" style="text;strokeColor=none;fillColor=none;align=left;verticalAlign=top;spacingLeft=4;spacingRight=4;overflow=hidden;rotatable=0;points=[[0,0.5],[1,0.5]];portConstraint=eastwest;" parent="QnjThRcbRtgQiOO7DC1N-40" vertex="1">
          <mxGeometry y="104" width="160" height="26" as="geometry" />
        </mxCell>
        <object label="BaseEntity" createdBy="Long" id="QnjThRcbRtgQiOO7DC1N-45">
          <mxCell style="swimlane;fontStyle=1;align=center;verticalAlign=top;childLayout=stackLayout;horizontal=1;startSize=26;horizontalStack=0;resizeParent=1;resizeParentMax=0;resizeLast=0;collapsible=1;marginBottom=0;" parent="1" vertex="1">
            <mxGeometry x="4280" y="2276" width="160" height="156" as="geometry">
              <mxRectangle x="4280" y="2220" width="100" height="26" as="alternateBounds" />
            </mxGeometry>
          </mxCell>
        </object>
        <object label="+ id: Long" id="QnjThRcbRtgQiOO7DC1N-46">
          <mxCell style="text;strokeColor=none;fillColor=none;align=left;verticalAlign=top;spacingLeft=4;spacingRight=4;overflow=hidden;rotatable=0;points=[[0,0.5],[1,0.5]];portConstraint=eastwest;" parent="QnjThRcbRtgQiOO7DC1N-45" vertex="1">
            <mxGeometry y="26" width="160" height="26" as="geometry" />
          </mxCell>
        </object>
        <mxCell id="QnjThRcbRtgQiOO7DC1N-47" value="+ createdBy: Long" style="text;strokeColor=none;fillColor=none;align=left;verticalAlign=top;spacingLeft=4;spacingRight=4;overflow=hidden;rotatable=0;points=[[0,0.5],[1,0.5]];portConstraint=eastwest;" parent="QnjThRcbRtgQiOO7DC1N-45" vertex="1">
          <mxGeometry y="52" width="160" height="26" as="geometry" />
        </mxCell>
        <mxCell id="QnjThRcbRtgQiOO7DC1N-48" value="+ createdDate: Date" style="text;strokeColor=none;fillColor=none;align=left;verticalAlign=top;spacingLeft=4;spacingRight=4;overflow=hidden;rotatable=0;points=[[0,0.5],[1,0.5]];portConstraint=eastwest;" parent="QnjThRcbRtgQiOO7DC1N-45" vertex="1">
          <mxGeometry y="78" width="160" height="26" as="geometry" />
        </mxCell>
        <mxCell id="QnjThRcbRtgQiOO7DC1N-49" value="+ updatedBy: Long" style="text;strokeColor=none;fillColor=none;align=left;verticalAlign=top;spacingLeft=4;spacingRight=4;overflow=hidden;rotatable=0;points=[[0,0.5],[1,0.5]];portConstraint=eastwest;" parent="QnjThRcbRtgQiOO7DC1N-45" vertex="1">
          <mxGeometry y="104" width="160" height="26" as="geometry" />
        </mxCell>
        <mxCell id="QnjThRcbRtgQiOO7DC1N-50" value="+ updatedDate: Date" style="text;strokeColor=none;fillColor=none;align=left;verticalAlign=top;spacingLeft=4;spacingRight=4;overflow=hidden;rotatable=0;points=[[0,0.5],[1,0.5]];portConstraint=eastwest;" parent="QnjThRcbRtgQiOO7DC1N-45" vertex="1">
          <mxGeometry y="130" width="160" height="26" as="geometry" />
        </mxCell>
        <mxCell id="QnjThRcbRtgQiOO7DC1N-51" style="edgeStyle=orthogonalEdgeStyle;rounded=0;orthogonalLoop=1;jettySize=auto;html=1;" parent="1" source="QnjThRcbRtgQiOO7DC1N-37" target="QnjThRcbRtgQiOO7DC1N-34" edge="1">
          <mxGeometry relative="1" as="geometry" />
        </mxCell>
        <mxCell id="QnjThRcbRtgQiOO7DC1N-52" value="Model" style="text;align=center;fontStyle=1;verticalAlign=middle;spacingLeft=3;spacingRight=3;strokeColor=none;rotatable=0;points=[[0,0.5],[1,0.5]];portConstraint=eastwest;labelBackgroundColor=none;" parent="1" vertex="1">
          <mxGeometry x="4320" y="2230" width="80" height="26" as="geometry" />
        </mxCell>
        <mxCell id="QnjThRcbRtgQiOO7DC1N-53" style="edgeStyle=orthogonalEdgeStyle;rounded=0;orthogonalLoop=1;jettySize=auto;html=1;entryX=0.002;entryY=0.731;entryDx=0;entryDy=0;entryPerimeter=0;" parent="1" source="QnjThRcbRtgQiOO7DC1N-54" target="QnjThRcbRtgQiOO7DC1N-58" edge="1">
          <mxGeometry relative="1" as="geometry">
            <Array as="points">
              <mxPoint x="4260" y="2770" />
              <mxPoint x="4260" y="2895" />
            </Array>
          </mxGeometry>
        </mxCell>
        <mxCell id="QnjThRcbRtgQiOO7DC1N-54" value="EventHistory::BaseEntity" style="swimlane;fontStyle=0;childLayout=stackLayout;horizontal=1;startSize=26;fillColor=none;horizontalStack=0;resizeParent=1;resizeParentMax=0;resizeLast=0;collapsible=1;marginBottom=0;labelBackgroundColor=none;" parent="1" vertex="1">
          <mxGeometry x="4280" y="2756" width="140" height="78" as="geometry" />
        </mxCell>
        <mxCell id="QnjThRcbRtgQiOO7DC1N-55" value="+ event: Event" style="text;strokeColor=none;fillColor=none;align=left;verticalAlign=top;spacingLeft=4;spacingRight=4;overflow=hidden;rotatable=0;points=[[0,0.5],[1,0.5]];portConstraint=eastwest;" parent="QnjThRcbRtgQiOO7DC1N-54" vertex="1">
          <mxGeometry y="26" width="140" height="26" as="geometry" />
        </mxCell>
        <mxCell id="QnjThRcbRtgQiOO7DC1N-56" value="+ eventType: EvenType" style="text;strokeColor=none;fillColor=none;align=left;verticalAlign=top;spacingLeft=4;spacingRight=4;overflow=hidden;rotatable=0;points=[[0,0.5],[1,0.5]];portConstraint=eastwest;labelBackgroundColor=none;" parent="QnjThRcbRtgQiOO7DC1N-54" vertex="1">
          <mxGeometry y="52" width="140" height="26" as="geometry" />
        </mxCell>
        <mxCell id="QnjThRcbRtgQiOO7DC1N-57" value="EventHistoryDetail::BaseEntity" style="swimlane;fontStyle=0;childLayout=stackLayout;horizontal=1;startSize=26;fillColor=none;horizontalStack=0;resizeParent=1;resizeParentMax=0;resizeLast=0;collapsible=1;marginBottom=0;labelBackgroundColor=none;" parent="1" vertex="1">
          <mxGeometry x="4280" y="2850" width="180" height="130" as="geometry" />
        </mxCell>
        <mxCell id="QnjThRcbRtgQiOO7DC1N-58" value="+ eventHistory: EventHistory" style="text;strokeColor=none;fillColor=none;align=left;verticalAlign=top;spacingLeft=4;spacingRight=4;overflow=hidden;rotatable=0;points=[[0,0.5],[1,0.5]];portConstraint=eastwest;" parent="QnjThRcbRtgQiOO7DC1N-57" vertex="1">
          <mxGeometry y="26" width="180" height="26" as="geometry" />
        </mxCell>
        <mxCell id="QnjThRcbRtgQiOO7DC1N-59" value="+ field: String" style="text;strokeColor=none;fillColor=none;align=left;verticalAlign=top;spacingLeft=4;spacingRight=4;overflow=hidden;rotatable=0;points=[[0,0.5],[1,0.5]];portConstraint=eastwest;" parent="QnjThRcbRtgQiOO7DC1N-57" vertex="1">
          <mxGeometry y="52" width="180" height="26" as="geometry" />
        </mxCell>
        <mxCell id="QnjThRcbRtgQiOO7DC1N-60" value="+ old: String" style="text;strokeColor=none;fillColor=none;align=left;verticalAlign=top;spacingLeft=4;spacingRight=4;overflow=hidden;rotatable=0;points=[[0,0.5],[1,0.5]];portConstraint=eastwest;labelBackgroundColor=none;" parent="QnjThRcbRtgQiOO7DC1N-57" vertex="1">
          <mxGeometry y="78" width="180" height="26" as="geometry" />
        </mxCell>
        <mxCell id="QnjThRcbRtgQiOO7DC1N-61" value="+ new: String" style="text;strokeColor=none;fillColor=none;align=left;verticalAlign=top;spacingLeft=4;spacingRight=4;overflow=hidden;rotatable=0;points=[[0,0.5],[1,0.5]];portConstraint=eastwest;labelBackgroundColor=none;" parent="QnjThRcbRtgQiOO7DC1N-57" vertex="1">
          <mxGeometry y="104" width="180" height="26" as="geometry" />
        </mxCell>
        <mxCell id="QnjThRcbRtgQiOO7DC1N-62" style="edgeStyle=orthogonalEdgeStyle;rounded=0;orthogonalLoop=1;jettySize=auto;html=1;" parent="1" source="QnjThRcbRtgQiOO7DC1N-18" target="QnjThRcbRtgQiOO7DC1N-55" edge="1">
          <mxGeometry relative="1" as="geometry">
            <Array as="points">
              <mxPoint x="4465" y="2626" />
              <mxPoint x="4465" y="2795" />
            </Array>
          </mxGeometry>
        </mxCell>
        <mxCell id="QnjThRcbRtgQiOO7DC1N-63" style="edgeStyle=orthogonalEdgeStyle;rounded=0;orthogonalLoop=1;jettySize=auto;html=1;" parent="1" source="QnjThRcbRtgQiOO7DC1N-18" target="QnjThRcbRtgQiOO7DC1N-12" edge="1">
          <mxGeometry relative="1" as="geometry">
            <Array as="points">
              <mxPoint x="4480" y="2627" />
              <mxPoint x="4480" y="2627" />
            </Array>
          </mxGeometry>
        </mxCell>
        <mxCell id="QnjThRcbRtgQiOO7DC1N-64" style="edgeStyle=orthogonalEdgeStyle;rounded=0;orthogonalLoop=1;jettySize=auto;html=1;entryX=1;entryY=0.5;entryDx=0;entryDy=0;" parent="1" source="QnjThRcbRtgQiOO7DC1N-31" target="QnjThRcbRtgQiOO7DC1N-13" edge="1">
          <mxGeometry relative="1" as="geometry">
            <Array as="points">
              <mxPoint x="4440" y="2469" />
              <mxPoint x="4440" y="2653" />
            </Array>
          </mxGeometry>
        </mxCell>
        <mxCell id="QnjThRcbRtgQiOO7DC1N-65" value="Payment::BaseEntity" style="swimlane;fontStyle=0;childLayout=stackLayout;horizontal=1;startSize=26;fillColor=none;horizontalStack=0;resizeParent=1;resizeParentMax=0;resizeLast=0;collapsible=1;marginBottom=0;labelBackgroundColor=none;" parent="1" vertex="1">
          <mxGeometry x="4870" y="2600" width="200" height="130" as="geometry" />
        </mxCell>
        <mxCell id="QnjThRcbRtgQiOO7DC1N-66" value="+ paymentType: PaymentType" style="text;strokeColor=none;fillColor=none;align=left;verticalAlign=top;spacingLeft=4;spacingRight=4;overflow=hidden;rotatable=0;points=[[0,0.5],[1,0.5]];portConstraint=eastwest;" parent="QnjThRcbRtgQiOO7DC1N-65" vertex="1">
          <mxGeometry y="26" width="200" height="26" as="geometry" />
        </mxCell>
        <mxCell id="QnjThRcbRtgQiOO7DC1N-67" value="+ amount: double" style="text;strokeColor=none;fillColor=none;align=left;verticalAlign=top;spacingLeft=4;spacingRight=4;overflow=hidden;rotatable=0;points=[[0,0.5],[1,0.5]];portConstraint=eastwest;" parent="QnjThRcbRtgQiOO7DC1N-65" vertex="1">
          <mxGeometry y="52" width="200" height="26" as="geometry" />
        </mxCell>
        <mxCell id="QnjThRcbRtgQiOO7DC1N-68" value="+ event: Event" style="text;strokeColor=none;fillColor=none;align=left;verticalAlign=top;spacingLeft=4;spacingRight=4;overflow=hidden;rotatable=0;points=[[0,0.5],[1,0.5]];portConstraint=eastwest;" parent="QnjThRcbRtgQiOO7DC1N-65" vertex="1">
          <mxGeometry y="78" width="200" height="26" as="geometry" />
        </mxCell>
        <mxCell id="QnjThRcbRtgQiOO7DC1N-69" value="+ dateReceived: Date" style="text;strokeColor=none;fillColor=none;align=left;verticalAlign=top;spacingLeft=4;spacingRight=4;overflow=hidden;rotatable=0;points=[[0,0.5],[1,0.5]];portConstraint=eastwest;labelBackgroundColor=none;" parent="QnjThRcbRtgQiOO7DC1N-65" vertex="1">
          <mxGeometry y="104" width="200" height="26" as="geometry" />
        </mxCell>
        <mxCell id="QnjThRcbRtgQiOO7DC1N-70" style="edgeStyle=orthogonalEdgeStyle;rounded=0;orthogonalLoop=1;jettySize=auto;html=1;" parent="1" source="QnjThRcbRtgQiOO7DC1N-18" target="QnjThRcbRtgQiOO7DC1N-68" edge="1">
          <mxGeometry relative="1" as="geometry">
            <Array as="points">
              <mxPoint x="4760" y="2626" />
              <mxPoint x="4760" y="2691" />
            </Array>
          </mxGeometry>
        </mxCell>
        <mxCell id="QnjThRcbRtgQiOO7DC1N-71" style="edgeStyle=orthogonalEdgeStyle;rounded=0;orthogonalLoop=1;jettySize=auto;html=1;entryX=1;entryY=0.5;entryDx=0;entryDy=0;" parent="1" source="QnjThRcbRtgQiOO7DC1N-66" target="QnjThRcbRtgQiOO7DC1N-10" edge="1">
          <mxGeometry relative="1" as="geometry" />
        </mxCell>
        <mxCell id="QnjThRcbRtgQiOO7DC1N-72" style="edgeStyle=orthogonalEdgeStyle;rounded=0;orthogonalLoop=1;jettySize=auto;html=1;entryX=1;entryY=0.5;entryDx=0;entryDy=0;" parent="1" source="QnjThRcbRtgQiOO7DC1N-6" target="QnjThRcbRtgQiOO7DC1N-19" edge="1">
          <mxGeometry relative="1" as="geometry">
            <Array as="points">
              <mxPoint x="4710" y="3004" />
              <mxPoint x="4710" y="2665" />
            </Array>
          </mxGeometry>
        </mxCell>
        <mxCell id="QnjThRcbRtgQiOO7DC1N-73" style="edgeStyle=orthogonalEdgeStyle;rounded=0;orthogonalLoop=1;jettySize=auto;html=1;" parent="1" source="QnjThRcbRtgQiOO7DC1N-8" target="QnjThRcbRtgQiOO7DC1N-26" edge="1">
          <mxGeometry relative="1" as="geometry">
            <Array as="points">
              <mxPoint x="4670" y="2931" />
              <mxPoint x="4670" y="2847" />
            </Array>
          </mxGeometry>
        </mxCell>
        <mxCell id="QnjThRcbRtgQiOO7DC1N-74" value="Location::BaseEntity" style="swimlane;fontStyle=0;childLayout=stackLayout;horizontal=1;startSize=26;fillColor=none;horizontalStack=0;resizeParent=1;resizeParentMax=0;resizeLast=0;collapsible=1;marginBottom=0;labelBackgroundColor=none;" parent="1" vertex="1">
          <mxGeometry x="4870" y="2766" width="200" height="208" as="geometry" />
        </mxCell>
        <mxCell id="QnjThRcbRtgQiOO7DC1N-75" value="+ address: String" style="text;strokeColor=none;fillColor=none;align=left;verticalAlign=top;spacingLeft=4;spacingRight=4;overflow=hidden;rotatable=0;points=[[0,0.5],[1,0.5]];portConstraint=eastwest;" parent="QnjThRcbRtgQiOO7DC1N-74" vertex="1">
          <mxGeometry y="26" width="200" height="26" as="geometry" />
        </mxCell>
        <mxCell id="QnjThRcbRtgQiOO7DC1N-76" value="+ State: String" style="text;strokeColor=none;fillColor=none;align=left;verticalAlign=top;spacingLeft=4;spacingRight=4;overflow=hidden;rotatable=0;points=[[0,0.5],[1,0.5]];portConstraint=eastwest;" parent="QnjThRcbRtgQiOO7DC1N-74" vertex="1">
          <mxGeometry y="52" width="200" height="26" as="geometry" />
        </mxCell>
        <mxCell id="QnjThRcbRtgQiOO7DC1N-77" value="+ zipcode: String" style="text;strokeColor=none;fillColor=none;align=left;verticalAlign=top;spacingLeft=4;spacingRight=4;overflow=hidden;rotatable=0;points=[[0,0.5],[1,0.5]];portConstraint=eastwest;" parent="QnjThRcbRtgQiOO7DC1N-74" vertex="1">
          <mxGeometry y="78" width="200" height="26" as="geometry" />
        </mxCell>
        <mxCell id="QnjThRcbRtgQiOO7DC1N-78" value="+ venue: String" style="text;strokeColor=none;fillColor=none;align=left;verticalAlign=top;spacingLeft=4;spacingRight=4;overflow=hidden;rotatable=0;points=[[0,0.5],[1,0.5]];portConstraint=eastwest;labelBackgroundColor=none;" parent="QnjThRcbRtgQiOO7DC1N-74" vertex="1">
          <mxGeometry y="104" width="200" height="26" as="geometry" />
        </mxCell>
        <mxCell id="QnjThRcbRtgQiOO7DC1N-79" value="+ contactName: String" style="text;strokeColor=none;fillColor=none;align=left;verticalAlign=top;spacingLeft=4;spacingRight=4;overflow=hidden;rotatable=0;points=[[0,0.5],[1,0.5]];portConstraint=eastwest;labelBackgroundColor=none;" parent="QnjThRcbRtgQiOO7DC1N-74" vertex="1">
          <mxGeometry y="130" width="200" height="26" as="geometry" />
        </mxCell>
        <mxCell id="QnjThRcbRtgQiOO7DC1N-80" value="+ contactTelephone: String" style="text;strokeColor=none;fillColor=none;align=left;verticalAlign=top;spacingLeft=4;spacingRight=4;overflow=hidden;rotatable=0;points=[[0,0.5],[1,0.5]];portConstraint=eastwest;labelBackgroundColor=none;" parent="QnjThRcbRtgQiOO7DC1N-74" vertex="1">
          <mxGeometry y="156" width="200" height="26" as="geometry" />
        </mxCell>
        <mxCell id="QnjThRcbRtgQiOO7DC1N-81" value="+ contactEmail: String" style="text;strokeColor=none;fillColor=none;align=left;verticalAlign=top;spacingLeft=4;spacingRight=4;overflow=hidden;rotatable=0;points=[[0,0.5],[1,0.5]];portConstraint=eastwest;labelBackgroundColor=none;" parent="QnjThRcbRtgQiOO7DC1N-74" vertex="1">
          <mxGeometry y="182" width="200" height="26" as="geometry" />
        </mxCell>
        <mxCell id="QnjThRcbRtgQiOO7DC1N-82" style="edgeStyle=orthogonalEdgeStyle;rounded=0;orthogonalLoop=1;jettySize=auto;html=1;entryX=1;entryY=0.5;entryDx=0;entryDy=0;" parent="1" source="QnjThRcbRtgQiOO7DC1N-75" target="QnjThRcbRtgQiOO7DC1N-21" edge="1">
          <mxGeometry relative="1" as="geometry">
            <Array as="points">
              <mxPoint x="4760" y="2792" />
              <mxPoint x="4760" y="2717" />
            </Array>
          </mxGeometry>
        </mxCell>
        <mxCell id="QnjThRcbRtgQiOO7DC1N-83" value="Client::BaseEntity" style="swimlane;fontStyle=0;childLayout=stackLayout;horizontal=1;startSize=26;fillColor=none;horizontalStack=0;resizeParent=1;resizeParentMax=0;resizeLast=0;collapsible=1;marginBottom=0;labelBackgroundColor=none;" parent="1" vertex="1">
          <mxGeometry x="4870" y="3010" width="140" height="182" as="geometry">
            <mxRectangle x="4870" y="3010" width="130" height="26" as="alternateBounds" />
          </mxGeometry>
        </mxCell>
        <mxCell id="QnjThRcbRtgQiOO7DC1N-84" value="+ clientType: ClientType" style="text;strokeColor=none;fillColor=none;align=left;verticalAlign=top;spacingLeft=4;spacingRight=4;overflow=hidden;rotatable=0;points=[[0,0.5],[1,0.5]];portConstraint=eastwest;" parent="QnjThRcbRtgQiOO7DC1N-83" vertex="1">
          <mxGeometry y="26" width="140" height="26" as="geometry" />
        </mxCell>
        <mxCell id="QnjThRcbRtgQiOO7DC1N-85" value="+ name: String" style="text;strokeColor=none;fillColor=none;align=left;verticalAlign=top;spacingLeft=4;spacingRight=4;overflow=hidden;rotatable=0;points=[[0,0.5],[1,0.5]];portConstraint=eastwest;" parent="QnjThRcbRtgQiOO7DC1N-83" vertex="1">
          <mxGeometry y="52" width="140" height="26" as="geometry" />
        </mxCell>
        <mxCell id="QnjThRcbRtgQiOO7DC1N-86" value="+ contactName: String" style="text;strokeColor=none;fillColor=none;align=left;verticalAlign=top;spacingLeft=4;spacingRight=4;overflow=hidden;rotatable=0;points=[[0,0.5],[1,0.5]];portConstraint=eastwest;" parent="QnjThRcbRtgQiOO7DC1N-83" vertex="1">
          <mxGeometry y="78" width="140" height="26" as="geometry" />
        </mxCell>
        <mxCell id="QnjThRcbRtgQiOO7DC1N-87" value="+ contactPhone: String" style="text;strokeColor=none;fillColor=none;align=left;verticalAlign=top;spacingLeft=4;spacingRight=4;overflow=hidden;rotatable=0;points=[[0,0.5],[1,0.5]];portConstraint=eastwest;labelBackgroundColor=none;" parent="QnjThRcbRtgQiOO7DC1N-83" vertex="1">
          <mxGeometry y="104" width="140" height="26" as="geometry" />
        </mxCell>
        <mxCell id="QnjThRcbRtgQiOO7DC1N-88" value="+ contactEmail: String" style="text;strokeColor=none;fillColor=none;align=left;verticalAlign=top;spacingLeft=4;spacingRight=4;overflow=hidden;rotatable=0;points=[[0,0.5],[1,0.5]];portConstraint=eastwest;labelBackgroundColor=none;" parent="QnjThRcbRtgQiOO7DC1N-83" vertex="1">
          <mxGeometry y="130" width="140" height="26" as="geometry" />
        </mxCell>
        <mxCell id="QnjThRcbRtgQiOO7DC1N-89" value="+ billingAddress: String" style="text;strokeColor=none;fillColor=none;align=left;verticalAlign=top;spacingLeft=4;spacingRight=4;overflow=hidden;rotatable=0;points=[[0,0.5],[1,0.5]];portConstraint=eastwest;labelBackgroundColor=none;" parent="QnjThRcbRtgQiOO7DC1N-83" vertex="1">
          <mxGeometry y="156" width="140" height="26" as="geometry" />
        </mxCell>
        <mxCell id="QnjThRcbRtgQiOO7DC1N-90" style="edgeStyle=orthogonalEdgeStyle;rounded=0;orthogonalLoop=1;jettySize=auto;html=1;exitX=0.009;exitY=-0.015;exitDx=0;exitDy=0;exitPerimeter=0;" parent="1" source="QnjThRcbRtgQiOO7DC1N-84" target="QnjThRcbRtgQiOO7DC1N-22" edge="1">
          <mxGeometry relative="1" as="geometry">
            <Array as="points">
              <mxPoint x="4860" y="3036" />
              <mxPoint x="4740" y="3036" />
              <mxPoint x="4740" y="2743" />
            </Array>
          </mxGeometry>
        </mxCell>
      </root>
    </mxGraphModel>
  </diagram>
  <diagram id="Nsa7c2sxn49G2TUaHNed" name="idea">
    <mxGraphModel dx="4530" dy="2673" grid="1" gridSize="10" guides="1" tooltips="1" connect="1" arrows="1" fold="1" page="1" pageScale="1" pageWidth="1100" pageHeight="850" math="0" shadow="0">
      <root>
        <mxCell id="wdatiC-RJkYWve1L5PLn-0" />
        <mxCell id="wdatiC-RJkYWve1L5PLn-1" parent="wdatiC-RJkYWve1L5PLn-0" />
        <mxCell id="7xhQ64peVTKudRUA8vSi-1" value="" style="shape=image;verticalLabelPosition=bottom;labelBackgroundColor=#ffffff;verticalAlign=top;aspect=fixed;imageAspect=0;image=data:image/jpeg,/9j/4gv4SUNDX1BST0ZJTEUAAQEAAAvoAAAAAAIAAABtbnRyUkdCIFhZWiAH2QADABsAFQAkAB9hY3NwAAAAAAAAAAAAAAAAAAAAAAAAAAEAAAAAAAAAAAAA9tYAAQAAAADTLQAAAAAp+D3er/JVrnhC+uTKgzkNAAAAAAAAAAAAAAAAAAAAAAAAAAAAAAAAAAAAAAAAABBkZXNjAAABRAAAAHliWFlaAAABwAAAABRiVFJDAAAB1AAACAxkbWRkAAAJ4AAAAIhnWFlaAAAKaAAAABRnVFJDAAAB1AAACAxsdW1pAAAKfAAAABRtZWFzAAAKkAAAACRia3B0AAAKtAAAABRyWFlaAAAKyAAAABRyVFJDAAAB1AAACAx0ZWNoAAAK3AAAAAx2dWVkAAAK6AAAAId3dHB0AAALcAAAABRjcHJ0AAALhAAAADdjaGFkAAALvAAAACxkZXNjAAAAAAAAAB9zUkdCIElFQzYxOTY2LTItMSBibGFjayBzY2FsZWQAAAAAAAAAAAAAAAAAAAAAAAAAAAAAAAAAAAAAAAAAAAAAAAAAAAAAAAAAAAAAAAAAAAAAAAAAAAAAAAAAAAAAAAAAAAAAAAAAAAAAAAAAAAAAWFlaIAAAAAAAACSgAAAPhAAAts9jdXJ2AAAAAAAABAAAAAAFAAoADwAUABkAHgAjACgALQAyADcAOwBAAEUASgBPAFQAWQBeAGMAaABtAHIAdwB8AIEAhgCLAJAAlQCaAJ8ApACpAK4AsgC3ALwAwQDGAMsA0ADVANsA4ADlAOsA8AD2APsBAQEHAQ0BEwEZAR8BJQErATIBOAE+AUUBTAFSAVkBYAFnAW4BdQF8AYMBiwGSAZoBoQGpAbEBuQHBAckB0QHZAeEB6QHyAfoCAwIMAhQCHQImAi8COAJBAksCVAJdAmcCcQJ6AoQCjgKYAqICrAK2AsECywLVAuAC6wL1AwADCwMWAyEDLQM4A0MDTwNaA2YDcgN+A4oDlgOiA64DugPHA9MD4APsA/kEBgQTBCAELQQ7BEgEVQRjBHEEfgSMBJoEqAS2BMQE0wThBPAE/gUNBRwFKwU6BUkFWAVnBXcFhgWWBaYFtQXFBdUF5QX2BgYGFgYnBjcGSAZZBmoGewaMBp0GrwbABtEG4wb1BwcHGQcrBz0HTwdhB3QHhgeZB6wHvwfSB+UH+AgLCB8IMghGCFoIbgiCCJYIqgi+CNII5wj7CRAJJQk6CU8JZAl5CY8JpAm6Cc8J5Qn7ChEKJwo9ClQKagqBCpgKrgrFCtwK8wsLCyILOQtRC2kLgAuYC7ALyAvhC/kMEgwqDEMMXAx1DI4MpwzADNkM8w0NDSYNQA1aDXQNjg2pDcMN3g34DhMOLg5JDmQOfw6bDrYO0g7uDwkPJQ9BD14Peg+WD7MPzw/sEAkQJhBDEGEQfhCbELkQ1xD1ERMRMRFPEW0RjBGqEckR6BIHEiYSRRJkEoQSoxLDEuMTAxMjE0MTYxODE6QTxRPlFAYUJxRJFGoUixStFM4U8BUSFTQVVhV4FZsVvRXgFgMWJhZJFmwWjxayFtYW+hcdF0EXZReJF64X0hf3GBsYQBhlGIoYrxjVGPoZIBlFGWsZkRm3Gd0aBBoqGlEadxqeGsUa7BsUGzsbYxuKG7Ib2hwCHCocUhx7HKMczBz1HR4dRx1wHZkdwx3sHhYeQB5qHpQevh7pHxMfPh9pH5Qfvx/qIBUgQSBsIJggxCDwIRwhSCF1IaEhziH7IiciVSKCIq8i3SMKIzgjZiOUI8Ij8CQfJE0kfCSrJNolCSU4JWgllyXHJfcmJyZXJocmtyboJxgnSSd6J6sn3CgNKD8ocSiiKNQpBik4KWspnSnQKgIqNSpoKpsqzysCKzYraSudK9EsBSw5LG4soizXLQwtQS12Last4S4WLkwugi63Lu4vJC9aL5Evxy/+MDUwbDCkMNsxEjFKMYIxujHyMioyYzKbMtQzDTNGM38zuDPxNCs0ZTSeNNg1EzVNNYc1wjX9Njc2cjauNuk3JDdgN5w31zgUOFA4jDjIOQU5Qjl/Obw5+To2OnQ6sjrvOy07azuqO+g8JzxlPKQ84z0iPWE9oT3gPiA+YD6gPuA/IT9hP6I/4kAjQGRApkDnQSlBakGsQe5CMEJyQrVC90M6Q31DwEQDREdEikTORRJFVUWaRd5GIkZnRqtG8Ec1R3tHwEgFSEtIkUjXSR1JY0mpSfBKN0p9SsRLDEtTS5pL4kwqTHJMuk0CTUpNk03cTiVObk63TwBPSU+TT91QJ1BxULtRBlFQUZtR5lIxUnxSx1MTU19TqlP2VEJUj1TbVShVdVXCVg9WXFapVvdXRFeSV+BYL1h9WMtZGllpWbhaB1pWWqZa9VtFW5Vb5Vw1XIZc1l0nXXhdyV4aXmxevV8PX2Ffs2AFYFdgqmD8YU9homH1YklinGLwY0Njl2PrZEBklGTpZT1lkmXnZj1mkmboZz1nk2fpaD9olmjsaUNpmmnxakhqn2r3a09rp2v/bFdsr20IbWBtuW4SbmtuxG8eb3hv0XArcIZw4HE6cZVx8HJLcqZzAXNdc7h0FHRwdMx1KHWFdeF2Pnabdvh3VnezeBF4bnjMeSp5iXnnekZ6pXsEe2N7wnwhfIF84X1BfaF+AX5ifsJ/I3+Ef+WAR4CogQqBa4HNgjCCkoL0g1eDuoQdhICE44VHhauGDoZyhteHO4efiASIaYjOiTOJmYn+imSKyoswi5aL/IxjjMqNMY2Yjf+OZo7OjzaPnpAGkG6Q1pE/kaiSEZJ6kuOTTZO2lCCUipT0lV+VyZY0lp+XCpd1l+CYTJi4mSSZkJn8mmia1ZtCm6+cHJyJnPedZJ3SnkCerp8dn4uf+qBpoNihR6G2oiailqMGo3aj5qRWpMelOKWpphqmi6b9p26n4KhSqMSpN6mpqhyqj6sCq3Wr6axcrNCtRK24ri2uoa8Wr4uwALB1sOqxYLHWskuywrM4s660JbSctRO1irYBtnm28Ldot+C4WbjRuUq5wro7urW7LrunvCG8m70VvY++Cr6Evv+/er/1wHDA7MFnwePCX8Lbw1jD1MRRxM7FS8XIxkbGw8dBx7/IPci8yTrJuco4yrfLNsu2zDXMtc01zbXONs62zzfPuNA50LrRPNG+0j/SwdNE08bUSdTL1U7V0dZV1tjXXNfg2GTY6Nls2fHadtr724DcBdyK3RDdlt4c3qLfKd+v4DbgveFE4cziU+Lb42Pj6+Rz5PzlhOYN5pbnH+ep6DLovOlG6dDqW+rl63Dr++yG7RHtnO4o7rTvQO/M8Fjw5fFy8f/yjPMZ86f0NPTC9VD13vZt9vv3ivgZ+Kj5OPnH+lf65/t3/Af8mP0p/br+S/7c/23//2Rlc2MAAAAAAAAALklFQyA2MTk2Ni0yLTEgRGVmYXVsdCBSR0IgQ29sb3VyIFNwYWNlIC0gc1JHQgAAAAAAAAAAAAAAAAAAAAAAAAAAAAAAAAAAAAAAAAAAAAAAAAAAAAAAAAAAAAAAAAAAAAAAAAAAAAAAAAAAAAAAAAAAAAAAAAAAAAAAAABYWVogAAAAAAAAYpkAALeFAAAY2lhZWiAAAAAAAAAAAABQAAAAAAAAbWVhcwAAAAAAAAABAAAAAAAAAAAAAAAAAAAAAAAAAAAAAAACWFlaIAAAAAAAAAMWAAADMwAAAqRYWVogAAAAAAAAb6IAADj1AAADkHNpZyAAAAAAQ1JUIGRlc2MAAAAAAAAALVJlZmVyZW5jZSBWaWV3aW5nIENvbmRpdGlvbiBpbiBJRUMgNjE5NjYtMi0xAAAAAAAAAAAAAAAAAAAAAAAAAAAAAAAAAAAAAAAAAAAAAAAAAAAAAAAAAAAAAAAAAAAAAAAAAAAAAAAAAAAAAAAAAAAAAAAAAAAAAAAAAABYWVogAAAAAAAA9tYAAQAAAADTLXRleHQAAAAAQ29weXJpZ2h0IEludGVybmF0aW9uYWwgQ29sb3IgQ29uc29ydGl1bSwgMjAwOQAAc2YzMgAAAAAAAQxEAAAF3///8yYAAAeUAAD9j///+6H///2iAAAD2wAAwHX/4AAQSkZJRgABAQAAAQABAAD/2wBDAAgICAgJCAkKCgkNDgwODRMREBARExwUFhQWFBwrGx8bGx8bKyYuJSMlLiZENS8vNUROQj5CTl9VVV93cXecnNH/2wBDAQgICAgJCAkKCgkNDgwODRMREBARExwUFhQWFBwrGx8bGx8bKyYuJSMlLiZENS8vNUROQj5CTl9VVV93cXecnNH/wgARCAXoB+ADASIAAhEBAxEB/8QAGgABAQADAQEAAAAAAAAAAAAAAAECBAUDBv/EABcBAQEBAQAAAAAAAAAAAAAAAAABAgP/2gAMAwEAAhADEAAAAcVuNRcjB6WXzvpTC5qwZ2MLkMWY1vHd85fDISxbIpYsASLKaW7q5uOxr+x6ClgsoSoQIomWNqoFgESyghRKSyBYkQsCYZ4GOOUrzmWKIaa/jsa6eft4+8vjnjbOllhkZBVlSksSiTKJqKzvV8dnWNzx9fOvLa1dqPDz9fKzc8Pfwlw3NLbM5bmxZWOptalmzjlDX9/D3rHDPE2dXb1D13dHelyzxyk5/l6+VBXr7eGwnn0ud0T2zwylzyxyMriMksLKLFUAAFgCGHnn55ux6+XrvLi9jhx5jOoAlJYUsEtsSwsBZRKJYqglCwCItmVY0QAgtxosFTJYpIFsKkIennsmxseXpGGK2e25rbes5DWaABYKguGWhXG8SpMoluNJMoGUMcoiUtuGUMaR9Bc7x6421cWSAF84nrPLE98fGV7Y+dq4plUAAAURLYDx9sTU9PLONiwVLSwBAAWLiKgqCpRZKCBKCWSyCUEJCsccsDHD082Ysry19nXrx9vH1Mcc/M6mfj7UoLKgIRqWUagxvz09/RjYY+tam1q+48dvUNnHHYjT2PC1tsM823HzrHwzzs9fDZ0zHY8dk8YzPbF2TlbW1nLqtvI+f89rTsqq9Pfx90w6PO6MvrnjlGVmQqqsoBQEpUJWNUlRLDz88/Oa288ctZx4Xa4cRZnUqACy1FgVUWQBMoLKJYKSxlAsqwoSpCggBVgsCzKIKWKuFEhE6Gnunuy85cfTz97Pba8fbpiwuckVWIyQEF4XY+bswgpRisSoSxbUiLECQykxj6t4Yce2zjryPfDzVnjKAgyWPWnjffKtabdjTb1NFvDQdCGg30aDoF506Q506Q4TuDlZ9KnLdSHMdMc10lcydRHMdInNdJXNdKHNdKS869CpznQlaE6ENCb40G8jQb5ee34aDeGhN+HPx6Es53n0sY586GNnO1+x41x899Wh59XzjH3z2DWbKta+5PB7xPF7DynsrRx2pnWto9bwjQ3PParnze8F9tXeSc3ZmQ1uiOfnsYV4Ta9DU99mRp6+4rxz2sDR9/T1Nbsc/qrqZ+mUYXOVytLq6yardh4bHp61o9PX34wzzyPPPLKXB6U876Dzeg83oPN6Dzeo8npTyeo8p7Q1cNrGPTLO6mnxe7z5dNuJdKbw0W9a0G/I0pvq0W9Y57oq586NOdOlY5jqLOW6o5bqq5bqU5WPXscfLrZHHvZHFdocV2sl4buU4TvQ4bvE4F75eBe9U4Dv2vnp9Ej53H6UvC2+pnJzfLsQ5Oxv2vPL1us+E9yeM91eL2HjfWnjPaHL4P2GJ8g+vtfIPrx8ffr8D5F9binyb6nCvmH0XmcGdjxrmTe1rPFnJO/ZeXYSKRMkRUtvrta+wVBUABKAqxAAoAFALBQBAUAELLYgWWFAsAACygAi0QAAJWSCoigAqBYLBBSWFAAAAJQQpCsUZIstgqCoqiUBYKBYFlJQAXFGSCorJBUFBUoAAKAAFRJVRRJkMVEAxzxMVxKxGSCpQAUgQAQqAFqCpSAAAWAAAgqIoAoABYLAAqAAAABYLAqCoLcSViM/D1V8pq/RfO9uXeS8ulRLSQsJbLbtevl6ksoAAAES41aCpQALBCiUBYsqACwlWWhCwkotqBcbCxZQpLACxSgEEFQVLAUAsRUVUpKCAsRUtCRUFFIQAxyxKClAAFKACKACpQgpCAWCoLcaVBbirJIZIMmItwsZMRkkMmIyYjJgMmIyRREWIWBBUBbKAAAEFgLEVJWTFGTGlRVgBCxVgWAELABSVUACxFAFEoQVBQERUpAWApSVEKSqafzH13zXbn0pZjVRLUCxFz8/atj0xzJMsQgqQyQWIViLcUZ3AubAZsCZzFWVwsZXCrkxtVElYqyYpckVUgCZMS5ILGMZXCpkgyY0yYrcmIyRFS1WKKgoFgXGgFQVBQAAAVBUFQWECVZQIUFELFVKABFgVKAAIlVBYFQUAQFBAUAsFAAAQWAIVBUoQUpFEBKBAAAIlgoAhBBJWdwGbEZXCmTEZJQAAAlBCoKgqDJiKYmSCoKhKgqJagqKtiAqoKlhQnA7/I64xGbUuauNoC+3hs175YyM8MvGPFllWE9FnlfWnjj72XXvvjXi9PQ1svdHg2IeE9yeE2B4X2L5PUec9R5PTinWvF7lia+1Liviesx550nlzk63j4e65+vlie7R3Szw5518uNsnRedM75j0ecPa+A2GvTYmuPd4Q97ryNm6qtpqDbaiNtqDbumN1oK35z/I615uZvtEb10BvzRG+0RvNEbzRG+0BvzRG9dAb7QG+0BvtGG+0RutIbrRsbrStbjShvOd6G41KbTUG21RtNUbU1RtzWG1dSG3dQbc1RtXTptNSm01YbbVG01RtXUG01RstYbPn5Ynh0ef7my16bN1BttWG21RtNUbLWG1NYbLWGzNcbGPjD3viPZ5DN5o9GCsmNFxGSDDy94ZLSKItMVpgzGE9R5vSHm9R5PWnlPYeL2Hi9h4z3HhfZXi9bHg9x4PeHk9qeL0iY2wsRctjU9Y2LEt5+/qdM6KM2iFgqNLs6+0euOWMZS4y3kdX59PXs21ndHWOrfOmejp7Ca/b+Y+jPSzzl9ZbUTTPXQ5/Srd2PPzjYczVO652id/mdLjnl3/AJr6Wvk+l4ase3n7dQ416Xknjr7uzXA3Onrmjl9DpnB6vvzT6WEuPzX03ySfVenyvbOgpcWVMZmMGYwZjBmMJ6DBmPN6DzelPJ6w83oPN6jynsPG+o8b6jxetPF7Dxew8XsPF7Dyeo8nqPOeo83oPN6U8noPN6w8r6U8npTyeo8nrDzvoPN6Dzeg83pTyelPN6QwuQxmdPO5jFkMGYwZjBmMGYwZjBmMGYwZjBmMGYwZjC5DBmMZmMGYwZjFkMWSMGYxmasZmMVpjVIBKiKAqVYxUAAoAAtRRFRFlFkBSVEUICyiABQAkUShPP28z0Erx9sNzkRZAmqiyg9NnW2TIS5YemJj899H89Z1efnv1xtLp7EnI6uh0zhdDscIl62kdNtaLW/cMzieHcxs1PHf1jDkfU/Lp5YfQ8U8vfuaK7XnnsxzO9w+5Tx9uHHtlyqn1Plo8qOt4zmVvdT57yt+v+Z6fIk+k5Wh4Hv0uT1Dt/O9/gjvc7qgNWWQLYEoWAFEWCykqRRUVEstIFSgEpAUAEAFWxUkWAUAELBSUABRKACLFALAAWCgACggAAAAKCAABKAACAABQKAEJQAFCRUolABFVEAAC1AAAVEWBUAAUEiWAKoQIsFCgAAMcsYyuOZFmpxLjYoFgqWvXZ8NgZY2XKBPL2Wc/eyARRTHJCVVikpKFgGHP6Y8OH2+ZXcEOd0fJeX1OVmnt73Zj53Pvq5npvjx1t8al2hy3UGv5bo5fvujm+m+JQCVZSBALKCUAAsolgooQFJSAoCUgKACUBYssIsLbACRQiwCggKqUIKAABYAAgKAoAAAAAAAAAAgAAAAFBAUAAAAKSoiiUEogACyqliKIAAAAAAQqBULBAACwBQKgqEqCiWZefpQHFFixFlVLLGzseHsLjmssqQ1q2Z5ewBYoli0RUFACBVSrh5+1QFw8ONsJ2M+L2SpjLmAAAEed+Yr6pjlDz0MDqZfL/TVmFLABZZIBYFAAKqCgASgICgEolAAAABYAgstKkiwqAolKQhYoUlAAACUgFCxYAFiWwQKAqUAAlAAICgAlCwIACgAlAAELFACUAAAEKlAAEsAAAQAFAixCyrLFqCoQSKFAAFIsFljz9fP0oE4lhFhairljnG164UyuOcsjHU1uD7aVn0+xz+jKQUpMc4am58z9IZGMZsOZXT1ufqHVz5/VNoSmFM0VyfDt/Kp9Zwe78+djy4+zHtvfOdetzw+f+iPHp/I7B9Nh854n1nDnQTDpcDvqVHC3NbYrpABQgLAgUAAAWCpQKACUAKBAAAgBSgICxSWAsgCkLCggAKWUEigCggAAUiwAAUAolEoigJQsSolKBQkCglABAoIACgAlAAAAlACUCCpQCAAACggKJZIq2KIIBAAAUEAAWJcfTzzqhOHZalICnt4+8bWWOay2E4vY+Xsw62j2q4P0nHkdridHkHa5Gesn0Xt8lsr7bHIlfTPLcjz9VHH7HHPXqcvoGT533NDd5sT618/214ur0NSvqOB9ByY19/12zk7+p0jlbG6PF7I89fcVyfTpDDz9/nI+iuptnF8+r8/X1QAUIBAqiAAAFQoAoIBQoAEAAACAoBUCiLIAWCoqwAgBYtqUipJQBQsCAAAtFRKIogFlEoAIKiFAKCUEABQsCAUEACgAlAAAAIFlEoikSllCAALAAAALEsAUABKiVCiggACpYxZeaeo04dxySCWpS7Gvt172WLLF8+D9CTkOta4+h9R5nC3p0zU1+oOdpd4cbn/AFMLp7sXx94GlvJNTbkrgZY94+TvT61fNfReuUaGpq902Pk/o/mT6Xa0vA0+hzvA+h9flOmbmx8/tmx46m2dm/PeJ9PwL6G5v8/oE+W+p+fO9nrbIC2EgLQgUoQFSgKEAAAgUAEJQFALKQFSiAECklAAtsACBAVQBKCABaRJQBQAAGOcCyqBFiFAKAEBQASAAAAAoAAIAlKACAAJRFKQlgCqAIAFgAASiUCIAACgAAAgAKlF8vXyT1BxEti42UFy3NTds9aSpRjMsUAyikpSwFEVKlEpQQlEoBQScbHtq+f8/o+OdL5/o9E5/O+mGjz++OZs7Qwyo8XsPm+vuQ8nhsxy9XvZVlkRKUEAWUBSwoSLBUtoAAQAAAAIUUAELAWUEiwLFBKAFgKAEgALUJYAFlLFEUghQBQKEBYEoUsJUsBQAi0QFgSghKSgCgAAAAAAAABQCVAhRQQlCKQAAhUFlEsIAAClgAFhKVIVLmhYwzwPRjlXDQmUFWWPXc1dus1SpYJYhBq7fy/0xmKWCtHZPUkqwVNOt1xN83BABMDDkNuz12dfix3tj5j6E93kPZoDevnzTrOP7L0nO2kzz4uofTfOdOGj7ennXaSyoqAoVQEqAtSiWQAsFQUWSpLQAAJQAS1KBLAAAAAAACwAgKASgAJUALUFSoQBbYSKKBYUCBKAABZYFUAEEJUFQAoFQVBUFSghQBQQAAFAJUQpLKJYBAUCAAoACVUEBYAChAAUlCWQsqJRjn5epw5bUtBBs7etsmQVEkaerjWHQ2KfNfRcjbOjdfzNxr+q8udP5uz6nHH0jUz9ZHI8PoObXvva3uZOdsRsuN1Kzlyl5Hj2PmrO18/9RwTPW7HkTU9uycPW+l865Xpu7sfJu/tHD8/pB81n9DDK1HM5/wBB8pX1efN6K0QS2EoKCRRasJZYALKQqkRQJRLBQABYJKUCCyhKACFQUhSCwVKCFgKhUolBKLABYAAAAoSgAAFgAAVBUULCAKhBUqgCFShBUoBFEoAAAAAAECwUUSySopYAAJRKABLQgKkCrECFFABEoSwUHl7ePrc8fHC1YSrjmb3v4+4LGOGcr5bp9LRNrlemweOp3+Aefrs7Rwm/1DR5/Y2q4f0GhvGn6bSVzuloJlyOrwqnrv8AMPP32dg0Ppfl+tHP1/o/mz6wGTnbUe4pwuzyzo+/C7hU8I2HI8a7zw0TqsclnJ6/mcXu/JfWoUoQKBQSAqpZYAAShQAQCVACrKJYAAAAAKIQoAAApLBUpAALKSoUAAAAAAFIlSgKAACAtgWAAsoQWBUpAAAALABYBQAFBBCVC0ACWAAtJRFkAC1BAIFSywQtiFFgASoFQLLQQQAVBh6eeepw55YSeuGv5LubHH6Ndr2884qpcQQWCkBQAAKQlLNXbJzuJ9Z515anUGpth55ZB8r9V8ufT8vpfMG/4bVLeL6ph1+Ztml9Dq5Lz9ft+px/fuWvkp9XyjZ2+L2I9nG9Dl/R/P8A0hkJQAKLAAgKABQgAAAAUgSywsFWAAEABVgBBVgAACUALAAAUIKEABSUgKABZQUgAAQFAACwIBbjQsRYUWAApGtzE7gVYBQKEioSyljQ9DcSiURRAWLQkALCBQKEgirAAURYBQQgWKRZZUQCgiwsmflqfJ+GOaYNnYl0uzhvmz6Y5FJLAkLSAKABClopBAAJZVSZSUU1+N0tCzu8/PwPToam4a3vkItJQWChQIqTx1t+Hj7KQAULAKCABaAEgACyrALBSUWQABQIAIACgSgAAAFic7aPekpjwbO5jxulG6FFSAs8uZXW4XtpH0uWptykACgIUCxYpKIVKAALBUAAAiV5+gCrAKJRo/P72vZ9NkkKKBKEURQFa/K6/Es+gsRUS1BUFSkURSQALKAhZRKhYJUKAIVKhCigUJFlVLEVBfL18bPn/fHyNzz0fKXe6nzv0tmwWWLiIIVUKEsBSwUAKAELBUoQVKePP6ytPZzEqpFLKQCAUltIlSRlKIsBCilIAAC0IAAAqAAKWAoliKBAsAAEBXj7cmzb9eD0joZaO9KAACAcubvIrviWfLfVfMWfS5NSNtyMa7KpZYKLJzel4mj1OD3lWIWeFe75sn0j53M+gcLaOm1/UzuNioKhalAAAAAGGZPn9rq6NbuXznVN5jlAK8/TmWcybw63pp+ZvvmeodK8/E6N1uadvHw+fPqMPHjH0Xlz+MfRcKq7HQ8faAlAWAAAAEBRCgILAAsACUBCkqkSoAiyxVlqAvl6+afI+XmsyYjb+l4Xfl9bjZbhliVFlgAUQWWrCVBQoAQFhSpUkpQqxUBYAEoAFjj2di8jdMed1OBH1AAVFJQCwAJSUJUBQFigkABVgsABZUnI6+NaG7r6B2rwdg6zX94oV8/9B8nZ2+j5+hK58b88eXXceXibbHlnVfO0+g+d63DPqpx+qenzP0vAPoOP0vJOT3+B1DcnH1l+g1NXkn0+XE0D6zPkdA4X0vzvcPWwtlJgzHnj7Q1tfo04fl9APn8u7icn03fM888fM2WoNyamRsPCm01MTcw18j1eaMsM/Mnr4K9uPu82z07/AC+3L6CXH5Xualnhj9Fonjzr069/DV9Y0O7Mjk5e+lZq+vYpr+WfWl+X2O9x7MvXd2ZQLCUsoIAAAAACgkilgAAsAJZQIUCksFBKSLFAuNifC3G6yMl7Ha5fVlyq5swzxLBFirKUACwRZYAABRbAUWSUAUALAUUiiCGnuc9OB3+ZhZ9N8t9Pyl6mfM6RWrpnWcLpRueE1a0OzwFfTiBqmzeR5navCh3Zw4d2cTM62PNyOg58N3w1/Ywx98Dxw2dk5t7Q4l7WMcy9CVoZ7fkYPPA9NP3wNb21enXWGb5fKfU8Sz2297IvzX0Wme/z2zpm5zutzLO18/uaJ2vPP0N3R25L6bfO6I+f+g+aPossh8t9Do9Y+a1Prfmjr8jtc06XB+r8zm+HS2jnY9Dh19CM1YQVYBYKElhahKABZVJaCEpIUiwY5apxunOjVEJVfK/RX3JQ4nU9aUQC8nx7Pyep9ZcsIzY5HJ5H1viaXR5OsfQ3k70e6VQAQFsAAACKIBYAAQAFSwqUIQVUCwALCgFlT4K1rJcj6Poam5mhNMQCwsAKICgKSAKFFQLTGlCVKABCpQAFli2POTx4OWVdnW6MOR7a2smv0+fhW1jj9KcT07Ul+e6/v6HHw7nnWtva+xCZQwZjFkIqIoCkoioxtVKASgBZ4aPVHLvTHMy6MPD3WAWfN/S+Fnhq7mwc/pynKuXSPPid8aOp2hz/AA62Bre3rTjdnz9IfN/Q/OV9M4GZ3CxfmPpudW3wfpMDMQ8vWVy/PrZFEoBSSlJRFSwChLKAAWAAAWAAACwghq3y067kqUlB4V7iJ8n9bzbNz1w+fPo74+0oDG2zU0Or6Rw9npap7+vG65l4evzJ9QKACWUSAJ5nrYWwAAQKCVLAolKlSBSAABAFivhZW8338N0+h9/L2xoYyy4ZJQLFqwi41aBYRYVVIqIQqWqAQtkS3EZILYABVghxuzrJ897drZ04s7kPnPD6ripqurmemySiywFS2AWACgISAtSgUlIRFFSwVCrEVKQJQoIAA88vnax+h1fc4X0vA74SygeHJ63Ds+iqASpSSqSgFAvI9dz51PqHj7AAKEBSyxLKARQBChBQAAWAsCwWACWWEVbo8/o8tPohKB58To42b2loc8+rw5g2/neis715sl6OHF1z6Y0a4X1PzX1EJUBT536Lnnts8rI6Xj89tnQ2fmPau9q+PHT6vD5zejLe4Wwvf4GerXa3vm9s694fWj3ChEoCFgKgsFFQQAAFBZ8JTWb1eV25et6efpjVxyHjnjmhKABSyrLKLKSkLFWEhRKAFlWwApFiExj0Y1aKEi3GoVUKs1tqJz+P3OLX08IBRYlLAAAUBLAAsgAKCLFIEWCyxQAKhAKlJjODWXSz2yam5oGn2+N2SVIoXV5XY5FneEQhXl6lgoCxVETV2lnzX0nM167olCAAoIAsAAACoAAKilQogQoARYtsE0uX1+MfRqiUtlmqmGW4NLPZHG7KxydvaVyuJ9hya2+L9FoHrvSwSrKI88xwepsZHH1vofEw0+pkeGl0x8/2/WHll6Dyzo8sdgefoSiFgCiCLKohYAAAUARCy2fCZRvGf0Hz307W3lMudSxcVEsoMjG1ULJFCVQSlgKAhYCiFLEWFoJjjklpQACoQUlSrEXS5XU5dn0iWAAhYqywqCpQCLFCSwAUAKCAAsABTw0U6oUAE4HVx3BULzuhzDHrc3pBEXy9dSsdv5v6YCV5esT5f6fhbtdESgAAAk4Pf860ul819EZkXDPz9YxuOvZtgBQgAAAEKqFWLIAAJQCsaUAV4cL6P5iz6mWQIaXznr42d/p8TtS0QC2BZYjDLj1t73I65LUSwAWUsBYEso+e+h4FneutsgSopCkWFggBYoAAAAEoAJSEV8ON59fqPnfpJfYYsxz8zNMllBZbEolgoUIFqFiUsAKWLELJUpAAIoKtiogBUCgIsNHkdfkV9D6eecVLLQBQCCKLYQAAAFBIAFoIACpeGnZ+Z7Xz9n1uXDxXvNL3j2c3I6Dnw6Ihyetya9uhz+gWOWbl4GwaH1fG2K3vTnecdZ8t2Da4Hn7WfSNHcltJQFgvK6vHs9Opxe0Y5eHmbd0dM7U8uUdj5nr+Zv8Av8z0Tqzk7Z7YcLyPqfPi+B9Hn8z3TZEoUBYBYBAAtQQAsFRT5j6f59O/lr7A5PW0Tldn09D5Z1uXXWcb2TrbvyXUXd1uPvm/5a2on0nymxsxv9LHKWpbQiBFhagBBrnvz/bKtbpcvpRQtIWUEpLAeXqhYoAEogKFAgSpYFlnw9mW8730HG7Wb6jNYZ+ZmWgUsQBKAAAFgqUCApZVRiVMoWEoACCgBYLBVISkNHk9LRrviLcRkwxPVqYm7NDE6DmQ6rk2OreTlXUc3KN+6XobLw9DNjSpQLQQAlUBxuzrpo83uadnr8/9Nxa29DY6Ucl9N4y6/N7HOPbqfM/TDldXmF6XL6pOL2tM1+n830De+e6XobnznT3K5Gt9Hz05Gx0ugfN/R8noy7THgR9C421W+JXO6XnZxu78xumjh7b1mpPoC8Pn/XYyfKbX0PKNf26XjbsfPfT60eeh2czi6n0vnXP5v0fkbCWUIWKAsCwAgALCWUUlgcTucezb3ed0QiWoLy9vYs1+B3/KvDoeqPH2CefqNPayAShQASApqe56AeXpbPm+znxzpc2do9coloIqw4nSNia20fMfS/NfSHoiWwAACCihEWIsAK+Htbx3Oro7+N5CGrtYE9CksFgoUEpAUipUqgIoCQRUmQoAiykUsWIMTJ4+K7jl+SdmcVXY8+Z6G15Mzn4dbOuY7COPt71EtXTw3xpaXa4idLL2p4Perr47JNTDeHO8+qONh3Bwp3sT53scD6oyChICpQJVSgIxyGNoBWGZMcgczp80x6nK6oB4+O4JSVzujqWa+5zPE77V9D28dDj2fT+uhoxv6PW4NfTCUFnjsExyAABHIjr3ndCqiVYLCzk6W5hXU0el8xH1IgYmeM868sMNA7nrzOmBKAFYqioKlHJ63Js9OlzujAKBKAVUQBQSgFBAAWDE+YYbtdbZ+e+hyBWOUs09z5/smwnke01NQ38uPLNP3y9jsZae1L839N839IUktQFCAsFFQQAIlJXxHp57G8/RbPl7Y1SS2SmUSygKBFWIoKgoIsCqEipSKMbcTJ4+NbjmeCdqcOnW8dT3PPx6PrHHy7Vrke3RRqevsMbVQLOH3Pm07/phkZCUBYqgcvqeCeG9wu6ApikyAFoDX2PNPmvqvj/sKCURKRQAQIWFooiLFoABzujoprdfi9oxZFAAefoThe+nu1oYb9TQ1O3zK6nD+v8AKObhs0y6Hyn1EuayKLRCiCEcjr86tbtfPfQhLAKBzPDqfO6z1+D9Fzz23uZoHf4nrzzZw3tA+k8dfqS8fufNfSFEsBYApFhUU5fU5yXocvqksqhABYLKEoAAAAQUUlifPefto2bf0elrS9Vwh3WOlE1+r8xX0XB7HHs8s+jxD6/U4/VNfn/TcE73hdZdPvc3pQiywAFQCiAAAAFnxO54b+s9n28vTNsSWZY5gUACpcS3HJKFCGOXzqfQX5219DOBTuefL9TZ83uafl1vQ4l7lOP79Eavt6CUALBQkWCoLKpCV859HwrOvn47AEWCrBUJcar5n6f5/sVsY2SyyxklAoAE+R+p5PVr2EVC1AAACAAAVBUS1KNXZws4ve+c+jAlCgQDwz9A5/QGnt0VKamv0xwux6AIBVirCFgau15WfP8A0vy31RBKFBDn9BZx+p6DU5X0HmeHK+gHk9RzN718jm9LH2XJLAAACWAtTR3vBOb2uP1yiUAKqIKIACwAAAAAs0vnfrvmq6/D70jjzt+p5cj6DUJ899FhXC6N66fOvosz53q+vzy/Vanv6RzPLscSunsY5RURQQKAsAIAAChZ8/s+e2bOUExmMvp6+HslFAAQKsosFSw+Z+m+Zs7G9q7QsFAQUhUS0AIAAIVC1KABQQ4nb5VmzueHsVEoACyghyNvW97N+UYyyLhoc6u/7fNfSFRLXA79AAAAAABAWAoQsJUVZQB8x9P8x9OES0CxQAQY5IFtlkVKkVSWQYYV7FJj5/OH1IGOUPlvq/kfriCUKCAEsKQooIlACUQFqKrHip3GjulEspUsJUS0UEAWKSwLAAAAAAA8vUQ0k3pzt4zouh63jV9DZYlgau1bMMiGORQALLEAAABQSAWCyyuPuae/Z7WZZuPjsYLj6YZoALbFgECiWBYX5f6b52zs7ehvgsssUEVKABQIEAssAF0tzhJ3MtHdKFAeXr85Z9E1doMbFCkhklAOZ6YrOkFxlxTjauxzbNj6j5TpnYcnSl8vqPn+obs1cY2tLnetdq8GHey5fUAgSqlAghaKBAAAPl/qfl/qCCUEqWhChQAQAIBWreNZPfz71nH7XzH0kufyv1XFOt6c/oA8jU6Hh6mttcfyO84HdLZrmy5vTIqWSkJaCAAoFCQDn+GcrqpRZIymOJ6cnraFbuXA7plPPhH0OXzXVOg5+9GQVZaiwACAoISwsCgcPt8Wzldni79n0TX5Mvd+e7Oqe2zwNs3PfgeMfUuJ0DbcnpVPLi9o2mtxz6Fr7EAAqUkURQAAlgJXM3dTcs9LLLMc8ItlKSlgsohZZQJQKmnuk1NsEqUACoAFiqgogEgUQvznR4tm59B830Tey+b7A3/m/Y7ulwusafd+Y7Bze9weodASoDKUA09PqcCz6REJYfN+G/NTQ62j9Ac3m/SJedpd7wr5j36e3HI3921yeX9Fy07/ALRLUS2IVKAgCwUWhAIFfMfU/LfUEWASgLKBYAAAACxScDr8zoVzepyKnf1fn/pl4zw9U28tfTNfLyyPqfm+rDjfR/O/Tmh76uge/wBF879FKERRFGKgAFABCDS4f0vD1NvrcLblx5G51bNPntkdDiYnR0vovnR0OZ0Tme7tHA2d3yl9dTL3OpljkoQAACJYWAsKsDX2FnyXtn7anhudPky6+HXwNPe2OMeXh0ujHG8fqdJNfT+gxX5rq7etXjzO7sxy8/fzT33PP0lIKlolhLFWAoSygTn7ert2Zozq4Z4JkBKoAAIvh78w8exyurXI3OZ0zcEAp5Y17vPOKlAoEglqC2AlAEpONs9AanK+g864Ox57iTZ5PdObs6m8Z+XvqL7+exga/rzR2wKSiVfmPpuEnea2yJZLFlmLJGNpYQBAt4m/pdmzKxFEWKABRYJRMoKIACvmPqPlfqiAAAACKgooAAFY5+Kcne0cDz9eh6p8n9DpyvHd6erL74bsNH396fM7/WHz3ezpPn/odM4/0nz/ANABBKsKkWKIWELLQBCXHKVpZbglDR430/hZ8z3dMdzU20vnllDj9kLALCgIihQAEsLABAUCKACVGOQAABQoAEABUolgKkQVUAAs1Pfy9qyRKwzwM4IsFAEELeX1NCzy6nF7J8/2eD0y7/zm8bN43QrT6vH+kj5r6Pj5HV9fLNcggqokVKgAWgKSAAOd0fKuX563es43Q0Ns1NNkY9TX8D6L5zs6a9m87oxYKsE5XV46b+1q7QKslgAEQqY1FpSKsUCIrGlS20AIASwpQAHy31Py31IEAAApVRQCAFRCrFIxylLBYolkPH25ZubPJ6ygAY621q2c7ucXtAkUEAAlLAiwtlEKRYVCVKPP0+drq5cqWfQvL1lCUCwAKlJUKAKCAEUiqQgAAAAAKCAAARKIAFLKWVCUiwsCwUE1/Xz9dJUzWKgSUFQCLRVwzJ81vdDyNboenicfoeu0cjY3xpbWdOH1feEyJYoiqSiAioAClhKIhDJKvEx7izX0+rDS0e4PPjd2Hze32Rwe5kISXKS1Of0NFJ0ed0QIiiMpbJlDFYRUKoqJQRRJVTKWWhAoACgBXl666cL6Tg98CCllAAAALFlWUAiVAEBRCkS6u151yO3879EUQIXX9xyespAAAAoACVUELBYpAUia/P6vlXP9+N9VZ879FxOrL7iAAAWoKgoJZaCAAIogAAAEolAESxaBFIEpFAAssACwBAAoDxzwyqpc2XHJLKIAspKJSKlUeB7uX06y09v50+hyBcagASygFAARZFCBaSRlEQqpZC3Gy0UsoANc93NidOcyR1HKh1ub5K3ffnZG7NOG5lz/ABOzn8zT6ZqbRJSykFAAIlEooqABQFjlnVaO4ZXGl0r4mt2tDfAii0iKEAlKABQAgAABKJQY5cCzDs+PKrs7eOUosJQFQQACAApKASoVKSoALBYtnyX1nyn1ZLUoAAAAAFQAVLQhREKRRACFQLKEIsFSqQCkAAAUQVYQWAiVC0CVZ5VSVFx9PL0kqBFoFKIqAGrscJPD6b5Xu6bvz23pR9JONhXcczzjrafnpnX9/mfpDJEqyoSqFgAQFJSxUSglGNpHl5+dTe+U+prIQ8fYaGn2Plz6SX3NfP1GOQAoJOf0OWmHV5/RqZTwl9wcvqcDaOsAAiWsM6AoQiKmNZ+HN5Z3uatmfc+a+llWWNDlfRfJV9glgKoUhKlCUAACAAJw+38XZ9L0fn+8tuOUuvzex8rZ9Xed0S6+xD5Pt7OyRZKImSAAAFBAUAAAAQAAACz5r6DjdI3UsAoICgBYRCixQFAgKEVKiCpYALBUABYAAAAABRLEUgKAAAhZiASXHPHJAIqlhRYSwqDHX2qczV7mvZ87l9HDl7m7THW3Bo3dGtsqQsoAAAAAUCAELWNL5ennHF7nzPYs0OpPU0t/nexz+zxPevPR3ttOPva/XOhFlJQRRUnE7fzx0+TtcuzYz88DpaN8zq8Xd3j38ffUl6XD2tA9tzw2DnenZ5h18uD3ikEsifNfSfN169fj7FnU8eJ2TifU8HfXovHzja+d7Gueu9wdw6WOjqHbc/VOxl899AXx9eYdO45RQAoIChZh8Z9f8jZ2+1zOnAxly4Pd5ump3vk9+O6+e6puONqn0fLz4Z1fG9c9bz9M7jjZHXcrE67ha59F48L2Onjp0289GHTz4uB9Bl83T6OfP5HfnBp3XAp3nCp25yMjrOSJ6a2vX0zw9ooAgAW2BAlAABAAAoIAC1KiAWBYAAAQAFAAESoWhAqKIslCzEowzwlZS2AQFSwWKsAWMNXin07z9AFWUJQeCe6WFxtPHy5Z2ffy9ColpBQCgQAIlSrCPHX3rQL53KpioA8fYFiLAqLQLpbmunO6vP6lMckTHMcPt0WKuMyiJQBrbQoJFRJjxq7r5/GxhudQ+d8fouIa2X0Gmc/s6novJ6mj9EfN9L304z6V9j5L6n5j6WvbW2fONPoefpLklKhKgqKqWMPjftPitT6rc09eMuFs69bWGoM/QOvyfXoRxvS+FbW07Ecrtauyvhr9AcvDrw5OXUGjsewiiKiKIBjnK8nrTxyzGDMYXJLKUEYc3rLNbZFlASKSqgoCCiBCoSoUBYSoLYoJQSKIAALQgAAAAESgFSxAUAALMUDHLCXOygWCLQVBYSNfY8K+dwy7dnh58/2jd6Xz9XrbXH1jqOHmb/P2t6zz6Pz3SXn7fM2E2vPo6kvaBUS1KABRKgSpRKAWJRKKlEKQAsQAAWDTjPj3tU9vmvo653T+X+nKIAARCpRQCULAKYFtCwX5T6vyPUHlj74nj61LjVSam7K43ZAqWLAoWVBFqCgw+P8As/Oz5zt7lNbifSDhzuq5nrvI8/QPPH2QFALC1hYyikCAELQgKQVBYVQRZJZRCqABAABQAAIEFVBBSwFlEoAFgCAJSwAAAUEARYBYVLLBYAAJUCVWAL554y5gEqiAsASxbKTX96NLX6o19bojWy9xobmdMdXZ+aOhnq7xyNjodCvL1WIVQAQAAAFABAUAAiAKlqWUggALNXkOqbOYfO9HHkVj2uYs9up8z6S93c+ckdfw5PvWHrr1Pp/Xl9SWwAgLRzUw4/p0rNza+X7BtbPyXYXqoigSYHpKliyqQoSpVABAlCiwCALCgipaSwqCkiyxAAVYKhAUAAKAAAACBCoSpbQgBKQALQAAKlAQAJQAAAAEolAQsUgAAoiKiyoKgqJbAAAsEAlK87hkXFZckqRQFoJCFCjkSde/PdetoSi1JUam5819HV19hGrtlLBUBYVBUqSkoVLEAllhYoFqWFQLABYAAQAFmOQATR3x54+w4u9uDHH0HP2fanncxjZSgBSVHzf0nFNvf4/Yrjc/ucFPDY19lO3xdvlr2ezw9k0dPz+hM935r6WUFWIqWgHn6EAAAsAFCAsAolCosgCxSLAoBIstAFkgBagAUAIBAWKAAAAFhAAAAoIqUABQCCpQAAABKSVAAKIWwkKIAKCUACwAQANPNLGOWGcuSLKlCCyiEKFcPufMp1ujzuiLj4r7vPBPfHk+Z5djgdSzqXDTl33G6R65fOK+j8eVon0nrx+rGaWAUKAAABAKhbCAAAQLahAAABYiygAAlCgAAQUglAY5LOF5fRYHzm719Oz5v6v5X6g9+H3kvzmP0WVnD7yy8HukABQoChIFBAAAUjEyTIAWJalsAEKgoAgKASiLAslAsAKAABAgLQQAFACKgEKBYQACiglSkEWoKShSVEqJahLFIsAoJYsAAoECUAAKEioKS588pkvnnMpYqyLIWCyqxZRZVTD5j6nQPXTm9XIu70Tgef0fFTz9NDvHN8/oOYvjns6caXv1duvl/fz+mPnc+9Y4mHZp6ZSygBYAEoWBAAFSqFCFlEWAQACVAWApAqwABYEAoFgAmNBZyDqX5np118chy+h6QUFhaQFjHD0iY5aWxXsllgDX2KoE0tRO08Oedd58w67HI8ctbWG/oex0AAVBUF19jyOP3flfpk43V19Ne4IACgEVYAAIABAAAAoAISy1QACAoIAAClgWEqIKJRUpCCwAtqJKKggLQAgirCBRCkoACCUSwFufNjkuOeOcssIAALUWLUFliUhULdfYifKfSc/drbELA8/SnE7QVKSkqUABYAAEALLSKsEBRYVAEAVACAABQKAWQFAAgAQBHhsV5/M/Q8hO56TxMONl5nX9OPp19H5fPQ7G7zepLuY8jl19ZdSxtOR7mju6vudQxOft87M1OxxdyutHHj31udnZ1eX1uWdHj7uod3e+d349+Nkre1+x8+bvrxcj6Dz5HRlz0ffROq9edW90uXrxn687zT6f5b6j5s+neXqoSgShFgAFAgSgAgAAKAliAALBQApBUFAAAAAKIFS2RYBAqwUsJYQChQQJVgLEAAAJRFhUJUVhLBlLKAFgRSWqBKgAEgqxJkBAqFoFgqWggEBQoAIACgQSXKACBasFQgQFoCwAAgSgABQQSgWAAY5B5/PfSj5z27lNTT69NPlfQj57W+p5lnK2vTsHyOxuehyZ3Ng+b9O3rHhqtc+vw8N6XkPDpGny/qPI0tHvZnzHr9CPDU6w4GfcHP1u1Dm579MdTdh8/p/WeJpem+PLW3xzN/0pxtnfpwuf9ZiYcLrck7exKBACUsWIAAFAoAIEAoEoAQAFQlCwCwWAsoAAAABUoFQQAFWACWWAS2AFAARUQAVFkiwVCgBZjhngZ2JSyqhBQFQRZQFEiLCpSpSLAEUFlWUsSlliKAKAAAIKhKgqCpYIWksFCVQgKACAoICgAQFCQAAKCADw0K610tU67Q3xq7NXj9gR5eusY7fB7wEa3js8quxmhg9CgBAlgsLKBQKACAqyoQtACRQIVLAKggAUCgAAgAAQAAlLCkWBQBLBUFACBQQFoQACLLbAAAKiWAAEoAAABFlgAsCBAAUIY45FtiAsAEMkqygSoIVLLJkIoSwFsilAWWIEC0liwoBYQCElyQUWAAERSLUVQVBSRSVUAsAJQJVEhLUoAAAoIBjxezwTy6ep2zHj93jGfV5HTT1a/subn6Z29TU2jkdvh9M38vkfpTZ+T6XKs+waG/KCgBAWALBUFJLUtAAgAAShYEAoIsAUEoiUltRFSgCWWLKpElQVBSKURZQSAoFQVKCJULUVUFCABAUVEWWrAAEgUCgBICgAEWWWKlEEAgCBgmVUShYABYFQKKliLKAoAQFiwABAKFAEoSksIIWEtQUUQlQtQlAAsFChAAUWRUtAJQSwJVAAhFS0Snl6iJq6Ee/P2fCt7kfUcxOX7+m6cL12LW5wPpdZerj6o43R9x8j2tvE4G91ucmh9Pyy9O+HsUKQAFiVKLECVULUsLBUFSoFACSrKACFgLAAAsAFARQQAQZIAAqkSwlsAEAWAAVZYqohYsqUIKlgFFSCgUICgABEqJagqCkARKqLIAEULPPPDMAAsFEkooUiwsWAtRJMoWrLBLYAAJKAWWWEBRC0iAAAAAAoIBYFQUFSqAEgUELCrLQgsFgLBYFSpKhTEvjNc2Pfw2Bq7Q0N+cM7rHIFUiAIqosS8vp+ZzOv8z9KZIKgqIooFBKhSEtxGSCoWgESgAIioWoKQoogqIosBbAAioiwFJQIKisoFhCoWAVZBABVqURUQAAACxVSoAECLUFACBTGpalIBYAAEsCiSiCzzzwzoIAEKAILKCWoKQSiWKqWFiqgqBYgQqWkpIAAAAgoAAAAUJApYKABcaVBUpLBSLUoAACCLQAgHN5Pa96+b2PLrJzd7p/My/VPAe/yf1fzVd/30cY6Dx450/fi+dd3L5L6SJp6fhXUvK2T6GTiRqfQcHGvqGOUVCrKlQVBUFQIhWNXK41KhalQIIqkCUqCoKgqQohYtqIyY0osABQiUQFlAKACAAQAAUBQqWAJBalhbACBQLAAlIKLIolAJRAEAAACkogUSzDKUCAUECAAWwAQpYgAqUJUJSUogsAAAAAFiklICgUECAtCAAsAAWAJViygSiBbcRlJRYKgqCgwzxyRZD5L6P5j6uvfg9Dixsc7d07O144bROZu+S9f5rvapr6/j9Ccdlke2XZscHc3eCemn6dA6PDyldXd09uAFgtgqCoLARAWFltqUISkKlhKqAWCpVCEKBFlhC2ojJjaqDJEWFlIUi1EUhSFAFJUgKAACLBUFRVQVAChICi0ARACxZYAKLEAAAFBABCAqVZ55SghUqggAAQItCWFqUQIAAAAIVBUCwWAKRRKEUQFACkqSgABLKRUBQABBQEFChAAUsFQVLAI43ZV8z799XI6fojy5vXHN6NpMWmbyl8fYMbgT0QJYShr+W6AEsAWpUAqCpSLCKKlAACCgsAAQqUWFAABAWoFhLcaqolIUAARYKBUtgACWKUSgCEsAoUAsJYAFQAqwgSglgAAtgBQQFBAiWCggAaYgIlVCxSUkEqgCEKoECJSwCgCKIIAFpKIoiiUIqIAKqCoWpUEKAAQsBZQQACKlJYAqwgKEW2EqFqWAocJO7p8ndrd2fnfoYqCoJ8v9TxU6/py+nblobsj5bHY8LOj2tLdlA4va+P+qPZPM9XOwOm4XaMwLBUFSlgAAALBYAhkgCAFKAEKgolBBKqIqUWKqCoipSotWIqKqChFhbCKiqgsqSAqCi0EBQAQICgUECUEABQAEoixKARRSUEEBULIBCUKCFgqUQAQohCwBFqWgAQAAlgspYLACAoWIABYKLQAQIEqywAsIWLQgEACgACUSwAqCoKnOOlzejonB7vB9bPH674/uHtv/I/WL4YcfKPotPY5hpfSfI9muqiOBv63uY73K2jV6fzvZOW9fCz13dbTPbW7HGNzoc3tm0JQAgUACgAAAEoAFAAAgKioBYLAAgKqCoKlgKWFqUIkqUWCoWkSpbQAgBYKgtxtlgBAURLQABQAAQFgAQItgVBYCwAWIUEWWSAEoAUsFgACJUSggEsLUUsoQlSgCVAi0WBCwAFlAAAAoSBQQFWChAAIBKUAAIAAWASqhFS2ANPc1ji++x00+b3exD5f239quRrfU81Xl18I+Zy6O3W7FjV9rmafp7jU1t32Od47/ucTsewfLfU8I2+lyuqCrAgpKQAAAFAWAAsFgVBSFQUkVBUtIKCAAWAAABULUqBACxVChFRVRJQoCUgKCFi1BQAAhKCVURSW1CUi0RJlECUKCgAgAQsBYsxFBKCACFQVBYAKglQVBYCxAUsoAQVAAELFUhUFAAAAsAAAAAKJJQJZVSiWFlEsAACWABEVFVNI3/DUDla8s+wvK8js3W5cvZ+W+j+Zs+wayXY8ePon0ejo+Nnt1uL5nQ9+X0Y5fa5HSOZ0ffmV1ujz+hKlEoCFQZQgCgCjHROggqUAAACAAUBYsAABQQAAFIipUCgUEAqFqChLCKloFsIsoSxKLQgBQSqSyFgsCiwQKlhQlIAAAgoAoRLAALAKxAEoQRVggBKqCLCrCFgABKAAABEVBUFFAEoQZJVIKEEKAAAAAFBACUgALCAAAoCQColKefpDhZNmuZv9bKPn9H6fXs5+nu70cbz+h554fQ6e6vz3v2uedDUx3zT8ekPH1o+W+n+f7Fmp5z0Oq8+PL2PPj9U3E5Z1Hz27Z1J48OPpPCcJfpdfma1dPo/KdyN9yufX0vB61jy3fm/pAAAAQqCgEioKKAAACULAIshYWpSWEqFqWgBEqJaLKFEKgyRFSlRVgBFSosLUFRQAAIsRZZQssFWEAASiSwUEWVSFgpKgViQCAlCksSoLEKlCCgBSVAEollBCwAgloAAABZRAqUsFWEsBYAAKgoCVYpCAAIBQsBQRLIlgygLJWUlPn+lyO2njr6eufWc7Z4x5fQ/P9InQ+b2Du6O188v0Xzf1XDNzd4u+bnH2uKdzzxicv29dGut5bvEPadbRNr00uwenzv0WMvFw7+vZqcnv6xufO/TWXge/VHldqHJ5P1OvZxfpvlfqTg9Oc47xZQUhLACKlBAircaUAAACUQQstQFhBYoClARURRKAWAoJUS0AJRaAsRUoFALCABKFAAAARQRCoWAsVUoggSylkVWJAIQipbQIEShLIAJQUliqQWJSrAEsAAACCkixaAsJQsWUCAAoAICrAAACAoICjHFfRLAWJZEUANfYGtslfM/Q5ehxsO5DVbY5+xsD5no9PIw0ugEolDHldccrqhoZbomh0INXaxNbb4crvNbYioK0vQ2ohXl5my1dg5/O73BOh0wnzH1PyqfVzDNQlBAAtqICwCKiZQUURFQWFoSBQQAFAoSLAABUW1EVFlCgiwUQsWlQIUIsVQoAAklAFAoCURYCiBUAAAAklhQGKCywABUpJYCwAAqAILKACAUEEABaAlUgAAAgKAWCgFIUggKFJYAAgQoApLBZYJVllQKgAgAKqCoWhCWAtWVCIChCkKhVlT5H2w+ns0NDu8c2Nzl9CXS0u1zjqcbdzOY+k1jhenQtYc3ueJ77fN6UPle3rHWzAllAWLLEAAFlAgCUoFBAgKCAooglAlLAgAALSWQKqCoKQtxoKEsqwVBUWURUtAoIACpSJRAoRUVUABLEUBSCFgFYwgAgALACyUJQAlAAAlJUCgAEWAApYKlVFSLAAAAFWEqCgAAAACAoBKJSCUSygKgqABhjwo7+fzH01eXC6XKPfv4ZiaHHr6hyema+p4bEdZC0hUiVBYCwVKAeHuFlgmUNPHeCgAAAACrACZQAACUQLAWCoKgoUCUQFBAAAUICwIJQQsW2UkAC0BZUABQKlkBQKizJIuTGlQixKFAgAASiFAFJSAqUQRYUFmEsKiEoJYEqpViiVCxUElWWgQQUgKASyULLFJZYAFqVCwUEAABUoAoQQoAUAhKACAUAEoSwAABUpMcg53P2uVZ9XqaWUc312OxXz2154mr9L872DoObvS+kAlAIuBk4HbPSyqsJUpUqwIBUFACiIEVCgixVAItQlQVKEAALUJkgpFsECWoLFoBKQFAlIAEKlAsSyFhaLAAhYtqVFgqJagqUAWCiwIC0EAABQQAgsWWCywAAEqvOpAkWUEtERYqylIpKIQAVBSFAIBBRFlALEVLRLCVRYCkWABAUALBULUoCAJZCxVBAALAsFQAAAAJRwblz7Oh1ef1peH4fRw5HU9Iczz645fQ9IUQFIAHGz3/n6+nSxUqgUIQVBbiMkhbjSoEsKgqUSwqUEWhABCoAFgpC3HJRChAAKhagsoBAEqUSrKJUSgAQikqpYAqLQAQIWUC2okqWrCUEWKsolQqWUCKEsLKIAECiIpLahMIAShRSQQAAFUKlEssksFhRQRCipZQIEAALLQhUS0WAqZSIEWWgAUBYSgAiiLAAsAAUECApFAAUJMfP28K9ryd89rEoAVFiGlonbeXoV5+JtAcHvaZ59D576EAqCgAEKiWiwAABLIqWqBBQLBALAAEKAFqEoAWwFlQAAAIsBYLKWLKWJLC2yiKRKJRQgKAAIiiqgoAFiKgoSxaEUIVBYoIAASiUJYQFCzzCAoC40ACCxQsCUAACosKIAAAASWgCwCoFiWkSpaBSiFSABSwCRYqgEKiLCiwABQQIALLQAAk53Ix7mpq9TPny775vGz6Z839Cvhz9DtHn1PmO8fP7fr4p27dJeL457KdfZctelny+tHzP0HPV1RAACwAALAqFAABAUQFBAUAAAAAAAsFQtQWCWwUBKAFkAAoUACVBYABUpBRYCpZC+foSlLjQIsCpUBaAKCBCgELKCURUSxQQFBArzFgZsoSVVlhUsoUAAEABYAEBQARABVEBaCBACy0AKSgAlEUQBYALBUpFgsFgAAoEoRUgWgAkBwM+xpnny+xtnzj6C2cHs7OUvy30uWRyNvcE4/ZHzvl9BTR0Po/I5On2tip7EePB+k4J3mnuAAEoAAVKARQABFgIVKUQFSgIUAAAKCAoAIBULbBYIBRAhQAEoFAAAAtQVEVFVCWKSwtJFliVFUCwVLKABUCwVKEFShFgRYKACBXmSwszQACyqCWWAUKBAAAgLQSUAABCpQAlAAABZQsUCwUIsIsFgBSEoAAAAJRZYLLAEWFsEAQAGGYCAAAoICgAAGptjldUAAAAAgKAoAAAEAABYgKsoABQQAFABAFiKKSxaCpSCKhKillglCy1CKLAVYQsLAAAAFIIAAqKWVQhYSwtUgACwAoEABSiBAryEgS1FAWUJRFRKKlUACJZAFJVAAAABLLAUAAAAKShQLBUpFECxYkWRZZSwUACWCiiFipFEqAAEWApABAAUAEBSUSgAAAAAAAAAUQAFQWUSwVBZQlAAAyJLAAJQoICpVSABQKlQgqUACFgqKoAllCUsBQgKCAsFICoAAgFCwFIS2CgAUBIqWgAhYoAAAQ8wCkBUpKEsCgCkFAJFSgAWJQAARFBKUAACyiLEUUEtAFiygEWKBJUQpBVSoSgEoAAAqUkWAgAAAAAAAEBQAAAAAAACUsoAlRFllAAVKIoAAAABUFhKCBQASgBYsKAqFIhRFgWARQAqwilAJUCLQLAAFAhLACLQAktJZQIFJFsVUFSwAsFS0CggAAhUGELAlCAFilAFAllASLIqCxQAFSrIoACAqLIpCyrQkAoAKKCFlVCwACAiwAABRUJQAAABLFixAAUEAACAoICiwAAsogAgKAABQQUSiAAKCUAACAoCwBSAAsAAAAsFgsFqBZYIoJAFhaAASygCLKJSpQAAAghUKgLCgQFlAqxFqVAhZbSVAALAWAoSiLADzFgShKCLFFEsqpYgAAolEpKACRVASglEspKAAAsQLQhYUAUCqgCCFgAQAAKCVC1KgpACCWAAQFCkEFVAAAACkUSglEWAFIAAAALBUFBFEWCygAAAAQFLKRZKFgAAABRAAApZAIAABYUIVEWxVKCFABFkqiCVZYKEsS1CKVAUShSCBFiGcBYWpaISoKBYKhQCEwWUEAAFgKsUkAsBYBAClBAWpSQQsolUIVKAAALKoSKAKIVKgUIoIBFgEBaACBLUWUpCFhCVUUQBYAFCUARYtipFEsolBQlGNCKAAAAEolQqCoKBLCgAFEoRRZkGeUvlNqmnNjyMBYAAEKloJYpAAAoIAAJFFAJULFUAALUQAACALFBKsFgLLRACACRQAVKAABQQsVUFQtCeYoIACAAFirAAsUggABYqoKAQoACUlACUgBYqxQCsbAUCggCWRYUAAKsCJRKAoQWWQWAUAAAAAAAAAKsWIspUAEAUsWIURUJVQCWCgAKQKCFEURYFEygz9PFLteuiNzx8IZYWWAAAAAAAAAAEoAIpSJQELFVBUoJLQCJbChYAAABYQAsCUBQCwBAoAlUAAAEC1FlYBAlS2MaAAUAAACliCkqABQACxSJUJYUgsFQLKBQFQLBUFCkqCS2FgAAQsVYApAUhQBAUBFSxRFWARRKCKRRFCUAJQBFEUFgLClAsEJRFiFVFEVKlUCLBRLjMpZKEsFIWASgABYAWAAAAAAAAJFJVgoIsFhFAsVUCxFi1FkUBLQQBKUlAQFAAACFJFsWglIVKAAABCFYpasIACAAogqWAqxSACLKqLFsVAAEqJQgooEAiigJYKAIAChSBQSUCUAAAoEoFAAMbQAlLFEUkoJRFhKpFEUAARRKEoCkKstEAAEkoQUAACgFCKBAWJRjMoQBKASyiUAAACFAAAAAQWEAABSykWKLJBVAsoSkUJYLKEQpQgKASwUAACWBQAAELKollRCglAVgAIABSCiwAAAAUggCpalAlIolABAFIsAiyqSiLIsCpQKlAAgygRUBQAACgKSygApFighYqwgFlEWAShYURRFBKRRFEUAKKAAACQQlUAlgWApKBC1KgABRjMx5vXI8Wwl1rsZGq2sTWbGCeT0hiqpMoJQCpSRYAIAQAFABAKBYWAVKAAAWAmUALLAColqUJUELAWCyqliKKEigFAAEqgrFAlZoIAAAFCrFiAAAFQJaKSiAABUsRUFILLCVQAhUFAAAAAAAKQApCiyrKQFhZLSVUJYALFASLKLLaEAABYACggAAKAACAoASRRFEFABAAltSgIBQW45Fywsud88i5+dPTHFFkxq+eWJiEgAoAABKIBLAAFBAgLQkAChQIACgAiUApYAgFBFgBVlEEAFoAIFBLVhKRbFTAWFksVAWggAAKCAAFgELFFEKAAIApFhQAAJYKEUJUBQAAAAAQFKAFAAAEBaCVAAshUsLBkFCggAAAKABAAUAEAAKWLAsAkSqlACKICUJSAFLalAi3G1bijKQVBJYYrLAEogBSLCpVkpIokpQIoliFlIsAQABYosKAAAICgAAgAFLEAAAACllgCwWpUJaiqwAELC1CABAAUAAKQBZAoAFABKAS2BAAACWkVQgKRYCkBZYAJQAqRRQpKAKKkAAAAgFKoCpKShRBQAABIAFoIAClgCLBQqURUkFFEAAIAAAAVLAKFlQtAABJYCASAoWJRFhSFlSwULGKqiwSoCkqIELAKAUEAAsLCFlBKoEIUAAolAgKWAIVCyqEilqUIEwFtEBAUAEBQAAsSlABAAUCliFLFiBAAUEAqygUCShKEKQpAAALEWUqwlRVShKAohQhKAAAAtSlSgQgLKBQQAFAAAgKAsFggLUFQiwoIBYAAEVAUAKsEgULAVMpSBZMsYCyVAVYEUWBAUogiUQKiyIogVYAEpIKACUEsKCAACwqUCkqIoIqgIikKKACFlUCoqwhKswsVRKEgUAAAKQsBQAAQKSgFCFAlELCUBaEiUBaEgUWRGQiy0CKkllpKgAKsCpZYssWCoLAAWChVESwAqFoARSEoCgUBKAQAAAAAFsCwAFgAWEoIsUAJAAFLUyhBIsVQtCQRFgFJYBKFJYWKkqFlSwAIBKEFqxAWShFLipEsAAhYAoAACwFgqUiwUhLKBaIEspCpYWALVIClkTEAsBQQAAsBQALQilRLCUtRYAAFEsoikoJZABVRSiBSSkCVYLKIAlAAAAAQFAFgKIALUosqARYALBUsBSwtACELUFCABAWggAKAAEBQCwlQAAoqQCwtQUCWRQBSyFQWEiWFhQRYKACBQQgoAAWRRBACAFtgARYBAUCBAi1LYEoIVUBYQBYKFKAkVFlASwsAKsWYgKgKLBZQJRChAFlqWVSJKlKhQsCAoBlABLEC1KBKAqWCoiwAEoJLUJUtAACRUqiWWWFlCWFSgBQlkWWFuKskAAhUsLBUtFEBULUFlgCLC2KkqFAAACxZFRVQVKgAAKCAAALAsLUsJVRYgCwACAkVBUpFEWVZRAq40LAABLIBJRYLFiAUKBEAAACUCFqUBAAgKBQKhLLIoAUEAELDUgKiaoiiwAqILQQAAoEigAAEKlLClAgsJRaAiyRYoAQqIqWgAEsUEqBZYShFtQSwFlEsKAIWUCiACpQlAEollKgoAAUEAALAABZSKIQqCxFoRYFxpWNKlUIBKKAABQRYLBbBAhcaWFqWQBFWERYUAsCWLSRRQBEUEWAWJSxLAAUAlgCAEpFRLCgFWAAAAoQCKURFlAUAlKgmNLFJRYllgKpKACAChKqUACUEMmNAgKXGlgLEABVQtgghYAQsFgBQKEgAUAShKABCy1KFCghLEqFS1KgBUoAQLBQVAqFEBQAAAAkWFEAAAAACwVKVC0ICiyQVYFSgAKECWVKqUkJFIBQShQIJFFokVApUKgi2EBYIAWESgFoEokKQEVCVQi0IlAAKBYASVLQCwAFhFElgQUsKUssoJKUAlkBQCgABLBQQolgsRUtAoIAFBBACkqAACFECFAlAUgCkWFRFAAoWFWBUQFKEAAAAAAsFSliksRUUEqy0giwEKIVKAgAAqxSIAFQVKVEVKBQACwtQVELAAVUIlQJQBFhQspEURYgBZaCAASgAhKFBAAUQlhAACURSgRZSypFAAKEFiVKAoWAEFiWCrKZVLQQKBQEUQBYLKAAJRKgKQBYVBSCwVKAEBBSLUqAACRUtEFQWBUAAAAQKAUUAAAAsAAAhUoBFACygAktFAgAhYEEBSyrLKgAAAAKBKIsFSlQVKEpLKAABAhZSrFJYgAABAAsSpQAIVFUkVLZKAALFkWWUlQlUQUEWSFloAIBFQFoAIAAKJZKsqBSUQRYCVpERkAWAAqhYVIogKgWVYEpCywVFBACJalsAACBKACUsKiwIWKqCoAUECCFqWwAACpQCgAAiwqIqKqUAElsVCKUAKgoECoKgqACAAAAAWAAIJaAWCwFgWUqUAAAAqCwLCAosgKASwAAAAElqVCWkoASggqUIKhagBCUAihAFIAAAIEqoKlAgKCBaEWokqAlApioJVsuQCxbSFsqSoVClCBUAIAAlCAsApLAEVKEUQZQAhAoBCkKgooAABAALFUkWKoAFgWCpRCAAAAAFgqKqUCAoCyVQAQlIQsUgALAAWCoKlIoAIKgWCgtxFsoigCwAAApKgLFkiwAoUlICxZFi1AlQALEoVYIEoAAACVZAABAUAEBQAEWQAsFFBCwthVhAIFEFhUCUZVC1LRRCgi5EsVAIAJQQqIssoCKAAABCkKgqCxYgBaELAKIsgBZagAABSUgKoBCpQlgKAhYEFgoAqoAAFSKSrKIsWoSwFgSwAILFIolAAAAAAAABZRKhZQAqopQEpIoiwoEoggSqSCwqW0hFgKJQiwAFIsgAWksBZYEKqAiwAAAAABSxCyEolApYqpKkKqCCqiwSoiqxFzYS5CoIooACgCghAAAsCwAIACgAAQAFABCKKQAAAAAAAFBiDIAFCAAsAAFBAFAAKlAIAAAAUIAACAAAAAAAAAAAAAAoFACgAAAAoAJQAQAAAECgQLAUIBQAAAAAlIQqgAgKCAClAIUWBALAoAUEAooIgLSsRAJ//EADEQAAICAgEBBgcBAQACAgMAAAECAAMREgQTEBQgITAzIiMxMkBQcGBBJEI0Q6CwwP/aAAgBAQABBQL0seHEK+ufrB+rbwr9fTPa8HY3YI3YI3YPCewRu0wdhi+Bvr4l+n5C9tn3ftU+vgEX1D9GOT+Lj1ces47B+rPgMX6j1n7BG7BG7BH7B4TP+rG7BDBP+H6r4G+viX6fkL2GP937VIIe0Qepe2F/Cx6mZmZmZn12+gg/VnwGD6j1D2N9IsbsWN2LG7F8Ldgjdpg7Ok8FbwKZgzBjfd2jtX6fkDsP0P1/aiCHsEX6+pe2T+TmZm0zM/iGf9/VnsP1EPYn09MwQ/SLD2LD2LDDBM9pPYB2GDsaLDD4MS7yu7R2j6fkDsf6ftR4RF9RjgMcn0szPZmZmZnw5mZmZ9bEx2Y8GJjtxGHnB+qPYYIexPUPaYOxoOxh2AwjszMzPZiCMewdohln39uZf73aO0fkf97LPp+1SDwj1L2wvj8/UzM+lgzUzQzSaCaiYEwPW8pgTy7PKeU8pgTAmBMCYEwJqJqs1WarNFmizRZos0WdMTpidNZ0xOkJ0xOkJ0hOlOlOjOjOjOiZ0TOiZ0DOg06DToNOg87vZO72Tu1kPFtg4ts7tbO7XRaLBOi86TzpPOm86bzpvOm86bzpvNHmjw1vOk86bxqXnRtgreNVZOjbBXZDWxnStgrsmjzpNDS86Nk6NkFLzpPOnZOlbOjZOi8NVk6Nk6Vk6NmbEY2dN502mjTRpZVYbOhbOhbOhbOhZOjZOjZBW00aaNNGmhmrTQzUzUzVpq00aaGatNTNDNTNTNDNDNDNTNGmjQVtNTNTLK2M6Fk6Fk6Fk7vZO72Tu9k7vZO72Tu7zu9k7vZO7WTuzzuzzuzzuzzuzzuzzuzTuzTuzTuxndjO6md2ndp3ad2ndp3ad2E7sJ3ZZ3ZZ3ZZ3ZZ3dZ3dJ3dJ3eud3SdBJ0K50K50a50a50a50a50q50knSrnSrnTrmiTVZgTVZgTy9XAM1E1WYWarMCarNFnTSdKudCqd2rndUndBO6GHjPDRYIVI9Uf291DCysofTH9w5I+H0x/cLhlD6Qg/uD/Qjz9EQf3Axx5+isHrZmZmZ/sFo8/REHaZtNjMmZMyZmecyZkzznnPOec855zznnPOecyZkzznnMmZMyZkzYzYzYzYzYzYzabTebTebzrQWzabTabTebzebTabTabTabTaZm02E2m02m03m83E3E3E3E3E3E3E3E2E3E3E3E3E3E2E2E2E2E2E2E2E2E2E2E2E2EyJkTMzMzMyJsJkTYTYTIm0yJsJsJuJuJuJuJuJuJuJuJuJuJsJtNhNxNxNxNxNxNxNxNxNxNxNxNxNxNxNxNxNxNxNxNxNxNxNxNxNxNxNxNxNxN5tC8V222m03m4m4m4m4m83m83m82E2mwmwm4mwm4m03E3m02m02m02m02m02m03m8NhnVM2m02m02m02M2MyZsZmZMyZmZMyZkzJmTMmZMyZmZMyZkzJmTMmZMzMmZMzMmZMyZsZtNptNptB4LR6Q8DQLMTE1ms1mJiaw+UGDNZrMTWazWYmJrMTE1mJrNZiWswYFxMGbjbExGYLFIaXsytX8SWF1YWjVcMMRmChbQTiWBsdR5u8qbaYmJiYmJiYmJiYmJiYmJiYmJiYmsxMTWazExMTWFJ04FmsxMTExNZiYmJiYmJiYmJiYmJiYmJiYmJiYmJiYmJiYmJiFYFxMTExMTExMTExMTExMTExMTWYmJiYmJiYmJiYmJiYmJiYmJiYms6fniYmJiYmJiYmJiYmJiYmJiYmJiYmJiYmJiYmJiYmJiYmJiazWazWazWazWazWazWazWazWazWazWazWazWazWazWazWazWazWazWazWazWazWazExMRfBb9PRHie05BtiZx4b/ALOMfi8bOFneZW+6+LkpleMfijH4+8+fUYPY2zVWaG2wWSm4Itj7kymzUl3Ys+64M49hLTEKgis62bJPLtxMTExMTExMTExNZiYmJiYmJrNZiYmJrNZrNZrNZrNZrNZrNZrNZrNZrNZqJrNZrNZiazE1E1ms1ms1ms1ms1ms1ms1moms1ms1ms1ms1msxMTExMTExMTEwJiYmJiYmBMTAmBMTExMTExMTExMTExMTExMTExMTExMTEwJiYmJiYmJiYmP3Q+va/09AeI/THmBMiXHCUWwODGOB3gyxw1db62BgezYZ7MiWWYDhpxwCmRHsCRuSIOUc2XgKvIbP1Fl844+ZL6yGSp2i0OSaEMHGXLcWLxjk8ZDBx0ndfPAUL0nNxVVp8rcjsP0J88EDjElP5ufr2n0R4j9C3mloaXghjaSkDkFr8rKMZsTVlD4rYsoqAbs5LHNLnbk/bxj53qQXYtCCO2tQ0ruGbqROL9/YWVY18pu2MZtQtpdaLizW2Mtq2o0/wCZNdh0YXImOq2OKx2nJGLKqeoFUKP5ufVEHitXVltUAYtQ8Y57v8PQslVGIalwUZGsTqJUWRo7vkfSMitBWqy1SyUVlY30Ay3IrBRE2IoXU8Y5Tj4N5xXxR8XZyh5q2BWdHe4R2ecUQZR7CWbznX+W7FyC2vnBjXij4iwE5DhzxQQv84MHqCDxOgcDjpAMeLHZgeiwytdGpt9vj+528j7OMQJusW/Z7U3XoWZ6FjE8cY6IwqBQ1AZmpRoalKjjCd2WCtcdCuPQuKq9JZSXZKFX+df8HqD8y32+MPi7WUMO7GDjmJWq/wBMHqD8wjIRAnaWAnWSAg+qGB8G6wEH+eD6+mPG1oWKwYfj3k9RaVdK1sV+wkD0SMjLVuDkR1tY92mXqcHI/nX/AH0hB4rbNIW3atdV8ROAloc+EsBGuQTvKRb1Y+LkpOM+GnJJ3pOauQPl1XjVLVaC1DLbihXkZckCZBhdRAQZyUw/GbK9vLHnxT8r+dH0xB4ScS6zYyizYeL6z7LAciEgQEGWu+3Rcy2spKKg4WpV7SwEBB7SAQcow8xyfdW5gBdtHXVivyBMCysRnLt8yslixS/WW4sp43lZ28ucX2/50YPSWDw32eZHkleahmtlYMGOo6hLu+o6hZlIAnIA2osGotUyyveKuo7OXOL9syDCcBnLHj2alXVo7aq1zGebEfTkj5g4zR6FaPx8xF1RuMCaqtJ01zouSoMNCS2jIoVlgAEaxVgPZy/rxmPU/nR+i+kIPAfIE5b722QC7QyizBt1jhYhUo+k2MFzAEkxRlkoCwkCDB7eVOL9rDIDNWzcjZQMmUtiw4sQ8ciVjNksuAeu1X7Gu1t9Lke7R7Mtr3Wk62fzsekvhYZHQfPQ8u7zu0es1xSLJ3dYalI7sJ3dcHjtK6CCFbaW17xF1HZdXuKk0E5BBcVHoj6spDKpeVpot76rxk843m6VBOzkjFldy6dRJsMddIjhxZfqV5PmDkdnK9zjez2WjWwHI/y//f8ARf8AfRHpMoYLx8HxYHoopZ8eQ4xyUBgAHZY27pqFscKo+tfUl92sw1iVBWZgVagNLlCvU+tFK7vya5XeUU2sTXe23K+7je12cn3Kfa/nX/fRH6Aw8adB41NuKcdRnVZg2OlLI3TcPbSHnQtndxhawoAA7Oms0WWVsrFOolaaCzbVeSYc22D6fzo+iIP0jcc5Wg5VFX1CQIeQgisGBRTAoH88b0Vg9E2qD+K7hAeQ8pt3jMBFsDeoWC9rMbLL6gi8T+fGD0Fg9Fvc8NluhVtl8LXqsNztKg4HhzOSfipRTVqtSs2xryXaxViuGjOqzrriu7dmYKHvxByZ3lZ3lMI4ccrOVseUtYYtADcv7OJ/Px6C+N7Qs+ZZK1Ky0fGhyng5SzjP2Hyi27GywIPm2R69ZQvy/FiciuUPhrz8EqcLGYseP5S3bfbKKSjW2h1FfyAIRg9BtVLpHNhlAPU7OSMpx30III/no+vZjwjxWXRKiYBjsvHxUN8tbAxe0IUtVpsIy7L51urBhMAQqDMS6U+3G5CgtYFHefNWDDsYrP8Ati7Dptk8YRuN5LS+TWpi1qsepGgoQdgoUEopMwJqIFA7SMhgUbjfZ/Pf++MeE/R1ZTXeMdRZc/xWAmuo4lZxZyPcHkPild3lZktTbpPqLt5VtrLfrR7b2s0Vdmtb4oLGWK9mZbkOvm3jttYWI26+lyk8uM3xfz0+MfUeIqGh4yzu0WgCEeRpcMlJzbVuBxmgrAUUKCVBnQXI8F0o+1x8fFWWe5x1DSzj+SkoyO7myoPPoezvCxHVu3InKScZ8HsaxVlnIicg5Nigd5GQcjsZdlU6t/PTB25mZmIckfj2glaQRDnatdUto2aqvQTUGYx2P90sv89CRxzixuTOvmvY5bdqfNTttVXcVNhy4oYxuNhfiEE6iIitsvZYMWV+3/PDBMzaFptNpx/qPydR6CDLt9qnButyK6cV4hRgTW6xRY8uqyOOGEPHTPQTtKgxuLBx3irqveSD3kTBsceQ/wBxada67iD615YCp9x+zE3zNu3EoGAP0FhxXQM2R6FYpSi9gqUHHqlFM6CRUC/4IsBFsVvRJAB5LZH0/V8j2yMt61n2cc/M/Zj6zECwVwViKMQfoOQfl0MAxvSdVmiIf8dfYUNbbp2E4D3nIqd5VVp43BK9O6Gq1pdXoaTmr9DsD6VrbMv3etZ7dX/yP2f/AEVTQTIE3m0X6foHQOO7CClBMD/BM4SdZJusz6XKHy+Ifg7bhi0DA9LkrlOKfg/QEZBrsSV3wEHxs2qnMI1inI9DPZkdmwlrDph8WU3bn9kYXm0LTaA5I/03KlCBm6Ai1an0bRtXxT8fa/nyJbZoO8jVLLHbxuMpxjh/BbnTa0TqWzq2TrvByWg5AgsQzI/GspDTNlZS4NMjw3sM0DZrx8VBzXddpOs8pu2j3qsS8MbLAg7zBapllhZ/Naqcmzk2YmTCraUpu6oq/s2haZ7ah8Y/Z3EivjMep+nNlgK8gGBgfQ5DZfjLhPBn0E+Dkdtvw3zlZlCByAB2EgTYYN6CI4eF1WAg9g+C/wAOBMCaiaLOksPHENDTSwTNonVsE7w07xO8CddZ1lnWWdZZ1lnWWdYTqrOos6qzrLOsJ1hOuJ151jFtjWIY2MixhKX3TsJwPiMxcka0tOMZbk2oiKthQCtN3FaLOQcuq1ikZMUYs5NnlxV832ay9QhKs3H4yFT+zPh44+IfsL2YNXf5V2B5aM10nFn6fAjUqYaXWdWxYOSILFPhY5KjUdiXbPb7VDEOzBQtqtPpO8jO9ljC162dnjk79djAfKcofMr9u8Zq4h+ZyCVr4rEtyX+Zd5cYfTjtrCxJ4v0V1ackYsRtk9TAmqzprOis7us7vO7zu5ndzO7zu87uJ3edAzu87uJ3dZ3cToLGpnd53aPSFESgtFUKOy98CgbWSykNKjpZZVk6WxeOxi1Ks6cspUBai8SpK5ZSGndvNVCjC55P31e1+548H7C5QyTj40jrqynK+KxtV7w2a3Dj0ciZEyJus6iTqJOok6yQ8gTvM7wZ13nWtnXsnWsnXed5ad5neZ3md5E7ws7wsNyQmszTMrsYN2MdVGZvaZV1My4FLQd60Pnyz8yM2eNOIPPlD46fOrlL5U46fZyvdQYQjIq+G21dkrJrI+Ozle1Sm56Xy2Qqeqi18YHbkrlOK3l+idzY1VOvhYl2rTRey+o7V508F6Ox4zYmM+C6t9mLZptGuf3NH2D9hbZFrLitijA5HJWcd/hj2BY3I8l5BzZZqlbhxyvbRN5U+j9tjkTrPOtZOpbNrZrcZ07p0rZ0bJ3dp3ad2nd50RBWs0E85l4u0wJqJqJqs6azpLOmkNdUK0zFM+RCaZn46ajnst86+N7mOzYS+vZeNZqV8xyx5oux83M4h8+XON7PJHyuMfg7OR53dhoy8wJx/e5Hs8X3IVBnRSAARxsvHPzP0NwLJRVr4tFz2nxHzCnHYfAyK0bjzNiReRBYp/b1D4f19tmgzKlwl1WZRZiclvISm3Bt+/pvl6SAuTTSSH5AzXxlIbkJg8dsp24EwJgTH4rgtO7md2E7us7ssHHSCtR4VzVZ11htYymsgyyjJqo1jKGHd3Eqq0ndZTToeUPKgYqsGa+MfPsX47/Dx/ecZTjgi3tY6g3GUJ8X6i5ii1Wbj0XGGTzTxYjUqYaDM2pF5EDg9osVj+vH1UeXaf1bNqCTYUGWyJssvXBclpj4Z5kgeUxAijtZQwrrCfp2QNOikCgTyHY1x38Xk3aFC9jfaNwxa4xRaH7Up1eYHhwP1XJ9rifd4Q4J7baAxUYWy4l0yU8O65mI1SmGpxB9DKzo/pq4b9Igyw/X8lvPPkqWTo2Tu7xq7BAROm86TZRAF/YMwUNY1jL8K0fFb4bfb4rHbw4Ex6HId1NNhY/rOR7PF9zwMdVpyXJAnXWA5jDItfStBluwnEDq3az/ABr9vhvXFlLbVzIhsUGy3WKwaPYEA5AgYGdRc8h/OhQEP06zZqs27CQJ9fzqPvH6961eCpBAPBfWBKjrWlysf2BOJZYbGpqCSzyr43u+G32+J7nrOgcfFU6OHH6vkezxvd8F4YrQhEts2Y/UOa6KCxfktl0o2FlnTTjuzTlOd6Ww05D6pSm7+K9crxj5clmAWxgdOoGDCI5WXDqLFcqXQkYZyHdJ13M6bmI5rPeTGZrJWuqfm8cQeD/v7Bqw0sXFFXufryQA9jWmqoJ2cj2eJ93hv9ni+569te4rc1uDn9XyPZ43u+I0KWNKtLKt5XX0w9JNkvpLGlNEvqLTBEoz07X3aivRPEwyEJSy1NgvH+EbVnCup48VAq2UgzoNFXCqirNRNRMQoDOmsAA/P448h+2v9qn3P1xIAZmuausIOzk+zxPFYNq+N5WeAMD6l9WZTZr+rv8Aa4/u+EXIW9GyjZgMKnHAb0MDtatWgGB+qpHw/tuR7VHu/rrXNjVVhB28r2uJ9vgdgq1Wh5jwONlRjW/qX16nj2bDtVg36awZrp+/wX2aIpwab9j6RIAru3P4Bci79Kn2/tuR7VHu/prTivj2Fj4kpVD4OX7fF9vwXDNXHbFvh5SYPHfZPTZQwKmuwfTsVAvZ9JXaH/SJ5eA+Usfd8GUVYPpcmwY4o/B5K4eo5r/RqPMft7/bp9z9MwytLYsyPT5f28X2u02oIHV4QUcHIZws+va4DrW3Ts9Hk2FZxnLdmB4v+EGuxG3XtLhYLFPZsBAwP5ZGCPMdnKfA46bMwCqbGMFjA95XF1uFqs+WrBo16hn5Pn3gaVX5hIKfWUoyfg8kfBxj8H6Or7x4D+zv9qn3P0vJYh+MxZPoaVcl+QdqbNwXUSzkBZXeGl1ukos28HM+3i+12cmwqEqL10VPvyknGfK8kfBx3yOq+3V3qFjA3DaVWg1gg+hzB5cPsexUi3I0ttCCs2uXcIDyol6kXKLFqt0neRGuOtdgcXbByMSu8iDLtl6jXYHH5NnvVe32W09SIoQRuMDLa9ClZc3+TZOPiqpALSqhib68N02wC2vHQlvXsfQV27y0Zr4v2k49PYZ/HoHxDwH9nyPao939LyxOL9Lxi1D/AOLOP8KDaxlqYtZWa3AF1b1NXKbtu3l/Zxfb7OWJxD8uHWxVJrsIDrWdLOTXq1ZxEXYrnFY+JVCjx8ofL4pw0vObSAAVZ0rtNcIe6asJqxlNmrXV4NGhBQFfOqwqtqnjtE45zYpRxi6tCa3/ACb/AHqPb8VlGzqq1rawd6KcRkDBUVR2MoYV1BPwWUMGBrdXDqNKVJa5x5D0WOLB9PxuOIP2/J+zj+525EzCwnVSddZ3hZ3hZ3kTvE7zO8zvE7wJ3hZ3hJ1knVSbrNhMj17E3WqvSX1MzqmKWqdYBYwpp0MdA4A6aG8ylG37OX7fE9vsuTeup+kW5A144Muq2lG4JqTLBWjcaU0lG1EurINTFlM3sRjyfKiwuO1hsCj1sOT5VVGyDjeYAE1HZgTAlnH81T4FoVWj1B4oCjsKgwAAGtSfyeT9/H+nhR9jLE3SuhU/D6yZDA+F0DDSxIK7HKIEHiFx6r2BBU+4lvuL9v41H2jwNtB9P1uwnUWdZJ3hY9m0Vis3tM+cZ07ZXWezENKGd3WdBJWAW6SzprOms6azppOkk6KToJO7JO7TuxnQsnTtmLp1XEpLEfgYHh1EwO3l+3xPs7TWrTopAMdvIJAr+KF1HgLqsSxWmAZfWOnxT8XgwDOkkAA/A5FjKRe4ivslV27+EkCdauG9Yjbr4z4+R7nG+n5b/crMsrfceHqqG8LOqzcYdvjRHtKgKIfN/wAeofD+syJusNyw8gTrtN7TNbjOi87vO7rOkghqUhUAmPRPwX+qYPisAx+Vyvb4n2eheM1cY/HyQRZS21bWKssu+DzJrQUr3lsoepWnwW+ryXIPHcsnj5f04yggDArOtvbmAiMAw7ukvrCTin5frcn7uP8Aln6Y+GnDLWSlnhvGtlbbLN1llmofkeSVM50tc2U6LVaESpy8P0r+K38YfVf0+ROosN6Q8mddzM2mdKwzu8HHWCpBNRMDw3sd1+30uQsofZfUt9un3fyuV7XE+kP0A8TDK8X7+VjFLsDeCLAPkD62JYwxgm8Bb0OKLNl9Tkj4uMfj8fL+ziGdUqWOXptYxbFYNaNC7vEsZTu2am2TkLmvinz9bk/bT935Rlf3VnSwZsu8N65XjNLTrWiF4xYSsrv5YS5WNxZioGwAAtOK+MPj/Gr83H6HInUWG5IeROu5mbjOlYYOOZ3dZ0lmoHqXe6Pt9Kz7eOcWeo4yiHDflcn2eJ6SHpW9XdhSVt5f28YZqNTBh9CitM0oevWYG0cHI9Pkj4aPf8di7qhNbsa2F9WoowyMrIa1+RK6jqyMsruRU+5V+Cz1uT7VHufl3DRycmlAqWcjB6z6U24OfKu7eEZgOrllsRCa3uUMs3dhTVpMCXJh6m2Tk/Zxh8P41I+YPxciZHZkTZZus6qTrpO8id4M61hmbjOnaZ3cwcdYKkE1Ex+Df7i/Z6R8wMq/quMOhyn5N3tcT7/RatWgUDs5ClkoQonaaUMPGSd2MRdV9O72k930Lad4nH82AYV0qk5PnZWmKm47bIuqMoaDjrlmChgGdfp6vI9rj+7+Xcmyyo/JT4XsfctWUlR2rZTW+d6YDNOovzFldRcsDWwvU9lqbClHB5P1qGK/xSuJxx5j8W58uBYw1umls6Nk7u87tBx1nRSdNJqPyOSPjq86/TvGGrOa/UupY2VjVPyWGV4vu/oH80H3+oVBPhZQ009exdloVg/5lqavQMVPSrFKlSOgcABRcmwpQqtlAaDjHKqFBUGAASxNhgqUOV7L/OweQ/FIlQg7MzMB/Bs9zj+3+g5P3U+16fJE4/teEsAFcN+io8rvzMg+A/Qfd/gCit47rCkrfceFqlaAYHZgZ/HT6dhHYox+Db7lPtfoL0ZmQYX0+V9ON7Xg5D4XzNPHPze2mw9X81fK/wDHLATqL22DKVOVfwD6/lkzrM7V75/SWXBD3hYrbDssXZKW0f8AQCDwj8F/N6fa/Ie0IR5jxbL6vJ+3je14OX9U9qn3e2z4Lu0mC8bfkH3/AMaywIBtYXoKii3z7LV1sU7L2jjrtOskHn+TyTirijy8fWZbAQfzeV904p8u29NXpfZWYKOuk2HhZ1WLarH8YQeA/hWKVfjn5f5HJ++l8r4rxiyl9kmQPS5P2cb7PByGBMr+/kuynqN0UubblD5ldgKm1BDaMWX7LxRL2dbLbsrxc6/i2e9+La+irW9rZKWDzFg0sU5WcpZxjmrsZgoV1aeUvp8qLsFrnJGcS1tEpt3b8PlfZxft8BOArBuy6vYVWaHIh+JQ71m20s1t2hru2OfxuSvmZTbpGsCqr2WPZYEBItSptH5OZWocHIlV2I9oUDkwMDLMtatSqbH0QWtmtth+GIPxrK95VXoPyLjtZS2rxmVYGyDcMzIl6bJQ+rs2oewua11T0OQM1cU+G/3U+7HnyELQHp1KpZuUPhRR04gJPITR+L9vK+6Vrqn4t3vH8ewfNq9rk+5T7UuXavin41sKW23MjN82rYiCxgVIdLU1cy0t0675yPOnje9+HyMdNSwlaWZl12pLsSG6tYLVP3lpXcHl9cNjaK7LDi5UGbOQp6lbYe6ws1Ng0N7ZH0/CsXZZZrGya+O6gXP1HQlGuWVkWVlWradFtfOdEMnx1ljk13iXXAjBlVoAe+VPv+EIP19toABwbWDGm3IdyxTBrKvWWvYrsYt+QQZS2wtChuPnX0HGUobWzwXVsbEobPTbqQjMAAhGwSsIG4wldYSMgaKgUcg4r46Zf8a/3vx7/vo9rkn5lzsgFziKdl9uzlL8SjrU1uayBmMhWcZhpyAGVpX7V1WJ1DpR7/4bKGFtWprvxO8LFqd7DUpXzra7DJWQImdiMh1wwBMoRlegfNNYYtxxDxvJaWndhB5D8M1OSnGhQFTxjKqAkso2c15Qb1kVvYRSg7DQpIGAVBnSWHjrFoUQqDDQJ3cRVCj8FYPwLDqtRZnl7Hak5T8padiOOk6KYsQ1l33FCMGsQuRUup4yxKgsZFYJUEhRTC61zrpEsD+hYNbfwOSctx1xX+NyPd/GJAlzKXp8qh8yzlYJhfo1YJVMWJVWED0q8roVDZWHBqdZQjR6X2UarL6tTxve/FNCRaVU9l1ewBn0lAXWPUGIUCH6cdG2/QYH56wfgck/DxvpL/do9vwFgIrhpsPx2UMBUyPexVKldp9BZdmV5Ck4HXSZEZFaW04HGPxePkj46jmv12qdnHkPxrvd/GdA4agzp24qr1hrVo9DArRYx0GtdOjejd7fGHzfyums5CYPGPn/AIQfg8n6cb7Zb7ieVZv89vLriNeBMmxtRUu2SpBBbB/G5A+Xxj5uzWSj3Gu1e6zY+WN2lFhJPmFzXZ4+V9Kfa/T/AHW/oHcIK7Nx4rvb4vuflMyrC9biutV/wo/B5A+DjHzn3NfkAHU22ZRfNrQrCs4ciXoFnGzk+UH4zjK1to6hYnv8lRqFJlYBeykgjcSryXkJOO+V8XKlJ+V+no87f0HJGRxfp4r/AG+N9/5RzdY1DLEuZYrBh/gx+CRkYKO92RTX5sVEsIZlqHTPHlVWsFKgnOOm7lECj8jkJ8SLbEQCcjJlKYRaWFh+jLaZrbNLWFaOr+Lkj4ON7f6Z/s43u/oLR8HGOH8VgylCsH/JtOKuMPM3/MtpyKnKN/gx4D6zIGgpXsdA8WpV/Y8j2uN9n6a72uL7n6BhkL8Nv6FhsETSV+5OQmDWcp/gh4D+G9oWD9fyM4q+FNhN1m6zqJOok2H6HkezxPu/QZBl332PolBLJ+hTyeEZ/wAvY2qpf2t52/p2sCzvAneJ3id5E7yJ3idSwzW0zpPOgZ3ed2E7sI3HxBWxm1qSpy6/kciwrKbN07bremFYXLTXof0D7VONHjE3WAYH6FvJ/wDMXfYn39iedvhN6iLYG/LZtRVcH8JRWliqqUMpPTWdNJ00mgmPHyfb4kIBgGPB3j4vwmsVZ1xi6wWDinz7eSM1cc4t/GPkDyvOm/du2x9F7zAcjssQOPiWcevVf0XIHzazlP8AED17LCx/71QE7z51n5jcjzN7GU2MSbiLLm+XWm4yyMDkfkPaEmeqgJRgcjwHGPtZHDL6XK+zi/Z2NYq9vIr1PHs8eR6JIEs5E+JyK2QCr5VBxb2sNgfIg5H4p8xOJ7hg7CMiwatxmzX2mtSf0fJ9yg5q/wAsRkLUALavJPjUqQVBLdA5WhVgAEeoMba8rTXoGqVj+Qx1Wr47AMS9cWUe3bcUs2+HrvsHyll5MxmAsJXc2fR5R+KjypsuLFLWU1fMsuuxK7ipusHT8waXLhr9bNhq1rOarW2uswSrYrvKwEEeKywua6gYDWsOrCofDqwmc+C9fPjnNXYSB25HabFHqt5LOIPDyh8XEPx+K64qTeWFbWbehkQ2pOuk7wk66TrpOok3WZHp5Ez2coTi/b/memNioMCKP0DDZfirZbwZdXuK10XkrOP7dleprDmuuktE4+psXV6qxj0eT7otAp1aClyAHBNNkap1FFgl1WZSmi8ivJrrbp6OporYNbTuyoAt1Mosw3hIyDU8FVkHGMcNW1L7Jd8LU2DpCxYbqxEtV5emRxnCyy8LKbd5ygduO+y8l3D8c/N7O7jb1LPbnFHy+zI7OV9lbaOeSZ3lpXaHlt5DdZ5W/UVskga1ogQW3aHvRnep3oTvIneZ3kw3OZixoOO87sZ3Wd1ndjO7vOhZNbROpaJ17J3h53l51rZ1rp1rp1Lp84zRzOiZ0nmtscWYps0KOHH+GP4Gw/AdwkR9vxGrV4tAU9jAMAMeFkVj6VlQeDjeYUATA7CAR3Y7eiKUDeLy7eQwZ0t0W19ioZiciY+GttSzfCfq3G8q3Nb3uGr4n1sQOPNWU7LLLNBVdufTb7ZR7Mut1hdjFvZYHLTERdmuqXWknqP9+ny6Diy5Pmv9ketXnd653ZZ3VZ3UTuywUViBFHpYE1E0WaLNRNRNRMCY8JGQOMJWmg/wx9e58IHIKHZfQ6i+HrLmw5KjC/qLG1FBJb8VxsprtWb3CZuaJx501llY6dJxZbQHI4ssrCMg3awAOn2WUhoOOYiBFlhzZWMVwgGBQPVH0QhKuozy5WWIASfLs/8AVX1hZ7JVTrLEKtOPUdioMFYz/trPsJJmDKH8mvJiXmbDHXWbDBvAI5AzbaScyiyO2oLsTVcc3phm9z9Q9gSfFayKFEHI8/xcCYHgAIfsZQwVAsKKT4LFcrVx/P12+0TW15TXoLK9weO8r40t45zXR8HQrgVR2FQYK1H+6cZRQWPS+X5iVEBmy7sWArqDq2ydmDEqZgvHEIKPcd6pWQCp6iaHrfp7LNYqtaQoA3dWByLPKwfTxZmR6mR4tVz+Xov8HFaqY9Kse7CJWFl1RY1JorVhoKEmon0nVXbkrOP5q6/EtLmIuo/T2PqEQ2EDAl64fjt8v7mut0I5DCG5QF5CklgA92FHI+FrGaUsdlYN6V1+Js2an3UnASxX/i4/Jb7QdWtt3FC4HR+P9TaSXpTVOzkJkBispHnc27T/AK1ZC/GybfDWnULKVIUyhCD6HIs1FdZsNnH+BGNbXNmhG1ZOSCfATibr/Dz+QloY9jVq0FKD9ZgeHu6QKAOmsbjHKVBRgTAh46GIgSFQZgelyPd4w+VOTXA3ypYmjC35BtczjWEtORYeoQVlFm6ekM/wM+vyGIIeyVMxHi+1/wDEclPPjWYE5DAVqPKO5sZ1I404qHbvA6jHMurzVxm1s/hp9fkH4+OPh8d3uVHKeMuogdW/fkAh6SsF1izFlptQJRAqQgEWcciJY1cqQu/dWzDx2D/xxjs1BOOw2KIrBo9gWdRnNgdIW2PGPkTiG9YOT5rYrSxyW6rRHaeZNaNnI/wGomJyBmmU+12aqYAB/Hz9JugBuYk2NFRnJV6y77yhgrXWBp0j0qm1e5jslaFQMkq6H/prZZ8TRqmEW1hCxd/3xYCBgewx6AYowvomD08+NjiDBnIZlNbbV+jY+ipyW2lrWI9b7p/tXpBndzErCw8cEgYGMzkJiCLSomJ3fzsp2nRsldWsMQZYzA7CimBAP311/mFZ5Qjq3rWWiuI26+A2oPByDirikxnCCy8q2cL3oZByJeMpxj58oeXGPyvRZQ0tXR1Oy8hc18Vvi/0w/FsXZZWcp4W+2lDv/gWOFX4mVQolloSdezNV28NqA9euWXhC/JlDs4mRAc+Dl/fxfZ7C21jfS8ANV7fZyT8vifXlfY/tuf8AxMTjtmuWt8KFgW2aqqwVSzkHK8jyW5Gl2Stdvy2vYmu8Yuv0am4uZylnGbKkZC/BZ/pB+RbUdqlKr/hjYA0t9ur78w2IJyB8eydKj3ict9ISZRWhD2LWL7M1AuYutSJarm3kYNN285c4h+CE4FH1tYh9WY9cAxOQxd2Luh1bk+2R8lj/AOLmUPo/eB1FJN3/ANjiMNofr/1V8q/Zp920YtSpBOSvzOOVFa2v1L2JsrbRlOReMWocp/pD/n8djDZTU4OtpgpMFfy+6yulUg47ZvQ7umorrZ5yE1T/AJUcEktASrOMNsVl75WuwpFOVs9vjnztPzL/ALPoOK5MRTl1NdgG9lybqaT0TW/QqozO7pLKTtVVg9AbRK8S2oqf+FMGlfhCAG2neLU4LqGHdyJXVhuRWdlUlkXUcn3ava/p3LHwcQ+ZAMuoOaqPJOOFZ6UeWUB4vF87B8c4/szzpfVHYqCBUgioqzAhUGBQPTxOmvpaiWW6Randv6fcu1fHRlbsdtVrtD+Bq1ed3rgAURlDBVC/2dnVYeUJXZvORYynjuWTxXe1xfc7XzpRcS/9oJwLORmBGeLRiKoWcr7+J9nivIFVDhXW1GOR21eT/wBoZdg9BEruKQEETk/XifQsBFsUzIll2pflZFAZpeuaqEDsUWpdmzU21d1528xKbd/4Mf8AQZO3bbTKrCj23FWsdnNQcm/Jb6RWKy8ZSAYDjKUVuj2LsmPProotB2+GxaG1t/gp/wBFcXCjkGPyMimolsCckALxPutq2nQcyylllaHopxsN4GrVotSLGQMDxsFKMG64o6Nuv9mNamCtR22pulVWnr8pfh4rf2Y2IJ3iuLYjeFuQwYeY9RhstLa2f2O67Q7WOT5GqvqR6ikou8+2z76vb7bLlQqwZd1hPkL6zH5GCeT5LyfOZxLMb1vsv9itoDlKwi3e7xR8sgEONWrbdDYg7Lxi7jHNR5Ch7CRXVe2/J9zqY4+ZW2a711sUbNb7iUMw+k5Fh2FTGtHKEHI/gI/z2RntY5ajyqnJ+8WFKJxWJHLHxcQy0YtqO9RBU8hg74+XXWXNgw9+TOMvxchcPxnyt7E2N9a8Gu5NG4/tf1/Az2fTsGFV71WfFa9y6gDJ6gRXzZRxgwfk+7xfb5NfxQU/IAsrKVM5wMYjqHBrdG0dzZR5V2GuXOHaj2v7E6XZ6Nk6Npi8aKoWMgcd1EHGWY7CoMAA7OmnZgeLHY1atBQg/tpOAt6s3g2E2H9utt0lbhx4T5ggqVOy9l5YKdoCRKbWL9o5Pn/ZuQzixLn25S+XHbD+Lkr58Zvh7bWBsCljTVp4CMTdexmChbwxfkCDkNlTsP6/yR8E2FtIMz5DkJmWWhIlysZeAa6W1ftvUK/G+y+xg1TbJZec1b63DFiKzl2dGsbPGpGbP+WrheMfh/rrNbtOR7YisUMtb5I7Lzm2gZsDAzkt2U29vJ+/jfTk+5xvsI1LcgS/7q30No3mTjjV+eIFscVV6D+v8j2qBm2ykiJUzG+sxTqwLuz0lQGKzjL5coecX7ux6g5VQotq6krrCCyoPF4/nyKy0HHyipYraL2OMPxT8H9guUtXTUVPZiHjCV1BIfoEpJAxGUMO7SuoJ25HgNiCA5htQQEHwchDvxgR/YbHCKt6tFsYHwN9qHDdrOqzqrqOTKzixr1Btt3HHY6mGxUqMosCheQrN/YnvCFeQJcQ9PZZaUCcg7WWBB3lobMVxLAwtz06bCHJLTDqWGCgJMwTOMrB3+4caNTWq1oHdaFU/gk4C3g/1AqpnIGGpGVRCzDjefJ9wfW5Xi4jsWMpz1D5ha3DjjNmWUh5XUEh4y5VAolv3j6co/DxR59jMFiWq58YdSZZYEg5Cnw3JoaH2X+n3+5xftx2OgcCpUiWFnPHSLSgB4xlVena94U13hz4eQPmUnNXL+vF+gZSbL3DhbLZXUE7LL/JLmButKsjbILGY2Z6dJ+ZdY62WvsSpA47ZTkuRFtZYtitLF2WptLP6fZ9/HHy7btYnIOYbQ6L7zsEHeRFdXDHAS/Zn+wDLJSEOQYSAG5BzTaXl12pOzSu0pOV5rxT8QOl14xctqrVXbu0KkluORLgQvGPwtjeo7IwO1uSvHUMHrDLXX0xyVyZUcWS9MPQ+yf04yv4aTGGGqOamQqwGbuT9FXKcc/Ms9uv3DGqwTu8pq0nJz0wMmoohvrJNbBRDWehW2rtSC/KHzKalcBQOzAzLEDiuvSd2WAYGBGQMFQL2kAwLWD/AO0vXNfGbD/0uxNxWmnZq2uPgFLS+s9SkfKsQtK6dTYuwZGEoqKwjISgKZjtIBB40Xj+cagGJSq9hoUmW17iqvQerfuIoNjpRgw+Y+1/58fov09bUfkn6d5M67yuwP4Osu/VTMyJusewJEtDdjDKqdLe1/uU/D/Z/wDq1s016NaNYzPfiI2y3odqxmy5tVyxmGEclp5iB2B6zmNnNT7jsb6jyX+z2eTr9rrsvQcTu7SpSq3HFfGHzOTkzjLgEAxqlI7vGo+GqspL08uPnscWGJQc/wBLyJkdjuEDXOZQXL+G59FptZm/AatW8VqllpTX+ruCVauwQdTM5I+BBmwKB2W3hZ1HJS/ABBHJbL8Zf7jgdnJ+yj3Ze+iqpdmqZWZSoofEPmUXVf7lyT5+c4++eT9eMQGJWX2bRVPTQgN3hJ3lYrbDxn6dR8qdl/s3IPzKwmgv82UOGoYTR4lE1GDxhO7TuwijUehyF8+M39nvRtvOVU/hWLsoOj/2cIo/EvXB47ZT+zM4WHkxG3X0LLlSDknKsGELATrIfBcMrS2tn9lut1nxOV40ACjwWWhJ1i0ru85ZnNdAdVAUE4FjFifI0EmsnEDBuywYZG2X+yMctQoFcN64NthIssm7ZU7B22ZKwaXlT7pdX502aGXWBQZTWHg8hym8uL2XrOM3+bH8KtXDV3FQ13koJn0OCS6Ms4+dGUiKMLyEOaARWQDLKiIHZIdrGNPlgqe8MIdrGrXRY4yqnSz+yFQYaZ0BAoEKKYFAmB2YHiNamBFHYVBnQSBQvguXBpbKf2YHP4lybrSGVv8A9XviaTWY/vOZvDZCR/ec/wD4eGP7viYmJiYmJiYmJiYmP/7DAfT+TYmOzExMTExMTExP/8QAHREAAgMAAgMAAAAAAAAAAAAAAAEREmAwQKCwwP/aAAgBAwEBPwHPxzvQLvPQLvQQQQQQVKlSCpUgjfQNb975757575/JWr34C8ej/8QAIxEAAgECBgIDAAAAAAAAAAAAAAEREmAgMFBwgKACEDFAsP/aAAgBAgEBPwHBPqcmScyfck6gySSScc584Fr70F/eWvSPX5JJJKioqKioqKipE3/IvJk38vi/kO/UO/UO/UPfx9G1b/vnHOyTv574PnhHA9387+f4ba6tb6867sSv/wD/xAA1EAACAQIDBgYDAAICAgIDAAAAARECECExcRIgMEFRYSIyQFBwgQNgcmKCUrGRoUKAkMHQ/9oACAEBAAY/Av8A8OORluP9rj4Rr+d6t38mvxPkZGRl6DMzMzMzM7ZmZmZ2zRyOV+RyORkeUyMjIyMjIyMjIyPKZHlPKzys8rPIzys8jPIzys8p5GeRnlZ5WeVnlZ5WeVnlZ5GeRnlZ5WeU8h5WeUqwMjIyMit7PM8h5DynlPKeUyMjLgZGXoMDIyvyORyvyORyORyM0cjkZozRmZnmR5jzHmPOeY8x5jzHmMzMzM3bPgZGRkZGRkeUyPKjIyMjIy4+RkZGRkZGR5TIyvmZ28pj8+R/9+X8+P59f/0yy/ccX7Ll+k4ehgTVoviYEdhO03xItgjynlI9dn8YYWx36lwpjf2uhsuz/oyGST2E4I3JxFOaJId2inUz+UWnuSJmFo3PCTUPUi2FlsmJI0KzaWDtjfBmLvnZ4GzGaKbuByUucx6/JuRPI2XeLbL5jRKMSbpCQtSpG0jEx3FSVVD03PCQ7NlfYh2ztoYnhIGu1tUTJC+TsTBkczIxHgZE8zK0JXxMEQiWMgnoQQYMllQ32vSyIE2QiGVndEsTE+ZN2VaGJTHIq+TcfRtEsr0Kdz7KjMhIi2IuwkyEbVtkztBkQhkz8yV6E9tyDMxq+dYML4mZhxcHuZ/KGJh6holM7Xx4LRoxO3YzI6Cfys2R6DaNnrb6KTRkVMZmLAStmYslCq6jp6blDPv5Okh58DQm2JgbKMWLEbe7heDRifY+hJGzWQTT0ts843MSIMD63KPsf9fJkbkrcxZnaSHyM92gq13XJgxu3d3WNljyNklO0wZWyFsjkyId6COXyW75kogxMGeMwMyLJb1BVqNWauhozKdbRGV9nlw2UXpfyW1bAxZnZKrelmXOyxIutyt2cmBBHNjqtU+99RSZk2lEIx3FoLW9S7ifVfrC/d4focVzIMzEwukmO3iIQ30IY6SZwMCuOttpEEyKSjQ+7/RRp8zYMzsjO2ZlzJ5kWi+RkOFhyKdrMgezmeJfNfhPEzDiY2lGXyhHppvjxcdylrqVr5Reu+mt/A8XBbMRR1MWYGI2QSzAx3KekGDPESU6lfyf2MWValL7bqqHTeL4i4G0jZ67ksdQ5NlLMnoIr/8ANoZJgYivox9yV8mQiatzQwvmNGhO6ym0E2m+IiCBGB2MUYLdlrcwvA18m4mJmYMpZUuqKdbSSYktEcrLZPFuwaWcMzs5Eu/AYnw1WbPyZjbzWi0u2ZHARVqVajqK9SqehNJkLpbR7mF8xVmy+e54TEm03aE+ny7gOR6iRKvlerW0UlW0rYFXUkp/92lZxarW0rM52QnevUo0+RH6qY4FPdlUdBPuRSVdWhGzBkJZIWzyHOVstzw2gyMh9yP3ltEVcdNfrlWgu1pvMcbK2H6HhwZZgJ+2P0FRH639lU28KJbx/TqRVXkcEsb34RmYsWhRp7Fnwn2KH349ejF+twzMy/Q8TMz4afRlS77laQlw57jXf2FowIfAbEubGugnxcyvQ2iPeF+z/j+x2z4VSGu25V/dpO/BY1uvZzOe5lbP0+GfAVP2x1M1QiOdoe83JjypKTZX3bbeRBgveF7o2NdvaPKY8FroT14v3uVazanoVTyviTbAxZhb74ORkYGdud8uPkZWxthadzEyFJUivUQ9nMibfQ284FBTPU2UOr6H1bKUv+J+OCpv9r8Qypdil+1eFmJjvN9xK7pK9BIl3ZgQxbKwNpnlFZfyUaFZqiV1KtB9ij6KtD8j6UksqZhZPjZGV8zM8xmeYzMzMzMzPdzPMS6rYkK6p6m0+Vu5joSiDxMwtMmZ3JMxJWWhT70/cXuPUT7b88fMzMzO+RkZXyMjK2RkZXyMjBiXe9T6IVvFb/2aopfdMjtaf8bV6IpfVFAmUaX/ANShdkNFOpUhuOQu7HqhjpXMhkLoJ8kJ9B0+x/8ARLz3ovtIpndnkkPd2keIS/a9kq7WlCqId8DEVSsv6Kuq3cEZGW9mZnmMzM5mR5TyHkMad3IyMjluzSbVV69D63MM0Q8rKq2ysrVrsUfYvse5XdvvegrPq2Jlapdinv7E0iXnvTHCe/ieF2xM/d17jLttI2WKnraHkVamQmvsrpq+hQMb7E9TT1mDPMzPcy3cbeFEu0oxIZgzuPEko+ykqXYd/wDbeoKl2KdyTIT6e0z34dS7lOnBwdsTO8J+4r2+WSJGZmbSKZ6E3Wl8FeGYez4mW5srhYK1WhKVqZ3Nr3F6lWm81uSJdBw8Cl70TueG/wB8TD2Re4RbAzPNaLZC9xlmAp5Ip/8AO9XoNduP2IfttX0fW62U6yTudxJ7mF6qu4p6b09Sm8FPe2NsCBUijneLT+n4mW7JLI9yhZE8yvQ/13q/5Z/rx4tPtlQtN1R1HJHJWp6t4DnoR/xNoSWZVJs8hW1FvyVIpgzNpZkO1NS5X21zvkZGRlZL9UxKkUa+4SyKTvasr/ne/JoP+fQ4k+11i035ELtZvq7SuhBtLOym3d77tA9rO0wYEGFlT2MFuZGX6vUU6+3yyFuPVH5PreqXY+t3B8TaWYl7XXoUb2zwpRs9ieJiQva17uyn2/ZW7/sivXdbY91o++LJsvcw9mr0Px67vdiZD4ckehx6+zL3eop9nqfYafEp/of9btegt7aI5riQzAWl8LT7Ku1W5JNtqrhqlfZVV9ehnqUv2Re8VFPs9S7FHEo/o/2e5mQaMTMdx0mP3wqUuZVPLhJ7mN8/WfkXcTuqep2Q2kZmYimOZNXUwIMCeZ4ip8os59DI139kXvFRT7MtDHqPUVbyMMh9VbAggqnco1Pu6S5lVQqnyFWbPQVXRjp7YGZW+aRMirXMU8Gh9yv6tjbuJ8pJZgjEmnNX2qVzs5JTIZn6yso0uiFdKSEKnoiDvUYI8WRgsCWiqlEvJegm1WhVrxI/UGUezUMrXcqP9Xb8lR3YpR/0Jsmkh53p/of9Xoeo13s1bUWpPUq70sgdDNlkLgfZUrVFLRTUQTyRijIjkbSyIaxIsmZmNsfVruha782lG1VmYkK8D9Djd4nYjhPUXp37wteBnu5GRkZGW5mZmfoIGSuhsW2YwJtiOEQ6SnW9P9FX9XgcjgbJRDyJgxMCWSbSJdsTIqncau2Ysjd8IqWbVsSFfEwJa9V+Ir13nhbZJ5+jjegwMSFv9ps3avUp09Zh7fmZ3yMFfMl72yzIyMjIyMjK+ZmZ3ge16pf0V/1uZGW5S11tDe7haqENdt7L0KSttEb2JnaeP+Ir19ZU+5O/s72LJG11JZCs9fUL27PcytmZ8b74+rI9Uv6K9eDWP+SeqEZidPWLVVMwNT742yjHrwKCvUhFOu9DsoHrx/xFf9erZ9FVJG9InbO2BtVEcibN2p1/QM7ZGCvi7Zb8FOnDkjpxa9CjX1f+yK9Vwal2P9SlczZXUfcqfSoWpE4EMSoQq+fMh5ri/j+yqntwKdStHiyG+43VklaprkZ8iUZiZoVLj0Pufk9ZH0Yn3vaDpKn2GQxTaEbMCkwKie3p17HnfK2Zi75cSop04bGuLUuqKX39XV9H5PrhYmCE1lJQ+5Wu5ECMrQYCfEpfSoWnAatiJoqoZDPyvT/1baMUUo1XoPsq/leskbFHMikcmJN5XUattKypRLzuj7G+/p16vMzvkZXxdsvR1FOnDgT41S7lL7eqr0Kv54WKMFZR1Meu5lbMS4lZ+PXg9zxEMlEdhUmAkY2xJ4/2f6+uQpFCEY2ehFtpEHayV8cilFPp36fC3O2ZnbIy9StCni08VtcxL1VWgtH7DVofj1XFmN7H0EDlcvW9j7JtiQrObZkLdT3EvbatT79hp0KeIha70mHsVGvsL0KNV+g476jfxI9xq1KfYU0JcSk+92CrUW5D9cv79RiZ3qXYp3Vr63Ax9lStKu0R7xVqU+phk+kp1PvdoPyrQo13HrO7HqX/AH6fvaUzZd6il9tybZ+q1G+A08p9dTpapbk8rY7+JHt/36laCW/qLiLUeu6l0tRqJITFiLQp6wZmBBUzPkUR9lT7+mq/r00ksaWUiHAn1VlUR0viYW2kbLMBTZsa7ekp1Ktd2TC0kOzh8iGYGyR6el21Nq7tTaJIe49SSTP2xeqwIdsSUQrz0NRuyXBZWt2oRBSxJq1NXRldXNWUHZlepTpZL01evqKtSjQX8lGlmNdSpVdTLAnoYGZPUi00kVD+j6fpHqYCbdtlEjpee5tIgkwzKV3Kn1ZSzsOXZelpjpiUdMRz1MPqyqXMh32jETtJiRaBbP6HCEySOZiRSS7ZkWaZgOeDUuwt3AxGu+5DGr4mAyenp69fUVaFI+yg/HQv+Nk+ouzFV1O6GJGJs9zaXI+ijQlDpF9+khkrIh2mrqRamscoUEDRCJfQpJZgZ3S9IzE2TAl5kpmzaatyDHfw9jbvC9ZVNshNCwxJMyDO2Ktlw36FLoa+nr9Pif621ZTamnmbT5sVDzQ7TbAqnmiEUrtaVkLR+nncdLtNk7Mbay/UVqVWegt3EwM/Tw7KCdq0UmO5iShrgLuin0DI9PX/AF6eHaLYmB4jZNqeHp6vI2kNfq1JVraop0MCdxsn1OhUjw2h5GFsyGNGj4FBT7RrX7DjwPtFenq8SDD9W+xq2rEkSUwKR1LMTsmh+oaJMD/Y2hlMmBkYs2iOm/R9lPtFGvsNL6FW/wDaK9PWYGJP6q1faMTAhmDHJNsfVKFbuUox5naR3hiw31qPX2erRlPsTXbfaG309VXofRsrKSVmY/rOPuTHr7PXof6+xJ9/Ymj6KP6tJS+3wUkQZmZmZmZn7DV9Fensc8yX19ip1/WWzG719oxtlbK2CMrZnmMzMzZ5h7LtPqaY3V3GmV+xbZCEvYnr+ssWt/v2Kd7FDaRDMjIyMuB9lf16ptFPYqW5oLvh6eTsRHLckyE7wOkl5v2Oop0/WO1kzIRhaGPoJrmOy9U0aE7uI46k8OnUet8XfaWTNh7+fBxIptLK3zKdxqyfX0z0t9brRHR7kx7J9FP6vBBKHSYi3JElaX6lsxtPUQjaRJtEK2DI4VKFfE2abf0SNsdLNowEsyDaUkVGHAlswIkqpZoTuN9xdsODnxatHat7qY1234R4Rxjws93Mz49LKl3/AFqTEy9gaO4hECqt2K6f/BiS2NFL5xwvojnBkMwMiWbNWQtm20iul8zIlokgmkVPXea7GVvMQSPuKXlgZmZhapMwKpKah9iOUCxvM8X8n8uz13U+4nfuNIzKlzMc7QQZGRlbLd8xmZmfAyMjIyt5jzM8xmY/tOPpcSbxvS+H3M92Gdp4W1wsOhHcWhCIE9xw8bUx1K9CDumJ9VaSI4lWjtRaEZ2qT6WS7jeUFGpVqbclPc1viZXztkZepf6vInxoJEvam/TNGd5qMiqOhSdzFlPRq1S7lOhPO0K1b7lC7Wx4rtTPI8BNXNmPS6qtBLGQKpmP7w7SM8J4ibTeFbZd0ieolp7XC9bH+V4ZgS1uuGTV6CrR25jv4jwkVGRlbEy/eqtLbI0YjaQqWM2byY2pqtI56n37TiQiZEyvUWnqp+I53ZRBjaLKkpZVSNLraPacSLM0NWRZMgkTpHNljgYcKKSZtJh8YOyRPU2u/tTUczG6fQccyehPa6qFnCI7jXYhmRPBhZ2WznaVzFUQ97P4njcy9ygyMHfK2Bjw6hfdttfZXTo7bPYVbMzZfSzXQpfU7r4dRgY7+j/Sdo2XZrqVvtaYKP6GbRHIbF1SF3w+JqhcHD3+GTSRaP8AJWmCDw2/7M8LYZT8OtkbmBiRSLxEsqp3MB4mY7L9Bys9bUaXy+I/CZ3Q56CSNoRBmRfIiCbYfoGF8BL1uJgUwUvhSY2zE/3fPdTW5mSrTZbmXv8As02xyjjondz3HqVkswyiTa7SZCd6qSk+3wsRopfYnoOnr++NWW89BSv0Js1I3IeZEmZB4RzbPdp/k/2d4IF/JTeO5WU/0fifZoXdKy7Wa5ko8XUafUik8Vk6WOeRgJVZmyiGrU1Dp6DQuz/fZRj+jqm1QrZk8mVf8j8Wo9bYm1Uxdyh0v/5CUmZCIQz8bKl/lZvoj6K9EbVYqUrKcj7EL+hf0fj/AKt2Zs9xd2U62d/ydj/b/sa1Kyl9ja6n/ZSu5UujJEyspfb5GatzMRUVGd8FyR+N9Vb8S6TaqrpTZPoM8J+OnnEswEz8n8s+ir/Uo6RapMo/o+yUuZHcVPcpwyqY9pWlG0xO+GVm+tA56okkXiIY4ZtPM2kJEFR+PT5Pp/orRiTSV7XNCc2XUxZXram3YVZBkYcfLhxDJfyg0S+l3Vu4mRCtiYfM+JkPASXQx679RX/O5VHQSfP5plkU2xMBfz/+yvXfqG30ITM70f0vmlowIaJVl/JXqjEztEHhNtsfYc9CqtLkZlDHTTyt3+ZojDclEciIMTws0smL8i5WSKl1RL6FSIYlSOeZS+aUMp/8fNHhMUQkS8rUvuVaEq3hyNmoTb3sjEwJZBPzPkZXgT58dVdCqn7+Zs7Z7tQn24tVPVFPzJsozZiO2zVuV/0yjTchiqMyTMwF1Mb1R1F8xyQV6jfVkMjoKoztUI2StroUp8z6Ev8AJ2pkcFK7leonytsm3afmCNyp9yjSz0Rhzqdql0KX2Kl9lepTpBoxNf8AFFL/AMmQNLkz8dX+CHV0J6mz0GpytToQL5gndpU8r0U9LbNBTVGJ9H0P+jaVlRbsQYEEmWYoIeQo6C+Y3jbFmLMCGZ7mN8vnhsjez+bkid6LJ3WyY22dzLD5n7Cx5iq6Edd+eo6em44IR33GhY2bIPCYk/MCfckq6wJk7kWYtzDoPUhdBM8J4syvUgdM5CfWClW/E+tJUuny9Cpt/srSrULsiLVC7GAqbbLvToVi/kqXcgUCq60226fs2Tadl0XzC9UU/Z4cjFG1yFUZkjjmVPqUuyi8kIRBPMxKYO9srVLuNd/mFo2nuYO+DtDM+BnbMw3NrqVfMMsfUTndq0KX33MRtDlFGpAoK1aKXys5ZHzHFm1ehc4MbZG0+ll1KoFjmSQ0NXwHhyGZksgn0TfyjihLsflX+JFvqybMb0jXYp1FabwrVi0KV3K3fEhcCJtjvSsmd18oVaIr1viOroUp87O2N8CN5lJR9leqIkqXR7jVJjkJLobRmVRnBSNFP8lL6kdBUq2A18o/k1PshEVWrRT/AEiWZEobEupVoJdyZtJgQzZRtEcihlS7H+xWUaERZIwPxaQV9mVbORSx4cz8dT6FUrJipsnajW09TT5Pb/yKf5mzRRpZL/K1b6CXUq0KNbwSLUgjmSVU1W2eZSza7ifVEvqYWm0Mq72hXw3XreOvya8bSbP+MEM2ksym2087YI2mNE7sGDMXuzZdh8ZNGeMGNoJ6P5Ax9oZlvbJF89xoWu4ynRfNDMipnmIRJtIpXe2Ekk2zJVJjuMpXb5or1ZToQZ2h9RmiEoKm75mAySq2B4vk+XZdOe93IfocVvQhz8rtWwmyfcpRhaFmeY8RKI6Dq+c1/QrakWTZXpJPUS+c6FbsUlWlklyK6hN3ngODET+Z3obT6mWBiYWxIMzMzI4O11HT8zuogl+jT+aMvSx0+aMieFkTbEz3dcPmaFnbFkLf2arSxVSQhuzQpJZhdP5lb7lL62cGZmKoTG+5R3QuomTyZsvK2zzaJMbU0ldpHT8ys2YMBwSYCFqRHMpXRCaMepDOxmSYErAxVkrr5ow4eRluYbunz33/AP54nj8Zf//EADAQAQACAgEDAgYCAgMAAwEBAAEAESExQRBRYSBxMECBkaGxUHBg8MHR8YCg4bCQ/9oACAEBAAE/IfXUqV0V6glQ+KK6dP4R6MfQIw3CPSNfD0Y9NJtDU1qE0m0JpMHpodK6jE569ZhqHE2lWTebQ9C9SGpzNfQ+Vfj5+Y4+UF2gTR1GJp8R0mWr59AdH11cqMMNx6VKlPRUr01K9KGVXxdENfMb+O+qwaegz8UPMegxDc16SaQwmk4dNfVu406OZp079VtCHTb6DiGpzNXy7GadNIsv5YUeiN/GLA7+jEv4PEv0EV6KlSuh0vopHpMW/GNxp8Df8A+kkYdQ8fAerNugymppBiXNIcdFiGEXU6ghxHDcNR9PEXbIMx2c8U8UuBydOenCGpz8uMZzNOjzmb/hHqfFYbIaD0Rgv4qhhlfB2ehlPRlSpXouUieh6V3L+S0htDHz1fBfTfQPPxTeaTdGOaMzcUFkdxQWQVFUIuX0XPScEzeraCLEFKTHSvMA8w0fJOfQ4nPWPlWck06bY7fQ/Gx80fBNsJxHqHxLGWrL6svotS76WdS/SF9MSz0tb8SvEtLSntLdpT2lPaU9pbtLSmUy3aKaSntLVqUynpT0r+AY+g9XLosfEOYRyQ0x0k2QZizKlDCXYl5EqHRZ3CBXUM0TbNZw946LzBgsucemcyuriG/rNT5Zj0HR18ur1nzHfDHXQIQUdH4Vwd5TKlMz0LuZicul9L6PRz05l9e3pfrJEvJPdPJ0/HPBKJiUQqYmJiY6YmJiY7SuyeCV2SiV2SuyV2TwTwenbbwzxTxTxTwTw+upzzzys83WSsV6gt39Ak8KeQj0zMnsR8Ee3Fv/ALQPH3R7f7zxPvN18GIP/wD+XPMnmxel1bE66A16Zq1A/wDwYQzI7af+RBwOWCvUYxIDuAEGAowJQOoN5Q76EK8Z1ZH8wXEOtW77h4VKqZtp5E/31D/1xogv/wC0o9Wh2J4Z4p4Z45454usHhninjnhnjnjnhnhnhnjngj25Z1DtzxwLCeNPCnjJ4SeD7p4eheEns9J/qeh8seXoTyR5uqu8WeL0zxvt0F//ABL/APjr1e6V7p5k8uebPJ6Z5WedPIz3Z7nRp4ngng6TwZ4c8GePPDniTwZ/5EC49B43UajxLJZMTHaWdpjpZLO0sly47B1Q8SeD03gS/hPG+0W4/aLSrHiWPfx4RPDnJKmmJKlX8Mw18O/4+5fxL9Vy+ty+l+m+t+q/mbl/N1Klf4lcuXFaik44lfD4f3heHrfwD+kd+m5cuXL9Ny+j/iEh8Lb/ADq/K3/EXL/mRcs74W/94tGU/Ghly5fS5ZLlkuWSnoFy5cuWS5cuWS5cuXL63Lly5fov0XLly5cvpfS/6Fv038O5fXHS5cuX0uX0uWS+tkvpcs7y/gnVmT8adeqUWl9AJ6hXN90XoX1rcX6xGvg6h4JaWJbp9k9k2q8B469ImUlO8p8B/Tv00nklO8pKSspK9DydQ8k8vQ8k888vQ8s888k8883Q8k8083UvJ6gKrK95XvK955p5Ol5Z5OlSeboeSeXqnnnnnnj35230RV6Xk+EBXf5fQp5eoef09Xn9foFJWGG8x0tZWU9IBSUlJSU6VfRR5uhWJQDKykrKysylPWATRMsXqXlpaWlvSEXnm6V/gVVHklp5PWUBbqFvSUWlpaXhKv0ZB+FqQ6EC+txjK9AAqzmvURUv1r9NpeWlpeLNI4ixhVK+7dS8tN2htqALd0vGzfTqUcZIJUYSYw59egF7mUYVca7tXtLSt/LtO33T0Pee6WS3dFOer7+v7p7+m/Rbpv3nvlpaWl/V/wB3Tb4L/YddPmsP+/8Ar8H/AESuR8t9AhfZ6B7ep7JeXl5eXlpeXOJaWlpaWlpaW6L/ADZsIix7+n3y0vLxUfoHxzUMiF6GYfPql9f3Sn4A3zHLBOAPWNQzA25NdGGe79wueEug8x4Ddc0jBUoqKGc2R7+JgpdkXPkeIkB9Eqa/5ZSINcxu3F9KdozOSoznFUYlwhbJUolEpKSkpKykrKysrKSsCysrKyspKSsrKykpKSkpKSnRTopKSkp0UlJToUlJSUlZSV6FJSUlJSUlJSUlOikp0KSkpKSkpKSkpKysrKysrKysr0qyspKyvSr1qsrKysrKysrKyvaVlZWVlZSUlJWVlJWV6FJSUlJSUlJSUlEolEolSpUqVK/j6gpeg2+l+vaHSuu6NvrgASvFx7ibDGqGWL2maeWp2R5m/dOcz1Q2xhpawNckuwLKSlLBNswJG5MRA2YYcIIA0k1JjUR8e+nLcJY0VUwlROKp8QeSpMkxQ6jEF3Z9Hc4TRKMCyMzvEY9aJgu8QR03Gj7U1EW2XMWX2pcPs/rxOPg7wly5x02Qj2sxtiZcyh7Ycy0hZHMNgbJ3iSzH7ztZxD+TxMUozPOepCdp7iQ5+0t5WZbKKWpieUJmquLItTDuNEEF7x4a6KubNCPkEfn6x0JXiKYUm53rmJi7rMUAyYgo7ky/KplK0R1GlQJKW2yI4WfSpxpZmWrVQmWD+uOHofhzA9FiJvUM4zMIIfgSr+ZEGoDPeLA2gWlhwxwBiSqLplHaA1EvS99AcLjUHezcSQ3KXOqlf3MQgzLH3QrRuDhrk1PcU9vdSnfiRUGbzFEahq5CyOyNOZgTzie+EpJTMaDemcdniIXLDeI5Qru2VMx7YXaqPPAkcHSlf1zrNPjTD0UwQTBFHqQ8Sp4OlHr8sEa0n5GC/rejMkFFQVIhsSgxGeWDZKrTMIixHIl+YqVcxN9CxQUyFQDXBqD2mBPMFgnizCNNxs7uvxOOPaEFlsANf1yxr8WdCPzOZ/Z+3odqNuJ5UzSmf7R16jpNfNki0kCrq2aplqRbV/EWsxeg9CPGaZ/rzZ6L9Z6fPTUbi9fMLacEE50IH1RQ210FtVL+BfnJDzOSGZpL6IS6iiZd95aWz+RDM5L/ALG7dDD0UPeN7jDAOh6SY0FyuN+rZMBW4UXBJW/XeBNbmYOP26YceEuLupYm9DCcJMIdRajOcWO8vooWptGGoHpIDZZ0gd/n+/QB3gn2iJvhn9eDXxY6mbZ9AmdJ2Uen69EAjzM9q0ABpOm1VMqrJh1qGfTM7tc7lFSgoz13bMqrOqJacQJ7yXkA/efqzR0QwhhxLDbswvND/wBy1nEytEfnLDrI/kifLl1Hlssq5njECHLkiVO/oby/Of13rNPkBmmVFeYObbmILyMIwNFgcLQsz9wGKSARnzKEcmYJp4e0SCApmFQSjt6TSxTLBeI+V5ggWKnIHTlbDUfsSCgdip96Es2FczLaYmPQErtqi2hctrdqThFzepN2ETIo2PySu6xawEVszLATnpZ9phO6H+u8o0+PO1M66uaTiBRSbtkmY8xILQwM6Rl2gBbZhoUf7RGeaGolfM2jUQWOOv8Az9I8mEcF5GYilIR3M0cSmnGoAriSoeHR5lVMQYemUcqfh3+mfqO/Zf30Bjmmpa3en+x46s8mEUd1LBtmCTJHtUeF13jKc8MLsw2VqeWKUOsSUpayCItAQ+ueq6ZjelBOCEQZwn0miAAqLAIQGYlDNONdH5iWrN10tHtPxMpZ1BpbdrOl5iVOcY2JgAmRlnQZO5jv3B1+qT75nj8f5Xn+DRU7X/kZhfBOk6vqQBiAbevXyV8Bun2mfHJiFcEqCzwuaJc0qLQsR3zRAIKIh3msS1KLzGrdYmXnmXe51gnS/uODhm4ymp2rS41Fk/aUt62wQC94h8sSpopeYtMOTyhr6vWl/ZOX/Ygb9N+XAOPSLE79Ep1FyrYGoxdpIA2LCD3l3LwYznuLk7CijBxLyLb3j8m9zTlRLKZTqA+EtIYbeAQKTi7iDaIDEAhDcAANBX9d7EPgbw+p+dczMuMtdNA6V8GiD5V1jZtjNWB/XmkPgbfCZy+WvKMyGJRR2TbqiVD8Q61RDocBwtE8OBjfsP8AX2k1+QbDmXcdLJo9I1VmHzL02ExXMwxjBTnj1EKk4CUxN3cAuX6uuwgK1AcoJ2RcJPGyWQxK1nHeYmkaCiCJzceJxK3/APSBoR8RFRRMrOHE0P8AeJs/B/X3Hr10GIa6vXmswsUai+ykog8wD04O1hm5+nRUWFWJmEXQUSllmBby+plJgo1uLccaRLndIx1suIE5hynGosnziU2faC6ZWoam7yRsnOH0l1Rm2EsB5NRpojKmrXtFLWCB0cU8kG3oSxFn9fYLpTCKJqXLuakOrNTNF2Q4EUJXbuTkwkFmUx3LGmW4gkeYe8UAjnoahKuyANQaeJ+HFDbGQ4h1cky1xKAYU89KCLcWm7JL+OMzMkNYzMZeY+jZygAaCpoCK5Mx+6lFVxLrBQLlUVPFFdk0LqTLTHPwy1/fX9fPTcWX1OJr6GC0eJhbncUA5hNZfiik2S07iSsPCBFLsGCeVS9iyGIn5FRMm0Gh7zFRDTy6fqi+1Yo24jGNsRZfZDmFDZGFLMNEZa9vaDsyJ3lHqDNVDB+GNA1hldrsv+vtyHpuZj1sUI3WJ70etgqpipQA+sMdBNU5nIjHMslTbE34KK9I8E0D2c4PxDQPfHTkUlCH6Qe2vszH1cpR3vvM+b9EGwe8Wi4g0kFtdU2o0HGGMujTpZHKXMwkHHGE7TsMQADh6knyROSUMg9z+vdZp0WMMh+ZljC0l/5MKxN2xPaqLdQ6+XfR3hAaHTLzOaIk5jlixi7MA3CHGN5witi3PckfUmZd/wD9mBVbHiWbjT2hQ1hIge6jRSYRWl6gHG4ROnrU/OZex/r04mvRSZIwxknzXLySvUtC9i5RolQ2tUtY0IIc24ia40LI7sT2XHcr6QPIEVIyK95h+uyKb3dQtuADHQKk3AvKchxKMcEaRZB4xI2go7Cv85fZP+5aS5s+N3Xcy8vZ/JupjGCmXcCE3v8AA/tF957S30UaMRtbelFi5S9SiV4+HvYzamif4Fv2M0vgWd4qSgjLDEd94D/GILuUr7xKDlgUB2x8Y37Vyl9w/wApgoDBxXiL2gtwxiadX52r3CNmFkBpjh/Ugktf4cHDmecOoItEW2kDH3DdlqV61SUyjU4HHKuaY9uU/gVotYa3wjl4ufWKvEfICw9x/X8o4hOSAb6JEuzRDq/PBM2/TQWj/Aq624JAnCAdPwr/APSs9g2+/VLEYOof9k8EAfDqeyL+y/b+B8yFRe1ZPcYZh9ZN8Fwk2P8Alj2dqeRD4KDb0HUHMxUHUpDleVn3jtXNtSwRn+T3IsX3nkjNS8w49D/ICN0+l/ja+64sTQR41I4t/hey0q779fRjO9fzHbKvuahaa9kOUUfAqs8yj+PSjM7SPclffp8iH7OiBtMv5XIYQVTcxy0wbT6U8I/BOy5old4ey8QKjeXO5b5otRllYqWJ26g7yQkzAlhdEbdspb5jDve5TNzn2TNYzK3ZBNaBWa2P5PToXl30u9J5/jzdvEYp36tfwT61UpgVNM/A8SK+8ue7+vQobgHT6bO/RyVMA4x+/oNjxm7z3l2mE7dBBcEu5tFRHJiP1cOtTEDcNtdMDx6vininhinCK8Insg9Q990A3IBxCR2fgupZ549e/HGBUXTbbmE5JUnSaNjWOGutg9iZDkzifZAgKSfvJZHwhAVrLMLL4smWYbZXUGJyOhKELWhQbLKZxNwqNlbfaJ2ZhMsOIThOgg7sw4qxR/KadL6X4mQvp8/xleHFQ7CyamAcdGnnzH3/AIhTicHM9DhpjAmvZY9TZH55X7gj8HU0CmXad5/aMFwtS/EWoYoFdSnFghQKo14WGtYiYIpu4aijLJS8dPrEK18Z7OLmURU7KQNW8GIkOCECXs/lc3u2Hvc8Rg2Ryy17UUpTIcJc8xnxfBFOEXh7ce5Ed0v39Vbd0r3zyJ7vS25c8ie5955We9LNQfLnuRWzpXOJK+UdS+uPYiuWJQYRZC8LlPPcJMh0UNuYkVJpMYwL7LmLbmdmQKwSi+LmTe2fiv7/AJV16ThzT0Vn+McHYTmcfd56IfthPLQfWLONZ4l7N8/BsnknknnIl0DxOlQ5g+LjFmtjwTwdNTBALtKxXuhF4uircdrQsmvc6PXzqszULqmcchPY6KE70hsnKfiU9p+lE8QIKZGbhl/IZdyx+0K/9iR3vFQAR4gTV/46q6dgf8zwAX4nkAqNu8UZ5dm3hpCgcp9FU+9Eqe7mJAg4HYEXAeYUsZxk/glAV0THNXQg0y/p6HUWrtaCEPLn36tq3ZNUzXpzp2kCld6iY46pS/Sc6xjMu90QDr+ZOHmafyBVR3uKAcJavvDLQzVHhg3xU4m5Tw9OYfszfIWWk3zPwErE0WRSvWmXeuvJkZVIv7y/v0Hmnl6M5HPc6K5oc2g5o1OGuiWaCeKeGeEl3E8eeFHtIDZAe3RsTsY0AuJ3W6in5wjn3ynboI0MyQ7E7vH7QUB2P3Px9i1XQGWWbQKCHE97B+3RfkxYnZJezs9fuAfiO+mcMNul3EF+6v4hvwU/mOkd30Lwme4AoJ5VUo+k/gno3KX/AJvVWarPRlD0ih3JZHz01hrrpErzRLebqHxmrjH8rUqOHVh/FgrzLK5llV3cszhzzLfAyv3j7RN7i2+Wo18calveZXMYQnCBlTjY4faUryMSRjCGZMftMGueupdxPFPBKdvg0dDnEolfAEqiWbh5E97oi4mrHoSxHSVKvs/URMZmPg1Z6X61cyFRmG4pTA4hm3MP/AlknNVGaDmKl7s8tKYvx01mGlrCllyzv1Nz9qefnPqWPovQXKacyLZMfxIyPCF5zD8Lw5Dtxg9SGcHDSNi6nY1NX1MLCfyGiVfx4JYNVO3hmV8J4kElww1cKT8yXG81uEHWh0pSVNCEocMANRmWIGnL+H06BRpiLsam4ajea9ftMAMHS+wdCpeUN43U4JjprfoPO719egTYeirnigV/E5e0iw+L6uzdr0UI0spvhUR8BojQbT0PTI2HSjxOFiuXMtS91BYniL7NJun4SgW6iycP4MlR8+m5+Vv5ZKeMKUisirl25YC27SVLczsFjzKwQbpk/kUCYJuvsEFNdyWt82vVw93Yp3N/V4JSV6wdORBnYv8Ai66fmQs/L9N48EH1YgCmiZ0gATmNUNM2blggpKFzCqK1XQBa0TcOmtxUD4S3dUv1XQ1lLB2w9BNMzhmDggaxl0h+4XlEG3MZC4q2J4zkxUnsRe1zfb6AWaIILPnhfoWOIfM18ioIgkgFHWhmD/UmQMcfyRwC2d7LBBLS7fnDt2f79SmftfHYqYXj8kIj+M/R/c/KekmPkQVClxHS1Q5J3w30RmVgrlXfH7MrUpeoOeMx/wBxOywiBxB+Zs/MKTDLMN4EofBl+nrIOyVfUwEVXd9FKIvnKLgjQx8qynNMO04nuOMO4NTHoxIgpsXjB2rpKYqIxvn57OvoZl6fwVy/jNWIZHGZ+B/kHSYlZmodbnoX2w+7Bm8D8+r8vPz37PkD8pqVrS8kAg0/xf6H7n5z1tmRpJqEDrhCU5ds48XMAAOIHfsnkG2Y0hTXJFa7mXrwNEyCcr66F3gEreJ5Mahd01N3ALQw74Ql/vMzu0HQxA2lU6AW8QHiUroQONIfPEzX0qz/ACSr24L+u/j3SYJxUmmZ79f9J3nN4/5erznAVK5+hQLdTXj8SrThKTOP4sf7u8/Y/XqQBz8J1Te4IDRSWYqGiX0v1ZrrroFwACg9Nnf+FJRI68Q/jb9P55P3/wBfx4rTcwvbz6UGXxPx6eFKKishACvo8rkO34MKcmvhswfTO6Br0WVtdLP4SoecdN6WIOwRO2M0Vfw3S0QHBWL+NfV6r/8AMu89/wCENkND4h1YfwT8h+h+5+3/AA6DcR2jrPUliS6B6Vg8f0z8/wDo9LHNwXn49VKTe/eZx8QZw/FjGru0X0SxO8sqb6NW7IsnP8GlieKiy9j9+hAU4I7cOIJouKOKtEsefhWG5uN97PjBXWg7E9uK/hLPehoPQv8AJ/rfufn/APH8Mobgd8ZLJ3afrM9WfD/Pfr0puYxR3GBzIjOSV9twQCSzp3RRuMXXwlmNFuDlXh+ei7aZ9SCh0zdtOIYHo3SLYZcdqNA/N+JnH5QOtOvc+0z6QyOQxHsqbchAv77/AKEPO7IBalNt1zAx1iK+xLSKXw2QundmZN8fI2+BntT+EC/SxD+S/Un5/Q/hCscTkLJWJX1SimYZj1eM+8kxKxKsozbcwgZYtS0no/J/qft9dw1/sQIuRoITEEZw9mXK3F/+oYvZ0wBbaFE7iBhBDSGfeMiyYYbY2fA+ph+Oq2CKUMNd2peGsUSp0FVqzYaD3OGHbjzgGU84nkZxKB0CGKc2bGXHn5o0PcituokrpIJCJZG1GptguZ96j2mL6M/5govZevMutzfaX1i8y5ih+Y3Y3HeJOoeYuyb3K1f9sr453vpAte5Ufd0ABawRLPhJ5M/Mbvj1R/Jfnk/IlfCv5v8APkf0hlL9n7kXM2B9uiV9UV9JgbgdYLzMQ1tQoM6ZfM0ejb/e8R/efrq32kB7L95qZju57baZR9gipfBmE6X5l+zgX4iAdzADn9wW6ma+DssPgw1HZ0XJxeIzGUzObpiBWMQtpWginLMxHUa5tuFQ5Q0hCSuGP0z9yd8hhgrrCGLqR32uyHuhi4PvvT80Kbsx2XZHrbP3MEwG2MQ8E0zwO0qwlaOiDHKm+3cANHyFYi3Gu8qTuofILgsMfqd4ABx8F1Ez8kO28Hy+56XP8m8Hf9IcXsL1s7zzSsFEuhRjsqeCV9IKeLoDcwaB48KeSWd/jHcdNkp+cIHxPtF7pH8xXJZ4hsoEtnuAErg1qDwjNd5WYUODQV6/hf0z/S8dbwbMkWkw7iS2SvvDOSqnn0vynIxcHrKBlctFeGvrMuGZUWVVpupamtwelzCe0hPQKumXI45iDszUTT7+YYFkhlDE8MANRbiAcSy2FwzM4gEbOjQjUE6jrq1ytDEqwv5Na9Y/NHi7emxNAHS4tVxA2+TZNtTRPpuaLG1kvbo8z7sPWmj2ZnjntFoOeoYew+XG809MKC/42zvEeER4RLmPAQ2cCPXunEGeSWwJtgEQmpxnR8EZh3/HReN0XhzxJ4PTeOPkiOFHhmia9Mrl6zmfb18ggwDR6XswLR1/Cz/c8ejcCB8YAoK6pRQZRW3qO7EG89EHc3aERRajuESwWZnv6329LsEsbr9oBQV8hoYS413IXsH8R2XJZ6jbVHSH1DA8/A0YaPV/p95a3x/XqAOPlkINWqUBXcHynpo7R77GvV3QgptiWe2paTHLBIYOjp95qsdvl6JGur/EpbSJ8IPmcIi2icPoAu4FzIU5gSmBUHrcofBdz7vvN5PioBe0/wBTzKB80/Cf8z8T8H2EX9pgPL9wj/oJceTDLa9Jezu6WPusQPNRTFiDZWLEdY8UfjDcBVxhbJ8AM/lJd5wg0lFT25X/AI9CDbFaelBla+WJcHZ/H2/LND82wTwwSntaFX7kub2fUqDnPURJqDJOWaW/ecSY3Ir8JVbZzFI7uHoYvEVJ8Q/cPl8hBQQ6sP4JDmIwDmBx1EfLYLkgN30QHwTwem1DgJ+M+HaHMlzy/wCXxVT+c/F/N8sNfoXUEo9XmRn4jyleUWQ7luLX0rJf2C/iYe0iQXpLVldDdjbQntwfFyXgSvvrfb4Atu05e7TF1FcJWXNieUkY8R1AJf8AqIN1yZuxiXhYZz2l21tcrbyX8f6ROPuHzeQ+0xt5GKfhkZmAw3+h131zfMU/gihb0+s3DUyFqE4csW4rouUl0O+8aHdCAKJ9Ixb9n7fL4Hz6h6T5enkiPCC5g8EdSO1ScuENxOSB8QmUfEv4j4Ytuxc7Xo/j0MPgeWUngAfN/kr8x5Hu+F4MWfSYJeXuPyboTAzc/EuDTX8R6U53BVmwJvIeGsiFWmNa8D+IZmn4nsU/MVeVHwBXgu+9MA2KgAfed5Vxj/6RGnzC2K1XWCIQduwjXg/ZMJ7OZv4x/DFg8/zj0uckSs3mJOwFZzMkanBj0rDEC4Av2hJH6QAjqZ4wRbPZKw+zOcxBnHrUzoPBM2aZYO24te8e5v0+Xv8AAeofIIbZ5pZ3nmnkiMIQhpiPEW1DrR5M5rBoA3OEQHiU7fIivaGfifhizuKiVbH43jpzzcfmjZy8Xf8A5fCbuGLDoei0vKDs2lHbqgqMxnFTN2wCdHxDfiLjpvD4JUSForA6ijREUM6jo7KT2qt+s4zUzXog1CZV12gZUpQwzWfG3HjFl/vj5y57mpq4jVsEisC6bZX8X/Mzfk/MrPoZiGuJervCZFRmKOHMXzBiNKtQKVXJguvpGOZ6abZG7hD+iWVLxfyzxknt6T8irUtEumZPenn+6DcwTci5cFvMDkDjKeJVfL1N3lfR/EvPOfvL74+Loz2954TPmql3UX1v4GFHzn+67x+JbGXqECChRAo+Nbw7dh86zVtqMF8p6IZYMwIDUMaCPj2TmyszZhm0whuG/IBQQq+YgnJPLx1tRXAEPgCvlgZSPU06LPkcBgY+V/A6vl8WbviP7z03Uyxib9/Bfch85qGo+gX7jpZ2/Kv8XUUupgKPUVVvbDt5N+p0RCIaOux8vUFQEroB8mG/d/gTgsqeHvifks0e/wBNFyZbF4DHD73fV0wtvaj7/Om59K/5/MbNBYvoh21y+nC0+h0+zPw05fmwBXQQxvHBBY6/wtTcpcTgDoev34mcaf4JrDokSvkmR85+7+/mQsFR3Z9aTS/F/MT9n07HhIr7a35mPol1nEr6gCsTQXLihBHT8tj/AKdx2/L4Hf8AdlkDUVK711oh3snnUPoD799M9QgWOOpj5a0O6oOFp+A+Jp7Q0TqN6iht+ZqnzlKAe8d4hXowzaVfclsUE5gpdyx9G9SkPlz6g+RRHGyWU7L5msp82HrVt1kTzYw9HYYI6+Cc3aXfp/OlS0unDuOm7GKbViwx+20YC7C8yhO8F16D7R2mD2VsSp3zBfHiY3hRI5HWItRzh8tjC7flUoGZmCHLOKqkYrhLjn4In1ngsemb6TKzuV1NMG2pa5gW4dkybhmdwLxMBtWeii9wjpeXysvD2izrYYuAicTbL6YwZI/DTBd4jo5nDpMy4hiiBQ2bhktsoba+W+haiywkiYUuvXHmDK/8hNeWiDhuON60w5BxHJeY3eBjQjnl1CXJU1LECvYQkNxkJmLSx9N+UOfSdfJHsySwzd/M2m3BKoa46CZVAtMQ289PJMQ3GCXGEuTibziZAvn4PsGmZvYfSQ+lKpulmFHeNAcJMlC3K+HM+jD7xgIMKtrggnd+s/GQt1Y5wFQJ4LPlsf8ATqbPyqDslVqUfVRWvjD9Y/t6PZ3lT7ZPpKe1fqPZi8rJosYytvKG4q4abQxwEsuHEVTuG0/ea/uTR94wB3+UM09ktbVc1c89H5U2zLcNlFY7bj2piuZS0b3EC+mU1sQXtEtXt/cF5BCcdMwhwlq1Mdc1Fadz5M2IgY5GA99P1S1OjSF6ywu1RiMt43DHShFuMTE/pMsweUtJAfbSHf1LfmtxRUpzKKa6GOUHvF2Pkjn0n+Lcpll6cNweCpZvQxFv4TP1NQR9ydseZz2jAi2oFcVmPn+pTTGw0NfB8kKVLhKfSzRsIAvBg9CeIApMTSENdDBhp3LGGe7QsBqVYQe/cSu4ZfL/AID9R+XFeYMX5/3LPCwhlYLHru4PCCVYOzAB6P6mMXPhllnFJHQ7cEwRl6nImWptgUntZnb2xbHjkheXDOH2/T5SgFkZAhz+WdozKAUNmNKxPNPzER2tMWzhJlzm4NidueINQseBRaMv5XpgV2TITLonHTB4Ar5SwzasZRdHaY4wEs5RDZCYpC9lLDDHqUSgxqUVLtAAaMTVphoIpw1E7cwakjYczKAPlx38QYFxXBvoO1WLjZe/zePaLgovSNbMKj5qgh4KmE4w9puWsQ/e2ICCVkUtExTiYrGONGvgVw4bl3nv6qLv1PocXQuUTzl8v+Wfr5c21RCSOP8AvEHbgWDb3GedBU5hdky21QKxlgoctxi+ZQWWUVjLR9yGK8UVGAOAueNQRncJP952+VQTMQ3Uqoz1yhslVLF/mb0xRJnnorIHgn4DCUQFH1/gVtnz+npc/ExXeDk9jo/sIPr36S8otUJtPy5CWGBMWXNQLZhdMywLeIqmSjth3MyVBMjiaBcJ+OV9yfArb/Ul78V8ghOlhAGgr5dX9NHb8sh1QemcjiV1dsesTCOJY9Jw2Km9GvTR6c37kwm9F+bVbTKzQ7jne/4KIfIfms1OhW30lbkaguILO1zOETTmJhe2AhlqWFd4aSVxVy/lr7d098l/aLpoStR5smPorhYI/XgBQqnFKoBzTiIF7zQzXrp9RhoP4c2Tb5f3Hb8xg+BbIBk4fUk3w2P95+bFyqKLblq7P+DD0HxLL9rSnvo4GOWoIqxzHFEunPcpZYuPLhuGlq4DY6n4YT2qoymLZl8t5+JSLjDAFkphrDujByGoWw1uEQwsfJshvqiwO4XMyB53Mhc/p67W4u8GPlq+R1ntmD7r/wA/M0fAfyT8xYfPr2S/3fPzelcce0ziWM1pDAf8IcQ+IbnJPdhiCG+Y2YxxCbk3XEpCzvpyeWVMNTMotqZ3GUIlX8wly5IkAaIKKQaga3LakGuy0u1brEsmodphcmJb31eu5+37x4Ph35xUv+1QfQF/H8Dcp5n/AE9aFbwn0hmUY/NMgikndv8AxHaPB7w20JWxhaf8JDXxdsQfEAAIZXCZys/wdX6aPg/mH7/iLwnGb5fwNiRfwXPKsLLkpPxH7jFM6f3EW2/4QD5LH8zIH+PsCbywBJzdyv0tgR+EEefVXyl+pfUR+YMnj+/4EsUwow94eRkYPM5bq/gl7A/voG08f4Geh3D43g2ZmRsHp+N/xPnjOhXt0HglmHGc2Ug258iZ855MUlTVUu2ichZcRWa+ZqyqyZl2NMvroNse79UTtkK/gbdGxnvoZ+kDaLo8EMzQfwX02BsH/BT0c/HomzVdIh0wPe+laMxhJq3PzFdTdcRFKz6XBsmt7EQbj2U8SeLAdCU7et19PojaSAaD0VsJgYIgmvkiMst4iJRtN/We9wft6Lx7xmX933fLqxcFxNSLJ02PQy1uXEgCNJ1U8uI55q9zFX/R/B0+TMsfh/gp6OXxnBcxKBq0UPmVgQ73YlgalJUVBLt0amdNpm7kh2JGWDufM7rL2gKqoBeXAAaS/SUjRnOYMGErZ5+G8P8AvEGfvChtgjp6ADYMseZ/qgy8szx6+Onrvoban/aTsVZwQWCccv4ZbO+Pv6BV5KljeR/JAI0B+/yxp91+oaIM3zlqxAhnoCCYZ4UmeeiPvI9Nnz5we4ntCz/CGHxrjuJdmYWLkgutmSNgQgCPt4xe5pCW9uId0xFvmFggUAfMeNiG5fF1A0JqWBcV+OyAXAZlb5CrntHaAHFJd6IKNoEolnPwvaQv3hs+7MGaJueO0tm4q0m6y3uR3Gii6YgiGzU7lEEZgajYtirjUxKuFygsau8SlRD5iRogJXqWhXguPc4mpRC6QRvozEqN3MlDv+0AAcg/f0UcRT955b1No9LgjQnVKmL0/EVvs34homTwB6a++JT3f6eut3ECgzWWVTJz4hdF7+Antg+g8k88E5g0HYQ73wrO88hKd+n2iov9nf8AhDD5ECma8R2zL52+tp8lT24fvM+MxK2xlbz2w/xMvYdXHeiOBlRnMCdpE7XbIVpl8Js9kKh2EGLLR0rUxM3NimYTLH6gEyJxKtWbiUu1uKQW8xuNBgjjYwUEQA8BAXGYXi4jIOFR7+ryIj7wbC6NRe1LQc7JQLd1Li4N/fpcE66AbBzUyPiKow0ww3WMeQgrGEr7RTO/+cFBqiora9PS5Ykqu4YA7fE/1fadpke/69UOZuD2H7TwHOCQt4mJjhnxANwtp4RMNUKzmlhEb5fMxwz0B5+g8UTxD25p2HGYjbXSe7Pc6VLTKeZ5/wB4bYyiVcSzj0UGzsncanOXRqOUq1LO2Sx7MuBx/hA+Pa1efkBspRUPlCKEK9VoQBQRB2QA0dRAZ+Gff3QtrErwSiZtdFQWMBrfYgYPRR6aAM+q5a5OjiGeBSXld2lu7UII5pZdG4ksZXUqWXAvNzd7ynMCWSsjSS3F3eFt4ofWWt9I2q4X267hY0Txm5fwxYf7VDUNfUfz08+iFqhFQZt7/Zm07DJPzKdBCBo3UjtPOFUvYRafKmUlPKcBtCvrHbFhN9Iv4nkZ5UO+vROkEoOPgV4i/E8c8U8U8M8M8E8UpKPQSCbgncEBz/hA+LqAlPiFLQQOfgoO4N5OlnfpS+yP20Mj+JFe/ETDgPz8tlWr5mmvO2Y4tP6jqfZlsLEZyls81LAYhLjVhmn1IAZwbnYWpZV2mY9iOWwh0i4Jc8cHobQmvPiOvYzRCRhT/mI3HHed2P1RUex7wWqeSJlctfaNSuG4ccJjbhGE6Yuz6zLy9oMHBr3iIjUJZzQV9P8AKXcPipEOJjFmDDFww1wZidCAwJWW4meoPklcImiRwtEfKZrN6mflsuWbkWpTDS/MHh2P4k7eYe2gWHEJrWPlrOIBx1PM7pFPzHfSiFku6Vcz4Pp2DVqJWmjj5C2Lf/FAtAcQqWfVHuNrCr5NQToiWK1xMjq8QDdbuBRpOjVpoj/lp8WoeUEBKD5bnhJfteoQCJ/N0Q2J6c9NdFCSyORxKQ75ly1eNSzDX6S0NYLfxBlBzLzpNbMSogZHJcxJq8/AetBtlmn4merz6nUZ+Fz8kA3UAPklh/kh8dgDpYNRtwzTkFJVFRLTzNWgnUKcCoAMTEMq1Mn0Zl2aT8wAzEeEIIxX8P7/ABu6G4ZA6e5skvQ82f73eOZ3RHC8kuxsuW5iX84nfg1Mycmotawd2Lc2S/hbtmcxubzZARaItSz/AEs6+aBRN0xgayMIg5juoDdOMq/ir9OBGI2c9al93tKqtKYuvGcE/YhhjnHXEo9h/EeSRtbjlG91RWETi0fLBWvguDZRL2NsDBwYv8NJDfkBHO4hMavnooc9Q2YI49Qv+h76j42ufgLQ+hLKJ0hX8XmuvQgiJiKNyvDEU3HbKVVLZgqpWJoxizEGoTRJ4vhWfcgD92336Y6vEL2Ih95cfO4Nyraa+pHVw9omS9j6dEcDCXRilk2Hk+G0N92v6EHxg8cJc78xFWvUzL1G7p/whq8XD7wG71nRHbwCeCH7Q2QosqrENHYl+sGqd54iCfeUN64ipuVZhhh19pSuM39HbQ+NcDsSlqbfXZ3goj3lv+n29Nh12jNw/n2QYY+5CaQyhwzus2PRQEZLiBGGIrkdpg+O0zoxtTRdn4m5eGbD5i/82dw+N56YvBg67lg2XQzXlS1WbjchUv8AqCCMwl1mMZGJuRMlMMto7ILJ4l5DDNxENv8AgCu4AaJ7RD+YRX/vx1dwTSHzV/5vz8bZ7QKahdWQSCPWMiv3lpjpJVE4SRxIJsDN39JeHThjGHBBa5VKccswofpN+6MZiwBAZSY1I2bQ0e389t2F2r6ARHmFYZnhs+ELKgo+FqAdN+sTekYWpf8AoSMntM/R+Fc8uJQBwvRaaOp3g5/yc+OvZiZI4bMYpgYRBEbEBgxHTmUTuISuJ9NLGhqGi8Q82WUpvtPqEgHc8Uom2M1Z/PUcs2xZdx3/AOj47gRtLhAerRuYq4lTBmk6qww0IxKrghTTDVLZETY1SPbIAGkvpZ+EZ9EWTNdmWE7F6Neo0BqUtrZD7qJjm5p7Rj6f5KR+Wfhycsvn09RcO7S+UBn/AALwULBT3X7gAHTZ77TJb+kuyWlAjVZWZaTCUjWfaLU8aBkPo/1/M/0PbqyBwNfaG8vmf7q3Pw+pU5VZT6JD/s7TL/xJmc7OOInYled4vSoBaJTXKV94cRnSGcu0J4hCsjJOUqPuIhlnM5YojHIRAyVf1jLgX0/Uy8HwnkAiU+7/AJMYfLKQ7jg/wcldvR19L8sr77EG2IUy2PQUzAVufubHeWb3URUQ3kzuUanYPSYZLo/aIim2YR037y2GZy/W5ikyFw58CT2J+x083j9oLC+76ytDh/5nHBDEEUS9wkGTEzd3gR6m7n4/9MRfz/MwfkfaVsg0+CGQMYx5vT+WDXsf3LCvJFTrWZnfvUG68MtBMkma8GvwgrhpBkDF4+0OptoxjsA+5HryXFkOEY94/HFAe0cBBM0z6kueQj/kh/kCl3XQ0+SV4vHM5DGbTNQUy6lbhATZDsfvDnRUfQqOobPwy1pwSrlcKwXG8XdTzZp+CLIq3xChYq4hXdwuCoal8aD3Ei66OyAVpLhUjmBL9tSge/8AwgWv/wDSOHveZb68XMANv8JPZliOFC7/AJiAHugQbigOSq95muhWgbnfg1ALLhuJf3g3vNiP1l4gmPe2NRavvKTHJ9o+BlgKm5klQ6iMMS3oPEzz4S9LDuZnZZRnRENXYPxMPY/5IR/yKiV6sMsft+xPoIYbQuEA4dkY7DPzcdqa1HLTMvBoBcYLcDGLu/o795/fRNHwniOWwYilwgppYFomyJoz4aEz0W/gIO4C2EsUZ8EZBttgAAaCj/Jef8qU7eE+kchtnXB2pdhsLfQ9YzNUGNB0pwsgtDHzqDxKD/Jjb/kYuUsYU58VFew2iNWSvr/R/cf+3uehhthJFz8Pf+iD/IQZMEVIx+24cLam4foGNDx/XqslouzE1bNfzNyEra26JeO+Ir7x+z+h2H+Qgpz0FQY0NJZ0Ofz/AAxTC7VTRiDaZbmyFyhBS7uPWq4hNTWyH4wXmWEYfXEuSq4ym0/WIVCrUsRizOGZY6f0OP8AH/2x1QeICMCFs2Ji8cwY8BCPiruxpLwqqU8uIubzA4uPsyra74hm8FTy2E4xWJ5NJiQd5lI7rBUOoq1/ebdVM9oSHTf3f0OP8hFpzf4h8StMpIOGhFNkEByPvFRd5RPJB+aCVm1Ij3xMsFN+nOJmZQiiCZBwR4oEBhLhgf6Ed/5HsjNEZXREO9kzju/Px7O+/ufqn9Cc/wCQqG2b2XvTSelVVUKR+WD8U++BLA96fr/cj8jzBDJ7TOBkng6ifNd4iHzw+gUf+lxW/j6AWyrgA0wRoEAS0RAIdQ4OZVUZGZcA0PRGTNvw2IDOaz/QZ/kGTaYUP3jv6OV94/iOtDHbkp52M/SIUyI5J7xz957LUjHgNLNyBcjWSlUxPtlido/8wRzDvson2xAEMIMfuoIPuJdClMAjkXBuOP8AVQa3iEY0n9wOYz1Nk8wNg+6ffpSYBNhH2m4xlRH5nuqn2mPtpFN9/wB5m3KX6ic5/VNI0Fe2f1KmeLZYTGCXKNydq4GPdl9Abe/0g2VYSyl2xUOq/qFQ05JbJ3a/oI/x7gM9VoviMuTQkCxljeo3GrMWz5YVC1CuPKz3sK/EUKIKIat3Mtm7v1EoWHcp0FsC1st+rFKDesTIxOTFwjBAGBUcr6SrOOYbFlllTbhmOMDpoUhQXdv9xprxVhZqc5gd6DUKlVI8El3mAAAxKDiaNAKCIJTAG9uimyUGj0OdkAcdNsRi4Ff5tf8AmxuaCGO70p7YLr+7H16W6Mpcpb6+oCLSVGZeR/U85nU4G3LPImUFIQWn0LW9n9zoC0wSVFwQSzvlSnTjD10ntfqXfQPr1a5nEvH4lUMwCvLqbJY7Cn2lQnYJY8xG6I9WMLftAFZM1jEERpP7gLvCv3mqHEPMWzyRRDuMp4KuKB0o73OFHpYGzJLfw4fr6KXo2lVOZJ+c/WI57P0jWLBCM+TcoXn+YID/APhBGwdEy9lH8zybZ+IOHeAD5/pL+8H5/t42gudumbVO4DZDEYsZbvtAqDbqWAF6J4BivtLhxkxttdbjlXa2EZfs9WUf7zMS8k3f9ZmfmfyRbWxgyi7MzPsJi2n1mNzQocqG68xD6ImFna5WnYJdnLv+4QEBMVDai1+IdEDmBw0/E54qV4QrxLvz3lUVUqIN7PxF7WqYVUu8y5x0GLfSBkbpLjMcts7cimyxLCNWTcY4QJRi8zPcGKnvcnsb9/7hA+8fuHeAljNRCI6jHQTRbgFDqc3O0AAajuDnjGLXz1H09FDcEdMUraABNR2mDbXoxowPzM1EGv7h8qqggqqNRmNzmGQe/oFl5zwoOojpilKNnXRLKcDUdF8biml1DC0y3E380pMrvcOZmJELcDdyVCFUtw9UHZADR/b6VDcW5KjmXSMukY6YbeG4wGriZNvtOTSDor0m7qFo6TdqQuBCkwzMo2wu5nEVzhqYXsF+0ctwPhdRCUF5QhpuFvBAB1lhnavkiQ0Fx+kr+0M7ADTGf5n2ue8NUYwVcDA3eES1K3eJ5L/ERccTLtHEIE53h8kiGSaGYDNgYg8RLuls8pUTaV4gVqHB5Y7fuJ77T9p7Qo6jKokTNX6sdKQF9Azu4j1OIdLm+khgX/8AD/HL/wAzZl4igyeBKDddK5F/Zosy1ir7xTjEBK2UwOmb22utcFzEFPqo8stvYr7T8Ho5SeXaAyqoilriZ/nv07wd4PVa3NeuX3lKN0/iBy5b+4KmUBLe8Ezg1LdegRC6tX0mTbU7rC2NbslbaD9silenD/aDtfAlXvbNBtlaFEXFwqNNTDw/ujmGfKlwJ4cIVfDSjcJ3iAryIXAcxWtEX2YohkLjVmZXVkurjpTeYHq0+8r7wP2jD9P3ZUPNzvpwi5EJw+0O5lxBi1vMW3dl9JjnufRm+bYiq7d/TEFnGVSmmVD9Gcfh+ZrZTiEmdxAu0cYls9n36XXCKK94f2YobgiWTmO/MmK12/7Imn7xWuJZHmfA57TfxLo94bWwJHCaCPSr/TwWJM2XjU74zIW5+4yrhbfLmVCe8IrC2SlfrEW6Fn0idpczK/B+0/0TiMdxBdDp7x0+qwggb5yhwwy0EW2QIJC0FX1NpJTcXEqjhVNyye08GNf2ZWF1UrjK+my/25mf9FSs+CXWBSMA7L/c1sv8kWpFkTMY5KxDc0lQa2610o7gBx0dIxM0KC+SIO+hJXWelcYnaeeRRb2/GVrxqJNMkp1X0FncQa+QPyZv+rEirdRKUU8/H46x1q/TR2+RsIbrpwnIVBPJL6XKEsZqCZs3XRAtYJgiuvbOSljzPbj9S48Gfs9TZ0Nj9/1f1/4/iDZHAdliZUHKWYB5SyZMZlN9ExhhMz2K/iWrytTNEu8auUpFBopzLJeUi0ag0KY6WZK6XHdEPgAf2hd6+XNkCCVbA2f1BZzKqMF3G/kdA238kwpIWsURtPxNoTCipnmCQOkhBW7iIJ7wBCVgejjbEoXu/szzkE09O+TUZaaJTatuqzv1zps4nisvyKS5GBQHp89CPfsyh2TXq3Kr+zhc0picmv1gA2zt7T2ofzL55cwvDqIbRUqDKGkwz2SqYnPB/ePgOmn3H4mT9rfxBGUobiiNxMBZ3hyYZutD+yJfkv3Paf8AvP6YX7wcqajXPHNy/wBFlsOUVBbSA9CAeIH5miwZ/tU8DAEafgX7ysSpQYPJ/c+C7AnuqjlSs1mFG1y/uxrvXtFXXFTgdWBEfBpq8p+3P7cPh0tpP1Czy8RrOPR1x8e5DeyP52CIJp/wl/p1B3EMfKLRrG59nf7nOyyhxA0fb4OI5mwxhM89M2oKojt1ynaYtcZP7ncrvGYJGdRLlyzv0A8y12nk/D3huZOy2c1sE6CeICZS9oPGNRL2z9oAUxL611EETuR7p5PP7lZLmBxsX0MmVTEvoIKarWZS3ITIe1BzkW/LCiHTD9Iy29P0jDp/2TuSftBsjWEdCWStMAAaJgHuwNLjHS/D/amP65/jTChn+inxsLYy5LBFUDiVwXCzGEmCFsrSXeSUXeyLVW37ni9PsRZGHfvK0MtoA6JkQuMQfQxYLLKTyrJNiKdwe0Vva/iCL9el5jWZf+L/AA/3KTSQeIcjCaEUtJryKbJqZrrPq2UaDo3ZMl1Nc9F//uJVnOH9z1L8p9vlNJpHgmH/APj81KlSpX98XLgDAvQo4j/e4hiFYEgRXEf7vr13L6L/APmDf92c/wDw+r/4B10VK/vkKdWsr0vSr+/H+9rl+l/+nOf/AM/Ra/8AoU8//wCst/8Ax4r/ABVumpenL/JK9FfFqV6KlSuldK9dSpXWpUqVK6VKlSulSpUqVKlSpUqVKlSpUrqV8EA//9oADAMBAAIAAwAAABARvJYCrL5A5vJIvBKL2xxt7Kwaz1H7zwtfsPxcCn6O1TtXqMAJAIVSUoRZBgzRgrax3WwBX+80FUVWVEl8Pcu7blRyJ72DBA4AEQiFWjF6hIa5QfHf/wCuEY9I2wb2QIbIUIvHTgVNCHhKKUVmIiiCFPv9uM/BK35CJGHTVCWYcv2N7xL9VpvFCkR18HLKOawxGiLyiYCaDK7TMVLxnLh24y+mCiHvi5bbPOGmbrIIOtq65SAMYoVsw4xgNJ803nMQx8GRfVLd7iyG8q2+o6LBA+728ZvCloCZWGxsubYtNPfpf3kzWjE0uC/XazAt/vjlrKqGOu+OOY1ceB642cKwYaxjxEVpDSqGGB0rpTUbV2DDRJDVDpHlc8pd0RAMVD+e2Kz70286+88kICw4+pd1Bh19phECyyscPCbDibziyyySqUwOXjL9Cf8AMJKIELw/R380VfXbDA/LnijgNHPvPOjw3/cCAPNsosMDHwwFMJ3fjuvtP/vIPo/VmWTgpxH6oiww+sgggQUlrTfXqPE0CqocPvrIAjji1fZxS4XbyBzwT+19+075bfj/AMs+vO/+vO1XEG//AH//ADz4Q3+wLAMMIPsJjAzgEPrFXcD/AMQjCdMEo13E/wCyesb5lKVNM+4x1/8Av+eYznj3byiM7SsLPRIFu92zDAmD/MIKsRTsoAgBjDQhERVVxWUcn/607RXDsAnt/OpEMMTkBnuLEqjqCOApUMJOtIlKHGAAEOtgFvjtgFo3wuoAtDB63Gd6FyBb9ncSkLDh+w3tEqvXggs/Ptjhussok2pBoHP/AL4Rgx2x0BDEQ2nEW32U/kk3m4INxGadIorYIYILborIrKI9JqpiSIK4SCgAzD3k74Ib/pLLX7yLLbr+cbGt4raJ31/obo6b+ONGbyoYIaL9baCBxm6Ht/1nECxwzziTwJKOP3LLBPKYo7o4YooKcNKbrIa9rIY4LIY57oI77KMNPPI8PNBBEk1/8muos5YIBCLSJTLJqo5yoPO23exnQ1886bAye8PciCxA0kyJTddubDdsfdvxbkYkEEWmcHOl0kGMEENfDPf13+8X30JIOXy33WEEALYADXzj3/qJ7MM+EDAJIIAYpIIw577hyjA5I6KANHaL+8IYIS7uX5Ot32caQX8BOxmIHa/w9iitDTw13zxRHIrf9Pr79O4QziMEGMEEII19wB+PfFP0k0HGkHH/AM9DDCC/LrABxbPDHDSDOKKCOASyqS++0KyiWyyMKGOiPPf3+6CDNiUyOmQeH4rCZ9aUWOCPHK5gIgeiOe/Y/wD2PFPK/wC/P7wwAdsMEPGEEG023/TPc/Oku3mEEEGMIW325/zwkEKUkNWnIGsv3HIIoZpIqIoIYoJJf75tuIIdUAQ08DKKrS7b86Di8VpklZ3HGzcFPcL4yb5qCgAQUXPIwz73/wDPf/vLBFCCcPTJDDBB9Zt3/HZz/wDYRwwQ46089/4wTUccgU8cC8VjlzR97SUjingogojig8vnuEgC8ADrywwg34RiMsowASBZPGlL4nM9bRtKRMGmhjWrLq/ykdPv/R//AP8AnDRLCAARxBBD9/nx37nNd/zsIzjCFDDDQ7DzxpRBNPzhCDDWxDy7DVBCSgiCOqSzSiu6WGCCBBscMSmQCQACjQb/ACyT/gzworpilrI7HjEvlmSrtNBYUeXfH/s9YfSQAggg8wQ08YQfQXfy7/8AjDX/ANBCDDQPDRTtttoC1xAEKAkDDDPDCyizDSCHDjT6Pf6OGG2qCASHzHaCCCDDAWX+LP6ySqzfTnHxCSAi+CUHhjjeyHNFJWzT1/8A0/bP7yABAgsgqhgAAjtP66cvvQACw1i3/wBLLMcOED5X7y0sEEQIEIOuMIIIIJIJIIIgAIYAJBpaaYxI8N/4IIEkUoOIh92tTLIa+cMYca4Jj+obUuMcuc7PuNwplLwBnwhb644GYIIJIIiBrLbIJIIKYMIIoLM/4ws/x+JJTlLbbxbAAI889z44w4oYJSoIKQBLqpT7zPdIIJDoC0AYIBBSun56965SPaS6wIHuu2ct1KFAaZR5poYN2QJl3l/y1X2ng4JK4IIEbIaooIY4Ya4oZ6YpJqb44p77poKqJqb44zp7s8oIYo4oLKIKoIIII64gsbRSZKIIgbuAKYAAKK4K8zrYPPnN/obaSxxEDwj4l08EofvUXyhvDLow/wCld9y88+/P+qW++yM8jO60+6uK++qmCSGCCS+HLiGC7iSa+iGeK+++yu+eyCACPuCCU84Qy2oCTBjKW/vucOoCO+OIbssvyGVp5AEdjezmCB90EGvjmaMA75uOiehRH898+++++6/Xeu+d/us/6ue66G2+84ODDAK8CSoiCCDSCSFPIQGc2O6f2u6AOPS6Kew+YGOvBgDGuOimICcaVD+/u0WCa1CT4d5N/gAei/R2KXHbBZ3vGAzH7/8Afwgw3KA//wCr64Tb74J7v/7rDYILFnbwP7v8ngI76JYY2IYoIKIbaKPnyjpLqeIKLLIDQ0544rLMPKIZKJsrCYszoAZC44Z4x1LR7LkskEPKQw4o4pRCnSrP/TX/AH/71/Pf0+uKCG+8swuCee+jSx+y++DDGOMKJyuB/cuo0wJ1vPOKCCSuCT4Q3+9aj1srGaWse+yu886TGGCOO+OKmGEHN/Wp8Cw32Oatf9DElNAU+1wTlo299uO2NtXDyaid9+6/++s//wApnvK7DODwmgp8deUIHTAS7BKvorEcdabnnFGOXFVO1rHMqvjvKoi7cmQtVtHvqpgggA0svtcTiuglIEdPHicPMFn5FAFnaw99uwi9zrv3OMPqx+lNf0ZMwaZReUgcNnqckMmkoBsHIMrbmPnKmmmvjnnPr+vrg7j1/wCogJPsNugNHiHgMLwEnKaPr4PYKKKrK6o5sMJYg/p575yyipQN4IFf0MH0f8bsAjVn38f3dRsqJtAR46YZTlXNMlHMWnLLE5rXtbXPn46JinfADsbYM1XLLOFHL6KpIJL57bqa4tcZIoAKcOIbtdudpHkqO/O574NHJbKCbr76Ou7U0DaMOy2wIOSBKIwBCfX0/wB463INJGe6+LKd0of+KAVPBtMuq/CTDDe0pO+U92vLjRwk1hAO8qqCyC6OCCyCiqQzX8KCCZCvxoqAqThS6e4t/KoItACiGemuA62+4wQZqBJ//wDaqqIjP+730PON97hDr8eM3H/OoUc8olPNnvPmu71vvj/y6ColJ8r/AP8A/e+sitciCCw6wQ++wG++MkCGCDkfjzgrztjqkIqAhJBqagkhdBiGe6bgGeyy0+uulErAS+agTzVSW6fj7dLc96W+yH/9w4SV/wDXTzydO3/vsPvvfcOdPOXJSQT5UAh3jnsvv7hzGsbTAgsjn8eNvsutigrsUeWf7/nl/MU730vmoloUmOtn/wDZ477764JM5iQ2Fq6lO3xKhrH3zWZd+9fT47tU+EqG57DznR7777zvPz3/AOvZAs5I/oUdGUS2lxuOuR0YlU0gUqyby88c0+eIOOOMqJBm8FI4UmroGvOGPrin2GSKu/2IE7y0/OW0d9F/RMBXRNt5lJTxqs6vDTvDC94NFmNJdbzBTpjjb3LE598wq/IAOu267/2W4Jp2Lx+jS5YfrYqig4Yys8ec++hO6ughOOfqjjhSSwADmCqJo0uCxNxoMYyiOAFvb0xADTjVtQVH5SQAwDCK2/r23/y//P3gOUMeCvYddNs+mgDCSEIBRdMLJXazbOd+exnR98d/9pbtOudEWb/Hqe6y8++6FT+q+8O+CiECChBIrCFtNahDMVUOyeug6230owyWd7BAC+Oi2wmK6Sw0ogKhDzFcQFWOMAPzwD3886gCHu89/uAeY8c9Sc889cpVlh+3Q0CPpILy+VxJ1Rye++ea2M9ZoG22qKCy6iOwleKhPudm/rWga++O6eOSIKNnrbBJAUpQq3kO+qSbjQUdc/8Az0Wk212hjzRHKlvAEeNTjPLPfdfTbimadvPfTfXSQ7//AKx672gIiJ1lzAGFAIIIpbi6cYbw7L75r77770zY6cTCmibh08Pza7/PPqIJRYfk0HDigoC40E0U6qsNNM7r7y5Olbr6oasFdwwogDBL7yBLFDqc1OXA5KjDrvxYvHfXn/30LL45756wrL694wEUKC04AJJq64oIZIIpLtrpiK6j+77Zfv8AzA38teN7GLDYkCaWxB26s+qCAhDCusdDCCV1ryGS2TCF8Nw+PmuqLFBD+g99990+/JVwU/N/+lh++S/6K2JxyvJDH987js9rTscwoHSg0sOICeeiO5DPKea9Q4zzyf5x3jXsLFzaCpRQD6kBBSqWO+gMCjSGMiqyeeKyOq2WPC6tCUesHGOGKDPDAy/xqx+6iBR99989E9YhBcNVdEDzz/8A8sozzTuZQSYNAtvPvvr137rqpWDINvwiBt1z2S3rslvuzty8AAM12XywjBisIchouogRzj77yupjYhGPQs8snn/ILw2xzUUYQx47vfffdz0XcfIbv3WlqniJIAyudvvrij1Av3e/DfXdcT/vvrnN/Mtuv73+8pJCcQMLO3pvgFjNEbAAzoJnqiElnAeDg18NN/8A9F0USBjNCyZbiQwLv7L2H8fxy00sEHFnff8A+QQNNz6zRtdfrKCqponD/ry/uS62f7mR9y2e+K2ywqIa4S+2+y2sqQCTz++wpJ1dYAQkw/eP+8B6Kqua3imcYAyGAN3nKCGCgiTyIlkDnUcsa2nTz5iDhBNBEZUfyiCCCVogCm/++vVdXPf7/wDz7jgkPrmvh8vdv9//AK44LjYILL6JKZKJPYJr8bzZb7LqoEJT5dPLXGcsbIaAmELJTgDYMAYdEW5Shy7l+85La64nibIJP+5v+V0ssEZ38A4OeUlzz777Z65wzTpLD77/AP8AigpiovLmODlnrvvvjvuDAuMvhjqj7yjuPvtsoHovzkkmrLT2fMMgizEmAMIDqyiQQySAhmqxuOw1os4QA65RsdDYQgMAT3dtakxN/QjSfcce/wDtcKLN8Hjb8/8A/wDv8gggihvvvvKj/v8A5LG/LLz/AM+Lee6mO+2+2682463CCCCUPu/vxs6WOqverjwJqCCCSqC/hIMeyyWclcZJG7quOUpSWWGBFH6GA0SqiK6+w/DCD6hdrDAG662yy82+iGqWCTDBMFd0FRz/AKLzvus//wC3f/yL667748+raocyMPHZjt73/wBr2u5w18oY1zpRhOGigLBDlfJAZDTADTMwesF9dY3f9ABzS5JXTgUK2Y1WSnPNLVHoeWSYXsSWfeZz7/tpNNK8OBEgWEsAcCGPO+vPl+vzfH0iSiCCDTCT+6k1OiqBEcMTlI/me6hg9WYOKCANCaiBRgQ48KCGf7es1tx9FFhCxJHnvWjterR9C22z2++gCCQyAi5xgOS//ujCOOcA3T6CCueUs2/3x/i+SmOyzjS+CCEKK29iue+/HQOaCUCB3cRV9ddpwOKJIABBDBAABACAO+Io++5WuotsCQxzdLAKB9gJBBawwFIE9+8ECeY2IUMGTze+r2++84Akw2uf4y2zX8s88oR9iCCSy+SmGaSCAONNNOey6fLqfaP7U/V4PR+46I+AEM0MJiCq/XbA2Ms8Q8++t89vPRx5B9VoJCESXNVhasuIAR995d8ypFCAyW62yH8c7/5tEUqDiyCCCSv/AM//AH/s8oI4oIII5Of8Ex/P/wBauqOvDAU2NpNTFyqusx6UvHpAvLWO2MY19MeO+f8ADfffa9ffagABDWSghXrOLjWrx3eUA3f7x4T0XbiQRXQbzTWddvnvPDDS1NYQANjhsr9/4QmxjlOJTj29/WtlvPbionLjB49sdzg9K+tMFwjKqDDn6koz0sczvygBENPvvz56+rviQwlmh/6nEZIbBOl6SgjAFVfOehteTTQV0v8A92Fjxz5aMPevVGNCDD4iLe7yy0/uJM9/g8HvziIw7JzDSIpbvPq/7vnQxUUwEBe3n0mJIIH/ANzDAY+80MqeO/DHds82MIRtbD5/HPc92ITi61qc+FJiH9FFCukyDXp+yi2+85CCzjDCCXz3v7iOeiiCW+6eL1/68tP+4yEMKimCSyDCC++tjEw5xBc/DfO2uIGDyEACqA92SjygJD8Qs8pyKiwOK/hBBQoCWjbbBY0rOyeuC+OvdyNdbLSmhTDS3vTNAgBDCCGK++PCWueqCGGO+KAu+8c9F+a0UAyCAzvCiQTG0N7CfpsO+OKmfnqhQuCAAgAMNNNLOF5MOA4CAKAAhgDTDRjTdrLIBSoDmlMICF7rBCU98pMAjBlLCf8A8QAAswQQww0utsgijggwQ8Fsv6OPPJfffvqggrTSOUwwRervfbSIi1SstnucBCp3DmMIQfjsyQTxjEDBhDOgkhAycQQQAwVHsr3S8jtgS0IAgQZTRiEAVfeve/u7/QhxDmglaDxzxstP/thghzjDsQR/c9LPP/bHExqgjREAgw38PrfXXTYFfQMsgY9+8sACuv73juPfPfcbRBvrNmAEChAAHiCgy5q15EAfTM77wiPNWb7XOrji8QRqghvrvvrvghAgihtvB3nn8w/+rDvSzS8u7fGvMEBTjjgv1ZwxvB7XEP8ATjdsB9zrnPnb7X/FyfpVHHHz3583UgD/AM/uoEscscJlH2yZL/4OCw1JWPNfx09MNNFMQlBRDGeGAMOhUYAyi6iOcWKGSh3/AMEsrvvvvH//AOQxIPN4r6rKL6JLy1+t/wA/12OGSsOse8qmIxZJzAsvdrR8DBlBRtNL90c4w9EQ99QP6uA23seYI+YzExBFPPd8p8ZzND5FNNNzgCKDDACjKiAA++DjH7CAsOZsc+6JJCORxhCGzzrTBRkEVBw5/Lye/wAikmiy4ffecQQUMY4SBQhAgkcebevc8+LGIBDAhR3BitQMLhLrjgBobQTT3384AHZW8ff+BmNa3DjPAnRQDhhgmEyksg4zzTTfL8sALrrXfMqlomAgj5krxeAVTQ7P2MA0fss5zTbXec4MfB7iYQUacwUQTQTUEksJDOs+sL/+6kusaZfTfVfPcXWdWW9af8UQROaKkKWDLSJRUaU0ticwUMIAS8gPD37SQIbv3/8A9YBIgLd48MA06TjOWEtwB8FXMPG/vlPPGPP/ABfubFBiH/pFd3Lv1f8AbIXOsITKjTK1G2VtahCutcbVXfbeZHLzc97TRSQgxT28ef8Asy4wxHB44xPc9DP7DGOXgU7/ADSCWSzDCgiTieje8+uKe/zmfGIACzBbxtJ/9r/zvCABDFV1fs+iCxBRLXdNNPm8QU++A8muigoo519Lzf595V9DPJF93NzC99/9ud75gIf/ALzh2PPkgjiUQ0TgolLjIoWQ5ihnrvhktPfvvLHMJTu67iKDigk1gY440Vf/AMx/3vlBIKMOEAEf/wDbISRAgXnVg+kKIwqeSC2o/wCYw18/fWcJXTRTBzyXPffX9fcTEc85wgjD4gkzu9jggk6xTxDRIlyplPMghnr8aLf5XwxwHTz+a3KwzTff7R35Wg8ZQYQQQBw1SVEJfYVQQ9ektQRtYhuQG01KgUddU8wwQDGt6wUw9trfffHcLcDi9dEQTDPXyznklwEsokBjngRcsiuqqjosBXfRTNMgrm+yl6o4xr4c4c4zzwQyzShA5wRQQQQAQS+fW798cXf7TYCsMilgsskiQdpivX2nKrEggw/xTURz8OwVUoQdzipxiABTvUNvjmhHPixjjPPLT1auDggs7w9RWuwNOcuFSxn7wwiy065XfyQURMKXWXKXTP8A00ECE33sLG4Fc9+03u9Kov6LqJujBGU51E7Kb0VXsI918sc02VEEFH+nlNZbADLKoHDF77/Dy4oBykELTwwjDA6Z6wh2KeAQF8gCNMcPvO0W7EFHGEE1fkU52nPPHFPV322+kNmwoEf8882JaCxizz14BDY4jb9oMIyp6db7/wD4C1pjHhLHcX9//wCYM7907DjUFZU5Mtu7QKABwzcskNOFDPMIB3erhWYEb9+9Tf8AWz/5+7/nHP2gFO8mEHvu/wB5t8+HDBBrKrB9z39FMBLcpP511M7J12K2+M0f+haelNV05/DRQBTJf9xCChznDAb1NfFr7+uO9zJwBjCTT8+ICIKyw934ShN93fZJRpFTCLR9tbDdvKbzBRl+vPRxfHNTBhRjLV9NN9/kCmAwWMGN9R/7xlVFth5jDRoA1RxBLaRjFZOAhERh9w6pjrHYzD0wBJQ872+NGMNu89+5ymCMZi6+e6UOcONIwkbGsBFjJhW9Z6DzncNDPO6WDHDCANBB9hDTV998xipT6aZJb5uzbwtPK9PPBMP7+rFzkPPJNzwNFEd+OYAZEAiCGKBTuBh3sJBCO6yu7zyj/BATjNa1fx3winTIPagYhN9PHDF/z18vI7/15lBOzTnOKDAXtD99ttN/rR/TZyGmufDhd/MSKWjN9tFpBVNpV7kSDFNxtXq0DxxKOQBBSEShBBfFLDA05zj0HZW/tVtKCyWSiTx/MOeu8BX/AP3AEC73cT4tKV//AOnU43zL+kNLC0ELLT0UH73/AN/9wj1nu+iz++WX+uXPz9lO9z39fZBeuc9d993+NBQcpTjd/TvS0rcQxTgCIgAO8MY0u+/ZE+msuICWqv2MH1JL7/25u+++vz+54x2yp1NuHJ8wLN8GblDEPd1vOPDT04AD9mFUYgV08MyYy/6n/wCf50/7ec5Q0cebQcf/AG0wx0EElGMNbzzE1nWI4EBKqAjIJPIIALyZRAptY3g+gEOPxU4h6z7730/32/8A9D0dr/pT7jHRx9hBvK1td/8ADIM4DCebkvQnjnrtvP8A4hGCmH0tPPPPW1kJCG1MUnhUwD30yB30MeMMsHHX3wwYy1kwZc3HH6rYr4z4738pK8gXfv7UHv7AkH0dTXGgA4hGtvX3rWPWHHW/A0HkEPOCxT2R3F3+k/8AT92hBVdvKDT99P8A/wAMMM901if1EMYGEzz3GcVxwj492svB7Gy3d321nHP/APNoSn8mSye8998y8Az+N8Txyicc/T3V8sgcNrAw5195lHNDjMl3XtDHdiGfzj3/ANefS/8AjQMljnXne8cMEf3H30xP01NEEnl+MJT4iF/zwkVnH+40EKKHzLRJ3nM9HOIVw32fuUfnEOf/AHrC+58JhvhIMAGaGhdb5PPtBJAxvFySkqD2Ca68LLBhHtOb3t9P/h9J9P8AKNZPvf8A+lCA09X3xvkH/XL5/wCLFF+mdu+mHx91/wD/AK+ENMYIYKIMt93EYUF0+UR/8MtJP2s8ZH69+yIDCgHc9sdLnI2MncdBfdPcU+p0k333/wD+5JRBBBA114pxoDNS51cVT9vdtPu95R9/zNRzfwwd59dfvd/1tecqIz3+yy31/TghBDj/AJz9w36wRGQkCVPk5Uc9ejcrv7c+tffeUZgh8QMMe97/AD/7/dP1CAEc8H/3z0w3nnV20d3n/H33z/vCXnTQX3//ANtNBw/pVv8A/p/adoUKVf8AH/3za/8A/fd9u8wHBB2jFVhuPl9CAd+eTGYIgwvCwMwg8d1az6u1eflHcZ/7R3fqQ9oTjCGLBAxR1/8AAANjWZD0f/dvsER9GcbXXTYswxgB25TTQV51e02jRjFLTff5PW/ffNf7X4OFrAAdDvrjnpPpnqDPfZjig0w/GvTTAfPsJv8AO94Pv/8A/tNT3x16yRqThZxP94x1edwx6/x1Z933tBNNPr9/bV63rDx9y28zBddtNLMd0914k6T2V971999//wAwPDzskA7TadsrzveQAUQzz3zbTc8wki0oh0ZDTmuz/PtveNedPMAYsU1xrz6/vjLDQCRncAE43OuxzzzScsuQYYX/AL189UPr4UsEg56dXHJx2ELGO8d76JeV1/34x0jAEcXz219P029neM3cOFDMV40w8cz2XtILIJxhc3efjwt8rjtPRoLNOP3gzYE/zGIJXv420sdDJJfss/09rDGFHXvfMU32+osqBzz+s380yyBgIFFH574L9WE88dnbqo4pu92vTf1GkvNek+UXhGwsFHXAH9+oU+5MI5PMJbX+v/Lj/wDLjJx9Fd40+Rx3f/Jk8+K3dJEevbv9byt0N1AVONzzzLzzzv8AvrDAT2QUdeYziQdfTfRm9l+wV3TG9anfy1bc+sneSdfeXdXVfTii5370LwR3+gw0wBEkqy49cF9POcxGI0YxLTBa0UZDhFvngHkO60eQIsZhDXQMA6yErmhRTBTRfMLHfri88zQQwxCgVcabiZS7Xu/zedbSyRffva7A/wCBAdLXnON+PPTO36ppDHHPuS8bsPXMwUAHy077X+3HtsPzjV0VDa75orIDBDDPXH0UEnMz89GXudIBKIILzx/Fzp2//DDQ9G0GEGGNfxzIA5KqqU9H3qEh2FyD66rb8rf3SssEd0EAOHbf8rZ/zrN4ovCI+4+ssMP/ADZ937LRxue9zznDSSGQ29cW+fd316hAh7Bfzd8gBisM8gADD49/+0//AIEM9YbWRTbTTS9vTONPPBIyg0dBVvOstPkEv9+e43/9n+zZHo4/7T/Ze5kJ+Yb7Ow4TD6AJOqhv3/fBUNf9/f8A6oIKGHnn3b29o80s+oYEsMHXxwiozogY7CRT3z65/wAMNs99fdBzBB4LA7lt02JFwtC/sQujBjz+uqX99q/9y/8A928U8zXT9zHffsgHshEAgDHbeOnfvf8Au8EYP3pIwNOBfyfMYjM1INF0rS01320SVV4pbCNMEDhB2H1nH3xhzSzy0fSiMd/DR+UAFOMMcoBRmVLrcOPiKWVjlX0uegAH12UjyPXzLXW+/wAy0G+7FrCWv7/7E0v51x1xpbjX3xwExjFAhDTB395zxx37f8IpDFxhD1MCDOMBhDoFZ08gCY0hBVc59scU2CAEMffdziSDBDWOOBx7jb8U88OIlDG5y3R5f/e4ge8//v6uKT99s+mPfpoN9O87y+nLv5hJSWlhxpGPLDpHKV2RUK/xWWMHKFLGJB1IAW/sbnDBDSyAGdLRwRx97/gKQxptpBHPLzxRws2KAGPu9v8AqG3fQAIbGN7VlfDDV3+v9tzRzPpTIwOfPcRV6wz2m4zXuAN7ffTyUQVvTa02H3aFPf7yTvDeaU+x0w9Pb/8Aev8ApznjExjpL62/RzhQhFcZDLYCCBPd9t0GASOC2/wa6+uU9oIz++xB+neuDwPf8tYall77zE8vfzTzMc0JCDudv/8ATHLXa737fN/8fS2cNqIQAS5yZeCbzr0h50xQV8ox2Q8lvv8A+9sQHzv10neAIUhHcbmoCFeAY6DsQ4ke8/MhCPonNEAHsMDR3+gS91fFhbfioOAlbzyYvO4LtS9uIgHjO/g2H3R/cPMP3vY5PfdtEf2PvDD/AKCiKZHN6gTlskYR3/6zdzH7PbxBRkMGu+wFJRB9Aiy3z059rjFe8iy+Ne/rDCCw/wAld/t2wmcbhcL/AD7okX3zShsNOf8AN1OGuKCKNEfBBGJMNdP5/q/73+/9xxhpQFJRxCqz2gDDHd71qpT/AM45gJQCTSSKAQUx8oPQRQz/AGboY4w4uMMKZT5i5peSgG3OIgEFXlb8HD8tAYBt/wBC5x9Nq/33m53+5iRH99iiFzpNP2/K+/7zwM9DDB9PNJBGb9jXPDfPOPihgf8A/JPPvv6XLaS5vh/z3X/Y8Q1fcPwRgyUQ0zizzLNSQcUO8RQExxSQjF+RAz/7WMMl7vK5bMGBv/uHFZ+7v++XUQ36wRz8cQwXPdM7CvLbSX/a8/8A+83jPHFzL+v5vzhb65y7oM0b7oaFgEMEEAtDe8IhEDZjwnmbRy57rpZHj8f+0MYlHf8AvxzOc+NoNA1DHL752El/999PTBxUM4kEENb/AKBHEJ86fTveb/ApjGsMex/88z//AOcVHQ1218AxrLPYDn//ABV5pS2+xwARx1BRPNnnINtxh0953PZV6vBPlNOT/O8fHbvCke6/9lbyfeBD/d/Dg+e89fDiAcfgCeACDDDDADicAgCCCAAi/fc889hhBg8Ac/8A/wCP/wDhhcCDf+C+he8A+/fjfje+c9BAjDBBBd9Dcci9hDdiiCjd/i8BBAghA99cDCfdBBch99//xAAeEQADAAMBAQEBAQAAAAAAAAAAAREQIDBAUGAhMf/aAAgBAwEBPxBIgkQSIQhENIhCEIJEIQhCEIQg0QhCEGhIhBohMQhMPCENYhBoSIQaIQmEhohMQgkQhCE0SINCQkQSIiIiIQhCDRBLCEJiEIQhMQg1hSlKUpRsTGxMomNiYssuLl+ZcXshf5maUo/91Q8PjeJ8bmD0nJsbEJiZaJhEGsopS+pYpdIO4hHpGQSEsLDxNZtMpExCEIQhCYawvFlzcMWkzNWhuy89l4UUPEmEww1MJ7XC803hCEIQgkiIiITMRCaQhCYhCEJmExCYhCYhCEJicIQhNpxiJmYhCIhMQIg1HvOS7L5l2vvvNYYotVi4os3NL6aXWl0vK73W++6XNKUpdblRapcnpcXNKUpcUpS4pSlKUpSlKUuKUpSlKUpSlKUpSlKUpSlKUpSlKUpSlKXNKUpSlKylKV4uf7r/AHWauiuLheD53Mw+CITEIQmEiEIQhCYhCEIQhMwhCEIQhMTEITEJiEzCEITMITEIQhMTM8MITKEFznJD0WUxi/OrBZYtFhbwgswhCEIQSITelxdX+PYnosPy0Q/E/hT4b4v/AAWiw8LF1pdrilLhD/GvxsQxYWtxRPEILFLmYmZovE/wyHiZYsTWYhCE0hCEJml0uV+eYhYvkhCExP0Sw/Lf0zFlYei2WLzn6JcHos0vBYpf0TzRavMJmExNG9YLK/PMSIQXgmIQnK+u4pfuTDFMX7jxeFKUvSiw9KUpS4XnuGJlF9ClwxYuKUbEPCKUpRZhCdltMQmF6mIonl+ViKUpSlzc3x3KxCYhCeKE2WsxfSxYWWLreLLhIhMzMJpMshCE0hCEITDF8G5mb0XN4gkTwTeYYkT4M+C6JlLrSlKUuL2YmIS9U9NFhc2L0smIQmJpCEIQhCdmxcL5l55hi1Yt153i6XlS+CCwtL52LxUpSlLhiLmlKLRiKUpSlKUvdkxS6LitEPmxC2XnWl1uLvCYSIQWEMmYQRS7NEEiEJ3WYQmITtejELS+1i3XCE1WJrSiFiE0WXs2LzUWGLFG8rkyCyyE63P93WrLsxdXvNFsxbUpXhei4sLhEwuTILnS6LE4sXqYtpmbvWEIQnJdoTMITs8TVaQZPA+VL4V0pSlGLtfHRbLoxC5MXSl6tiZSlKUXNc3os3vc0pej0pSlKUu8wxa3C8dKXlBIhCEwul5PFLqqUXd4S6zSEJiYXBi2XjnO4m087w0JMhCEINc4Qg0IhPgMXB4pS9nonhZYvgTg+zYhfBYtHpCEITvCEIQWWL4jF4WhC+CxC2XvpfBfC/E/hsS4spS4petLzpeVwsrm2Xe938Ni5QhCEJ2mq0ei4PKZcUpS7vNGxMpS4pSl2uLvPI+bFxotaXwQmrIQhODxMpEJhLg8V6rEIQmkITafCYuDIJlxfRcIuaXjMTL4whCEIT6jFxhCEJmem6LWsonm/OXoYuFL7piEITdlxSi/CsXFYpcUpSl+AxohCCXjv3II/o7iYmIT33tcUpS6v6t0m8J8V4bLhMpS5pSl1el+svowhCEzCaQhCEIQhCEJifUQ9X8ylzML6N8E0Yh/SbEylzSi/BPC6XlfiNZSxCEF+CYhi0XgfsX4ti2nonieaUpSlKX5y8awxfQesxCEJlfgGL6DzOM/AIYvoPVixRYpS/gGLkvk0uE8TZffYvpQhMTaDXnvyWL405XNLwX0mLsxfHnB9aUpSlKUpRfXYn8N9Hi9YNYhCDQhfXYvnwhCEITMxCZulLovqXDF8+9WTjBeVe+EGL5z0pfwF5P6LZcrL+uxaTkxaLe/FaEiE4L6t6sXOeCeulLh/cW7Fm6onBe+4pSl0uV+BYtFrdZ4n4JiExMwSw0LsxfSYhZXS+1+i/YYvBPx99zF2m8/Q3dixMovG/avzGTF2X4S/OvOfEXBemcoTwzxQms1eixeN+NfG9qUviXhu9wsNiyvTeN+Tcr5EJovPfxk9TF5Zyu8+TCE3nxWLW9GLrPDPfS+VeBaLFwxaPWbrZ8b+GXoYuF8EJuvw68sHzXC8U+e/oNCxcoZNJ9xfDfjYsQf5O+Ri4Lk/Deq5L0X402uF1eXwfO+eYhPw64LDFrSl63F880Wb+ERNGIus6L4i8l+EuFLhk1Ys3SEwtpmlxPTcInW/QukxdHo8wndkJxmWLZYm08twuC9d8j6PlcP8i+s1YsPZZpfZedzfNe11ulLpfO83elKUulzc0u9y2UpcXSieLrcXS5u10pcXalLm4vCl0RSlKXFLl6UTLil0onhn//EAB4RAAMBAQEBAQEBAQAAAAAAAAABERAgMEBQIUEx/9oACAECAQE/EGyjYnhsoo26JspSlKMIUpSspWJspSlYhSsTIbFZWVlEylKNifLEylKUpRMTKUomNibKUpSlGylKUpcbK6JjFaUUo2VlLi42JspS7S4mXFKJ4hCEIJEIJIg0JERENDKN7CEGhcUb+F83FiyExDEFjZc/whMXDFsGul2npYub1OaXFzRISLKXKIuUuPKNjyEW0pCbdhCEIQhCEILlohCEJihcbEyoTExhhY9uTFlRUMUxMqGy+VxDRBInExoSIu6RYxQTRVCl1MSceCBKQQQQIGgmsaGsvhfKj4YvRspSlKUomUpWUpSiZSlKUpWVlKVlKUpS5SlLqbKUpRspSlKUpSlKUuUpSlfdKJlLtKxvExsooQqVHwvND8lw9W0vbXjPWfiv2vCGQS/p/wAh5OFk2EJsJ6Xzm3p/DO4TJkIQnMJkybCYlkJk1IhCEIQmQhBoSGiEZMQ/84SkgxC9YQeQhMmRbOIQmQhCbMhCEIQg0QhCEEiEIQiINEyEIQhCE4mwmTZsJkJkWwU8qiocFOXj8Fwn4TJkEPbqyl2lKXmlLtyl4uUpS+9LxfWlKUpSl29sXNGxPaUbKXHGExCKXFl4guW8ZdRMeJdLwRcfDF1fdfAh+K8WXh9TWsmiWUezwpeEXhPp+a+CcLm/HOn1OX43JzS8q0YibRY9fE26/wAledLxeVix9T3hMhBcMvKxYT1vEupqH1CE4Yiet6f0Qnuh/BcQ+FzCaxYhonEEy5BE1lGQhBIe0pS8P0eT65+K31PJFGInhS48uUpdhCEyDx4+Z4PwuTtfFOr6wnE5nFKXmbBIg9fC14idXql4vnPmvF9KLu/DR5ReMxcofc1E4nM7mLV5Xtel873fifg/BbOpqGvCExImvJi8KPH818EP5b9E87zMhB9LhCaRVi4gtomPhlH5X0nx33vhOb4zml5uMuUQ8g9vN1FylFs2ayfVfC/LeoTi7CbPSZS9TENLL4wmUXdL1S+yyeDXUybBEx8zwuQhOETw/wA5vjS8QnFLhtiuPEQnTILhF9p6UvSJ60Q0IhCdXpcpbCEJ8MIQncIIaIiFxZfCejFwvF9ohCYh5Nax7CExD25dhCEyZMWMXFxDfD4hPG5Si5uIfmpe3xNRCZCEx5CEJjIQhOILqEEh83aVeNLlKUuouLLtLVlyDKXynSKUvCZCD1eCILzSHkJiKPaUpdpeqXmlKXV9a1aicPUn3MvM8Eso+LkJ7sWUTy5fBe74g/tWTZsIQa1bCEIQhMvmsY2XLy+b5LaJ5PCeM5WvF43Jw/WeFKXKUu0pS6pRspcnNxasYxE9F6rhec5nNEPFq4u0fU2C8Vn+DEJE5Q+4IfnCcJ43K+ddXKXhi5gkNE2CGQhCEx8QnhBrF5XGJlyEIiLyTg3eZ2uEMbIQnM7foupkJxMuXEJlHBiHwylKN5CZcWraUo+Xi5Q8RSjZS8zJi5g0IerUPUxjxet8VzS9XiEGTil9YQmPpF1EITV4Iu0vTFiyYhkxIa4Tl6ij9psJk1iyifqvBelyjfhCai5CDmPwmpeC4ZMgkTLj6vCKPznd8UNbcWPFtL7PpZdYsnMylLlKXu+tKJlLlGy5Sl4XS4peXr5vN1DxDfCxDyD+deMEPpZPG+C7vd8Gy4xMQ13eEP4YTlakNCRMhOl8UGInM7XavM8JqGIQhCEIQhSkGhaljH4zZ5onD5gmMQhspcWPbzSi9bk7fVLxD+CRILX5pl25cuRE8X1fmewnE7pfR+tKXilH5XUxvi+M4vFKXLr6XghOEieU1dPUP4VxfO+CHj6fb814vzhBDF7vF7eLq7Sl1fK/RFxiJt9kXym3ijfneUNlxZOmXU8vpNnU5nlcvwLH8C9J8yExk5urEQmThaicLJqVJysnkiY+F5QmTwnlMQ/JfAvBDydrKXaQnjNuQUQ2uVjnCnS2cwmMXTxEIQmzieKH5XmEH3CcrHiHi7g/guLm8XKUu3tDYhzKUuXtEITi9UuUperwvVk85l1DxZeFkJkWzH4T0RBr1pS6upqZSly/FPdeM4msmoflcpSiL8a5byEJ3CZCbfFfMuJ6LzWvbqG8mLxmX6KUpe1iHkyfPPSfDO34oQ+LyyEeTZ898KUpRMZSlL+Chl7uvzXcJwhD4XSmQuXKUovW7fOeS6hPKY/Wj4Yu54zulHwhD8aLLxdgvFczJ4zqEIQhMZMhCCITYTp8XF53bqyl8n6UTHi1cPbt/CpconlRS8XaUpcpS+s+GcLuYuV0h/Ch+M9p4zbrxD+F+k81s8b7tauXs8pwvVeU1DIThIn3zYT2vb7uMTGLpD5Xtdmz1XhSly+bF4L0uL4ITblJxdmoa5XNL40uzZ90xeU4vK9l4Li+j8Uh8Pm+9+aYh5CEyEIT8Ges7mL0Q9u0v5inFRSlyj/UXS5oh9PFk+N/EilGX9t/AfFLk815v40Qerh5CEJ7LpauFzS83m/Ch4mPwuUvMxYxZNXV9WLmEETL0/mgsfE2E5mUpfW+CHzMhMhO18axdoYil4vdLr918K1e91doa+WfHS+M5Q0uH8N8r9LFt5XCH6z653cu3xeQmQhPNfBeHiHwupsJ4oYxcX5b+E8pSlKXX8Uxe86pOVi26x9/3F9L+K5ce3udXtdXb0+J6QnnMRSC9V1O58i+ClLy8nU/Gvghr4H8U83ykQn2r6Vt7nUxCHzcWrHyvtmQW0fM+B9z0hOV814o3C/TfJely4v033el1SlFibOKP0nyPm4uFxPzH50u0oh9ofS2+r4hMYvgmLEicTJ+fOLsJj5Xb28snjMXlPipSlylKUpcf4r975QmJDHwyl2auIPwvD9Z+isnLF6TIQnihvlkJw+2LqdTu/fep4rJ8r6XF6QxDXlenxeqUva+F/gL0njSl8oLi6h+U7mzbxCfasfc8n6PtdTieDLxO0Phel7hOL6LH+SuLq4XhfhvSGTJ4IfK8n8M/CbE8W3ZzO750vd5uJD29z4oTynC+C93wvEEiC8r4T4Jk6ghD5ntS+lx/U+5zS/W9nM2dInaY8fg/KbOLzPxYTZxfuXxmUu3zpO3xPnvx3hiylKUpSl8GLxvN4pdWXqYhoa6vkseMRPivpflYviXwvwQycoeQhMROHq4vN8n4TyhCdT5IQmr0Yhi4mzlogkQmofSQ2PleN1F6Q/lXyLwnlfpu3lDFsxPl5MvhPBFHzcer2eL43lL5QndF4LwYiEILVk4uJFHzRi29vxuv5GTwpfFcTzur1nhduPq9IZcvK8ltxfjz1mTzvM4XNHk6WPpi5QyCJxCY9vK2E9l6v56Xl8XtLyWrzezFtJqx5e3iRPNc3i+S+5dTheL8H43F0+JwmP43i8ri9KL2ftenq1eK4uzueV6SdG3kJr4XT5nnPFY8nk+F9KILZ3ebjfFy7dnN1YkOEExi9VxS+E5fU9Zq+C+a+GEITZkJk2+SYx5PdeFLqH9iHyxD6nlMXT86L47kFaNDFzOX53u8TKXt+Sy/JdvL8J4LV4vil6mIfEI9m3iZchNhNhCdwgtnE4hOp5zp7Hk7fU4YthOmLxmTIMnBkJytmJEyDRMhCEVx4kQgiEIJZBIaILINCQ+IQmQmQaINEyEIQmQgkPEiEIQhCEJqGshCEITEiCWJIhBomQg1iRCDWLIQS4gkQgj/8QAKRABAAICAgIDAQEBAQADAQEBAQARECEgQTGBMFFxYZGxoUDB4dHw8f/aAAgBAQABPxCmEbvcBSBElSsHiiBlEqJZKTfYR0EGoRqViskrDSRIATdzbTiRhVRKhS3EIKahpwJFmrws2mFlOQSNMQrjcVw1crcZVNkpL1FiaqBsmpCMUBIS6JSGUwaYVBwDNRYuBdEarpgAQDAU1KplACoSxufwmsVGM84IDSBLARhSVKgMAkeMskq2Ku4YpvDCAGBL1NRDYyllalcRALpuVYbUQjxIEokIQJZL4O+AxwPBCCOhooWeFmFjvNS51BZVs7iBK0wbiQq0iIDU2w0SoAMdBgd2MCDRUeBLiuLwhACkJepdOBIhCrlWEYRvAbw1UWIRvCopdKgpCVKAIuDRBKjWFMFRRcmxP62o7XxSRVg17IAQ8SwlMCl3CohWoARB3ABZ0VoIljRqoEYs9agPmCCpdIQFApbAjKLhRisGAhUUjU72MtZ1xsrLSSq0oy8OSMBjDjUrFcRwLjFJcTKxxvuK9kdkSCiIJcdNU4tIzc3GBEBiDRjqLJKIVAncGbolNTUUZRc1BNGVAYVRZtCUsbZHc7hJ5UEA3IEVAViXMukmliQgrIajwYFwhgNAwMurRQahtS9VHwsC0Ta4oUlLtUMUxYkXcIQJTLYJgx3kw4JblYxYi4KhuJExlGCQGou42TVzsY3cLxvAy9YEqaIykMlC4MOG7iSm4wFYEWC1B3hcCzplNwvBWGErdEuMXFkvV8rBFRBgGBdEFBi4YvhcuXF7TI8SooaIMbYBdwCKAkA1qXUWyDULCU7biqJAAtiSp2QCVgUHBRIJdR2iCUNwK1GEC8F43NxmolGWorcvDQdQtwdYHBLIwOsE1glyyXcIWy3BEKwTeajFhmjuNuiJGMHlity4kOmaoKS7LY2tMDcQBjJxS7IZGCMWoQgsYabAlySoSwsiqiIYvsMKohKHGNwqqXtltSrLI4Nj9MognVwaw4BbGJ4TxoV2y8MDKZr7xrq0CARMXdSmmMVsUJG6W6ZaAhUCELlwhebyMExcI+Y3hFYJQhSSEQalWBLRlS2pUYOXhVY0kph4i6bhkj5lEKLjFY3PuABFxuoeYoVi0SoVFhKblIRWA3CqiRyChAgEUvBQOLhKxcGEHFy44nUDKVAooiQxZcZerai27IVslF1EQ8EPE6LVsswgQhjKkCIQS5Q0s8jcBERJaLi0KlajAcPiOSNy4EYssjNlBQMViHjFcKIDkI5YYsGXCpZm5uXNxisVCamoypuMTFIBUZsOCYpWBVFiuDFwYJUaqEbDFRJfSJaNrCIQE6mCwgCjCvECkQBpgPFcBwYBiIARXgLcZJRG7hUFxTuUQH1jBgCimA1UNFwP0O70RbgCJuAEuAEdWGoIKYNmDFP1DJmzDLgxdwZcWOXLQYVVRW2Hc0Ra4DFMJKIxMMuDCQdS4JLJu8XGXxIyiXNwIRG4XgwWEpjFjUbjBgWGjHuauHFeBKly5cGXhZZCRcKz8sD0wSCDFEJB8EoeIGLLuCEQOoCMFmIEVlIqJUXZLLi0q4ySMXGFTZLixcVEgMIpcalMH4FNtVFOpX3h5BT7VHrUv1aPao7dT+bPHpj4FQKiihdiBClH6J9gxH6h9ERi4jKlOhmpSkqVhKGVReCVTTc3cqXC53NMZUqOGJhljEWJRPKpa6hNrA0kJcIMcMF0OoTUhL3KFITcWWRwMS5ZDh0RVHCtWSlMQFQCJDFmjDBBeQiOmIMKESbWMTQRKqBvCikFgAhW7dIx/UM4F4If0RX9ZHiQRtYCiIF5RB9wKaBCBBz0TYzSzcuDjuLceDwAEQlC4VYwjNrO0GVKlymUSskqyJjUcKRGeECA3itxCOQRIYYGABcXvUqIwPvFbtYSmvESKTUSPapAUqWMcIsRdiQspAlS0GyEFlNQWXN4Bhd5DTdMWQiCSxQiqaH/ABiVJVrlq4dFMaQsIKFXZh3BpcQElrFBAItinEq4MuFOQViPBE1qfdBruCjcAECgDYJ/GU+iKdT+EoXoifSADxLiz6lfQlLolHolIqke4QTrAukv6J2S95jV4w+nP45s2J/NH60vKpF5+4ymSV7Y1R/GGH/WbbtnduL+FKoO8J7LT+yf0x80oYt9ZZL9GHkrHz0j0wUmlsh/ePtxsKlx4/1OunuLtXvC+/VDDXpju/wM2oHudsPcoju0+pw6k+4VWufQmP2YXWSMbTiphMdww3CvUL9f5QJC9QyTs+6NUfqPEm2p/nC+x9SkUvU35LySR5f/AAnmMtQD1BGm9QFonqLbplmiAUQlEytwEagWk4nmIH+tT7KFt3n1y2hE78otQG0L9/4JHvZ7jur0ImkAFv0IMFmHa5Xu0oecO1w6p+2A4a5qkZh8sFM90jkfa59UVz2xaeOO3oy7wlUiuk9kEAiHRFGBa+595e59X+sv8f7TZsvcO+X7S9wquj7h5v8A3nR5w+le4/y/sH2eiw6YHbZ7xn2yO0pS7X0zv/zGHd7iH/8AbJ9Zep1/5wdhv8h3/wCY7v8AE27X+Tfy/RDzQJBIO6B5J/fH7f8AaHTM8EDviff/ALn8v9T9YTHVO7c/RGzcDsgC2Q3XJ/8A7xHs/wAYf/lT/wDajwB+iB7BF7uH8MPrQQaw+kn8iK+iXbQn0CD9CWfU2eI26EPqIi7lPqboWbfGfeIXSIn80XdSVWyV8+2P/oqPICdIk880Z4h4PvQLoX5DNp/E3X6gyo7moBFGCDCJAZUdFQhLYkFRgCBuKxXATUs4h5URji8DismLxeBY3gZeSLBizctxubgtS4rLm8WkVLVBaipLblstisGDFlstuWiy2WxXIUuWy0tLwVqXdWEQXFp4INSyy5ZLYqy/4Qi25ccai2zWCNwSXbLZbN3i5eNy0ILUtg4WxbLiwXFsuXLltwWN5pxuUkpZUDFRGUy0tcVcYDGIhEXFxZcuWxWGLXNTcViQNRHDFysGbwkckuErhfIZvkRl4vfC5XK5eblwWXLly0tcongg4EQF7KpRILKj5wsWCxCXCFhMWsom5ebxcfM2ZXPc1/eA7xeR4XDAyzItPC4YMDnV1NcCo4vFcL4WRqDy1kTBGFY64XNVlWWy8WS4MvF8NcjBgImEJuXwuXBwMvImLyMsl5uWVFlwcDLPEuKMWXBi4SMuXBgy9y83LiyzNxZcXAxcGXFxcLL1Ll41m4Xi+Fy5ctvFxltS8DCUw8byYu2am5bwHIk3BwRjupa2MshF2zV1hCpbcFZqo7aYMXUuXxCayM1LliXO81my8Lw1xvFTvFxezFy3Gq4Xi7wS5dE1xGKQxZm5cHFy5eU41CXBy5sw+GGEwcy5cKyYMHnA4vLxvBLly9wZeLJctlxWWwZcvCyCS5cZ2Iw6Qi4rLZaZLlEhExbBhgZebly5cXFy83jeDDyHI47+G5bFhgKMbwLGXL4i1hhytubyXHp/U7EgMHFuFl4ZsSoMJDxhdcDCkYMsmuAYs4XWLMXwuHC4kuXwvFwYMHg43iiAxhGbxqGDgy7MdXLi8GrlwcXFzcuVmsMrcIcDAYYSoHIz3NVhe8Ms5Xm0wMuLLgsuWzcFiy3F4tly1l41hMJFwsqA1XDrJLqMHNy4qXFwgZeFl5WHmMMMvLheLDhsgzWL+F84I3i+LisUSnHZGAmsC4WJAMCwXBwksJcvgxYsvcWCkGCS8XFhFi4G5cvN/CpG4LcuXi8NQZuXLl8FwPCyLhcXm5eN5vAy5e4uLxZeSuC5vAQxcHFTfzjFi8ybjcGWxWWuL4jCEvjeFYqS9QZcuMalsJUqVKlR4XHjfBcJKl7lwTFy3FdrhweM3uXL4pLgS83CbJeWDKwsHCwYwi4rCy28VKwGNpJSrzFxcLze5eBtYCoONCMEIlykaJSf2IkblR5MCICA+5VZWIuJO4SSsDAmIEpEfcpKVLlkItCKREUgkswuXFKlLjgIBcQSyAl4XBcDLl4uXUsuWQSEWCMsZfEeO6wVhcXyXjeRwsvFkuzA4uDeHF5cLBl2RMXLl3LlGTFkGWS+C8GXLjxslkuWOCWxqUcu8aHN6TLLg7l7iyyoubolpAwTAoS8BKWWS+NkuXKYWS5cCYUlZT7lkoMpLKgO5ulJZBPuMEME+5T7JRqkR9wRJZFLg3i2WVBYuCr6GEuLhZc7jcIdQYu4IWLtCCGJiTRn0MQncMsdxRu2LSDSWe4hu4NRAO2W+49VsohRDvYVMLIwJpaCIQ8VXBzcfwlEPNafyY9aPYMH5piiF1ao0QizV4iVcQjBW0qCQP3AEpKQHTAQH3C64r5sn2MfNG6oTfMam3ED3PpZ/YhRYJb3D7yHaIloh6kmi0TVoz6hOhSbDWdNYL1h3Gfyw+8j3iGqo8Ok/tBeyWdI/YQ8Fk/pDrSWdkb/ACS82Ju0Id4hv0wv7ES0marpNXmMfuE3eSPeJs8I2GyH2k/ij0CAQEtEH2LEezDq0k+1jI6hCaneJE25R+2EP6Ebrj+kfujX5n3R/eJ9w7FCD9s+9WJzcxcbYQJJ9xky0xaakNNQulV1WbIH2Qq0xohXpiuHtWacJi2RdgW3SbNM/sYgK5vxJEa7xBUSWVSM1lYr6YwGWMHAyYUfVGZNz1uwLwtbU/tFcH1sIFmBsJU+Z9yi8sISjgNGmDdx+yET7GbPMPtSNHlgEM1ldNwk3bhrABWLjCUSorC41LIwMCjRASepe8oAYupvB3eAIjyYMSpaQCAVGN2SzBRcHFGEEVFpLQlebYyItE1KwWqCLAZFWTdDEF1o9mFNJBFJWEmYn7hzoIhzJNt5IQktuqjUaVBoZ3INEKut+IF0QJtEFCX4hUgHbA1Shc8nU8mWiL8N5awEMFcLVCURmsTKgUxFQMrCWg1jU+5syLTSlClY9RQSlMFLDFuxQZ3B9s0thQbgT3AO2X3thK32z6FLXH9p/Zn9o/YwX2yz3LVVstBfbB+LRRsWFRti/tZStrKQNwpKOAINSsESmRrdrASmFLJoykrcqygQEpAZUylyv1KSkoQER4JV6YF4IQiUlSJqUlY6TSWUjQ3CpARsZGCkpiQQqG2jAcdSoOIrxLMKvhiGGgWlr0QY7IuW7ge0GC+peqtNnhh9EegZr8Q+uPnCKPiG4QYC2OLZ7sS0lkWS8vLy+AoyHFPH6sDEpCTDWVgYEYzd2QuK6hlrjAR4j4uDZLLS2VBjSxoxeDaENAQNQbYTyxQRqIiIIkUVALhVWMDSBi53Li4+wSWzrCs3HxgPVf1KqzcmlcIwLwxgkHb+R3hhcBbLUtWeoOwWVlUWn5G/8HqiE5pIuZGhEzah4yA6gSVZdxMhFTGjEdwbyM/kCK0xR1LC9sepRFXYgjaf/RLWB6O6iVN0AlgTyQujModSzqP0y/qGAt6n1ksZ00YUYFaRFhNlqqMWZJzf9YcPjeTdKTZA3ZGRiv7YsiRinHCRgYhmScZt0SzKasZFnSGYkWbJaxifTwRYH1kZ6Jb0Qg79E6awsf5R6wh9ON+kwsG0oI9BOio7KMNsojD+BD6yN88+on5j6QiPRP4GGk8EPrJ9JDGvhqDzTAeiP0SjqbNkPpJ/IhD+McibvBHNQPqUiGUtgZSAVhCJKwBgvFE3KgYrFE0YTUCJg5LhxWQOBKcEoiESoZIRMBFdQhdQiM3nYwsYK4FEZ2+iBb4vAJSIiy+e4tf07iYKwE/AlNepTXj2plkWWqArFjBwC5EqJRLIPqRi9vRFJyYBhleIFW76gSAgBlCBj5Id5WIgSFZixhDDTvC+oj7RxKB3AoX2QTT+yLRYIKnX9MvgVELt+Jdi2H3BljTAihDZRCQW9JvIfyCCsCx9lRC0A8sPshC4ssPtgYIxCUisLCoVs6BjFajNeElRlwzUKjWLgEZW3NblYrFxhyogP/xK1KwypXAhhuEJp5HmPG4sMBuVHh1L5s1KwuLlSpRmuDVy+IOU4DgY8WVlMmbI4t+MjwY3nUrAQ5FRITQMEl4tZKwsDC4ubGKKl7lsU3ZAI11AiW+T9GOggLBfbN5SaXZF8ZORvAQu1F1cF02vyDoE8vxBLqFKiqQCppgm4zDXlBi2NGC9b/pCdUHsQg76ZdQsTCqlxVqWqUytuCJCDRp5CwaQRvligIhCavDxL0GhwKyxv6BDdiiXG0j6Sl660/jCRHRHRVISgTX6wiVgrtPqPz3L0aZc9f8A33El7NPYGoDKq/SG4IVNYKyysBEjjbkYs3lwRck1i+OrlNyngQnUThvG7m+ZjvF8euG5vG+dQMUjnqXKyYF4FZaqdYZeBzq5ceOpUI43wu8VZisVxclw8uDLx1wvNkJfFZebwPw2jk7cEdympTeAwgxSLkGeUAwYEAgRIawCtQyCE3EnTSNCybW1dIB/6Sq3QEARDqxeErOWIs12MPIQxX9GJqKoYcBxaIUPNgepU4RGCLCjV2o0BC8/yA/SoaW/JizxSrpVcZPYqWdcDCwjeIBqHwwisHaQlqppBHVUaI0SHaqpVj1CAKgJ0dkKutYvXc84CSiChUe4kl8sUXRiY+sIXhhINoe5YIKRfBMahgYuDhuVhcGKyZ1LyYeFxheCuCSnlcOAxTNY65W4vPZi4X8NzeXJxMMI+ckXG5eO4Yozbi8uWCcbYfGZvAYMarJnrJhXJy7wOK4UYN2jvAYsNyiVTKjncMEU6kbgsbXRAkwNpYQooJ3KiDAiRoUQFQsWkAn8DBhMBGC8oQPdgL+oJ+Jf4YpwUDuPO7AhKwBbiJc6kEgDCrGWg1ygxQ/YXxV69wgYhrbyBNU8Q9AbkdR+5l1WE4NMUVgsq3rhwuf/AChiKrwiJB/ewWhllty82wVw5IsHNZI8ez4LM3keG7xeWHOoxIYHhrBHDeL43wqLDNZCVwvNx4VgifHuXitXgzWK4BHhUqUnKsXG7xZL53DFuG+Y4txWGDFZdMOG6iuNXGELuKwcN1Lly2GyFqJuCLgXLhwVly+VxlwcVHRd3ivXq9xRWG54i2Aa56iWwJs7PtisGCXz0tvPcCKVNjjcCXUWFVNTUoI4EzuUsrCwjDhu+NZYY7lcqjmonFOFnK83vjcKlS64WVNY74dQYZqONY2OCGCJhGdRyGTDedj8DgMVkxXC8OKahlIXN8KyzUuXLgcHAzVy5uLyWDLx5J9OSA3EQAIVFjKYLYKJrDCkiblSllJLlvMITVYSPMFLQMcBRi9wmxgfQlQIlYsg7gNxvgTUEKaAjRByoFqATyHoSeF3Jip4IOGHDeC+fXCsLkPkDm4I3WC5Zjq5cqKYMPAvh3EwGRwfGK/Bsnfy3EhKx3LlkvhfLr/4AZtYTcqBHBH4Oow+C4Rw4MGAgYqoEti5TcpvDLLRBonUBqAVglxaWymqO8VzUMXNXm8C4OF5MvoiFfkaYfvuV8dqg+xgSBABQgEuEZREywlzSkEtpS/oJQlShg3NmmFg3rCyVT1DdmFwXKmsuTKcLgSuF41L4vCudTeWVip3gl4DFRck6nTnqXhwyziHC5WDDNOK8YOFYTeBZfAYx4VmialEqOHFchTG1xWa4uay5qBLjN1nUb5VkY+YcBiy+C5pw1DFpaMYQiy4MGLCBTDgMqSh1uBopk+lFIeJWPLUlFNB0xUrNpTNqMQUQ4q1RKM3BiR9/GvzFbyn1FQSbRBLoreMdtAZbB1E6gHbBJGCTd7PtHJRrRDSTVdxqPgFwyGBBeDT+kNS9j1kkI5tr8gk8sUGCDZL1om4E3xfgcPA4dYDFjHiPEnTz3zo4brBxcb4Dg4FTUL4vOy4RubXDBimHFQnWLjKmpuOSNVjU3NypeEwXLyuGCEV4Ms5ubw1ly4ZXBlSolmbOAawuRgpGWYrFuSpaZOyEqLExSBGiTTdQgCwphk1YGKfZCKHkYpIoIxdJdv1GFsCOAroQClAn7ZNyIECR6wBCyOAqeZ4TIAAhuNwjbBgmdaHqCEaI9Jq/wCz0IeCUFnsx7Og39gy2tGgPUBULZNkEvZYRp1aleUSXwDQCeT81wg5WAqdLN64D1zwhsvhRH+RQ+7gVDI4Tnr4bONctXk5XxpwnFw8Lla4bm/hfGHjWGXTwIVWFxWrwZ3CIGWXLlwmsXjeazbElSuFuKl4qOLxqGXLhYkWXCdcTlWHLm/hXJi5aK4uoXBhKYcC7h1EiOLiiaXIYqoaKRWCQO9dmWosgJgNmolFoGjwbgiAhPPVekF/au3cFQWwArKYenvFE1PP2mv8xFAVjwNSAm0JvgwAcd/cv6KQXKQlmjVJ2h7MrvwA9ERemqcXUNGGwGjdQvTvfUNp0N+44I9OoFvoJaoAFJMApxE7YMCuvqBwQroloRCtGA3gGB9ESCX2CQzbi+HccVi9xrgQ+LeLzXMy8L1LxeKlY3eK+QuLweNx4VOsXNOCbl8NS+AzU1DGrl5MXTlGGNRzt4kuCxxZN5rBxq8BDi3N4sr4F4XlxeCuTExRKhsIryIYZ0YsqHUKGWH9AMFViAxQYCQhECav2AXgg6cY3hYkR2uBEwcUAR73bx/JcFtjKNBKH6WIFrEEGVk2/wATtM1tShF2jYGELWzzEBQmjL2MdNNW4N6EDcReouqab0MuNwQrGweoxKYqE/eVrByxI/r/ADizd7PSwlbqj+meBlP3ajdw4VvNEc3wSVSRMV/8I5BOiONVeNVXAeFYrOq+QjnXBb4jkwcFM1DFwwcDh3yGblYMJm9zeLlBhODwMoYI5rO8azrAy8mbIVyHksuEuaSOrIzbCtLhWEuASoKJ4mCWlqagIaPuAoiaXFrmWBegjVDwgMKWNGjB2x4oQbrZAPWMrCASlx2FAaKsYkokFv8AGI97WEr5uhZSCR+CHVnaEdJs+5rpz2WfsNW6Q/kpC0KkapWMZu6CSTUy43Qq9x4T1FKRpABIF6laizaarQKColJp9/yJGAESJIKDGUn73+T8BjGm5/JEPxRV3j/QIVExeNZ1gYhyLno4Xx1Hi51ipWWXwHjVWt8cDjeKlZv4N3lzWHFwgGdUPs+EM0SomalYriO8bxU3kcWQiy8Ea+OnlTK4sOa4rARrDwvlvjWExUYDFy4MTCy4twUEFEIY2RIAYIFZUGrpQKAxWsMJuoBlSidy2GKlVfkUtoLVkRgWIMtptNMMHUBAc1QstAB/gjJASkCi9oLqIEMqCLIhrFhE53H7+5eemn1UXOC9fku1Lg9IkK1dOnsj1brfutxS2S3yjdWpRxYCLcO2LuBIP9auB+r4rUH6hl6fLhHUviYuVGXLZ3wD4d3ncpgOahkjiuAzUri4v4CorisLwvG5WKR41KlZvhfDU6+DUcURIuCMJeTPZhOI4TBhc1KlGBjkl4rk5pqBNZWPiXwb5MJXHswYSpCMrBE3KwbMEArBeFRlw8QiYCdyxmj4KjKswtoC4HIuUgSbLX3GxRfuAH2RBJUQe4p2AhPuq9jaB3PuKVBdR+2SoPggGqX+4I12w/JFdpvDUCoEYCQCLWSHnDaIFdtH7FDFKN3GyjsjMFo2/oIa2gPRhxUKzrAS4ecmDJXOoHB+FX4KJ3h4r8ly+ZxJdMMrvimSpdHE+WvicajNTUoyR84fh3w3N873jeCprA8QeNZCd8Epg4JcdMxaIsLj4wJFhLJDIeJvCEELjD4hYmFji2N8TgKIkItX6eoQ1vUvKSVEOKOLCLeY7QjsoeQqI3c/JpPzCLDBmsEKm8XhOFxON46+IvFzfw3B4U4eV4C8JyOerxeB47ubia5a52ZrJwvNRZp4HnFYqJhxfA4URu4uLyzd4SbJbV4plRyEXgw8YOXWN3lZcfhDVI1CMuoIyyJi5vJ3GGA2xl4YOYu6YIgkuXisLKz1wESawmLMNvSQCidomibvUFsYLDuBDAsuVC4ZYQHBCCRNR0gEJ5qleyWOqpErPcMWxGoHIcuTgYOYOdR53rJXO5bBg/BWLxeBl8F5aw1l43wctQ4pKxWai5GaqMIZvkYqVly8KZTKiYrNxxcvFRwkrcrgVHFY7PgqVKlbxUrIiS5RcQwGoEQup1qs1CQSoVF0gwYkYmtBAApI6HSZ532GKIS4cSaXPFkJebiS1IxRuNqw/IwsrSgnB0XNssfoP+wmO3Aaao3FeNwAtsssqaI2E1LwZOrElRKt+iO6EKF3xYPu4VoIAEVN2tkYRbIX6jRYCEKhp7N3DRYsDKf1X/yNvrHDiRuHLd4rFVN8Rgxl/DWdzeDFwd8N/HZmowl8h+Nxcvk47wk6hGHKuV64MDheE/8Ag1LgxhKyXxXiXi4hBneH4SJkqDUvKQi5KqFRNo5aSoFwwKpRKoMEJoTqKEMoDBUCdwexAhf0we4guGbT+LSO/wBGAq9Ece3ACts0qTF1GAuCiAGLl7rKyJXc0/ML3mr9QlbQJYd1HEUxAG4rIG1Ym6pt+IEa4EjJDBjWWLwbX3+iVYaFQgLIiIwr/dmEAC7byLg1PsYAUQNzddui2tbnqGAJDiJLzXLuWwyESEvOsJwfgYZPmp+Dqd4cWy5eTiPJYVE4jhi5t5bxcvkV8K5qJxeBhZYxcXnsm8Xki4YeYk6jKy3KgyyEWaeJWL5ViskdzQYEiCrWCyF3BIhopqBCXGxQWsQTN3UMdvUIKItSkNSauhv9KMsiCDL1ELoWQUALPEwI0tVI4+gRBKZcUEFR6bITQKqWtE0YRrAmxhjylghBbLyIgSIBZUCUoJBHaQexgd/Vn7BwntEWdAD7jXD7kKPaPKB4aISsC9wkmfY0w4Esu1GiRx1uwjQB7YAAURTaYCAxKwJUrc2ygjLSj/BI0l6dYuEaymDlrBHgs7lxzWaxcJXw1gxeDG5eBzeblS+e8WyputTfxEPEolcLl8XjZyuXKxXExeDG7+FhHG6xWe8b4GHNFTXAm+G5cvCSpWNcTlu5RK4BnXBMW4pYq48gEACEJWFBaWGpcliKY32i+sXeiLCkbfcPagr9l4lUXuXD9CRMAtqhgAUhq4viaL7lIJQo2vsqGC6AxU0TuBBeWDQ/sJQ7lJaB1Eigv7FD6jW1tDNUCGZImokR21OyBf8AUfW4N/sC1R81YqAEqKQe2Hqdphv9MXgqF3AwGEjNgXphvoMP2UcBzSTU1zcsHiS8FcLms3wvgMcVLlwjwuOdZ6hKODi4ZU+GuJHiJXwCQinxXwrj1m5seNZvGsPnF5PGbeF1g4sW81i5cPhYZcDga4Xig0es3qWErcQCGGWMMQsZtMLGyBDexOCyKiRFDoR/RgINB7lmoWWETcemBwNi6kSHgIgk1FgoU/AX9MDqAnpl9nYMa4XZ6W4NgFE8kvf2hhDsERiu3AwNDx2lOtex/VEoCwMJldR4giK3LwMQFZaF3DpSS/1gTRTKcn6QgZAN+0WOqRDRsFuQEz4mHJ4iDv0xAVaH/SVwsmry3eDFEuXHK4rmyzLCaxXxdQlR5V8AzfNrFQwSpZCXLxe5cORhIE3movx3msLhZcYwyY1msMvUplOb4VissIeIuNkWOB4rnvCYWEKl/AuKMPHcqGxU2LLBqAY6B3LG0n55BAhOpe45dkBuMoTAYplQ8wMVKiEN0Inh2Fr8luo7IvPzsxuUs2RF5pcJGlRNQBBm3AfC9w0DWgiQVt1f3H0qv6DLIUY/MrNx9w/CkEHQjG1ZtfjqJSukBHzbr0IlZW1AIbVvvA2ABjUidwdRF3aDCFokGIsoajN6cFWNQhekPcSh87/RlMl5csHmuLhyYS5udfDRLeA4XAcN4V4mN8qi1DnUc3xMnB+C87m81xZeCo5uMHXAjmoMKu864X8VMCOdwjLjxbwkDmVhM3L43ebHHcIptiLTBFNtEZaFjeFHxCPjAy5qMLz2QycKlEoj44fYgKhfAqC/4T/BPsIn1dzyAR/SMJ0Vj6ZZmu8MPwEMbYgTywnpjQQfdmNOgq5aECjsEOCIa/qEmwsRCCAgCVq4qCgRhEr+S3RlpoUsmow+yecUEqPmgheAHrlWT4LMPK8s3Oo3qEb5bjmzN43UvN4vnWHncYQvO+DVYCa4EviQwIZvJgxuNS8hgcMAyGHkrQH6tL2h9waGdfBp4M69ZvqhNzTxqblZvCy4s1NYvN5cIRZbKlRIHDsjLYPAHhWdlEio9kYo0xYtWI7LjO1jIfueEBMMOFDLxXIxWOsCweNTrFwe17aQh9LN7h5VndQ/9BgFTyUFy1KIo7CADQgaQgEMMphGO3BKAy60k0ByqErK/AcupXFycnTHDgTF7yJUvm7Mubik2xxPaawuOhys+sQ8AI5pdIJTZ+pZE+QcLi8nArOglx5XlzWsagutj/RADcmHuD5kAPRDRHmHEjvT/wARnnRss38FYrFZMN5ZqFxONxYtYbw43h4Xw1gUsN/TFNKM2qVCiUCAkDwK4tl5JrB4xWtwMpi4YrFSo1OqMdz4EXwQhLmhi48vzCRP00ZqVg4b4BNRMJCNY0PG8Vwf/gKSsVgDnvFZcVKhisuFnjFK/wCTqSzr8yymi2PT/Me7REuJxCQVxqNTsG4psWUtaSAu57jK7s+oMt43Nc2GTHWN8DK4GEgAI0gLOrIYHg4b+i/SCX6SIWpxeVxcafxb/CGn9wAyt5vWL+I4dYvDi4YWOawwZXIcawy5YuNVOyHqFcxSoCG0RYDCts0M0qMMVKlMahElbwRqDHyca3DCwuXwQ3Uoy+7RDzyYTQQJUM94YONY7jUuILhMrLyYrWTxNRw50YcFRxbK5bhjWK4XhM3CmRZqeHgayHjz4G5uMB5A9Re3q9IuMIxpIC9BKP7AAPEzVy6IQjycTzLZPd65LOkgnTwvN8O44L49ww5uF1LQ0Rf1NJaRYieSS+qm9oJQ2FdpH1DBR3S4U5tgAw+7IaFhQlQAg4SiIg0g/oqCANj2KispW8ESOKMXFONQw4HGs3ElQM1L4mKxbwLrNSm8M0WKlbwi9wKIRhO4qBAyo3lwmAlmacvmDElwiZcGds3KwYolSs3GWYs4KEXANZSVKJBMHB5VhPgrcWXgcsM3FMs25c2nVegCGxu17woKNYypXNlZd3PUWw1d74AdMn/CKS1VkDvGHUJI2l/k7eFxx+Yxkf8A+7iSfoqVqfYQ6D/DDz4KvEC1BiqoJYITYwL3B+kyc1OdwiDLv9iEUpaQZEMJsE4utFPZ4EPwphfuN9MH2Sod3XqF7YX+EbwbEKkl00ATQsA0KUILeqNgRYnQ0P0Rq3MfZAgdq/SC20/hAJQRJCpp97amkP1BC0QqrwMc3CIwJbHOsXBjDJcM6vDlMJLx1LY8GVleBBIVK9LFqFRXfTcDqDLubjbDi3N8TkOemLkXluVRisXxJRNxuopjdTQrYemawHgg5YxgOGqyYX4aOYcRwxcoF6jFkhdjBOTE6Q/fZn37b64ALQELsHin5BBIBF4SorKwL1hascaY38kSmhKA+mVidpf6x7qiQlEAAgNhGU4FoTYH3HClDI9QfSUoMQRHsjuroB96lcEHTLG2NNUimgzy0D0hvrQ7d02YaPTKtpBht7nmp+6O9J/aC95RH7jEVgvcrnprGP8AGO+oFsjoCfxEOkV+EpoMFBg6JWMO3y5Am0IytyXCnarAKkncWhxBT+pDsEtj8NSzon9Cw8IH+C2meOlFIw72wwlCxQjhp39H0S4jUIQmh/oxdmEv19IpOg9j5jKVEQ8Jw7+37nXOk+2KLsLoeIGKYGuWoXL4VLL4EpxeKg5ahUXBHimGFVkMthOobctW1XC0huDDIEGoBCLBhhfE57rDB51gxeLgzXElY1KimL2AaRteC19wE6a37jmbVJ6g9Mv8RWGMt51gjjuXhlI3wZfKyHmLLF1nUYTSIGqb+yJ2agynjFEuHlMAWMGXKMkJtf8AbRGK0ZBGVqNksQ9Q7IBD77Rwi73laUGQvAAiQLdkdutfoih3ob7ju0C/2IaKHsMeFV/UZsAVYIXsYzvcxB2B9Mo6a16Zpsp+mOLpJT1gEs7s/ogCj7P6QIg3bvu460wAeTWvUWBWaVoUB3Q3DNRw4MMoeiKeRBNwedIl1HVROlJ6JP3P8h2uHdA7IfVNXUnqfsh5YizaR+z0j7P9oG+fZiJWxhd/6j9JaXE0fbAU7uKW/r7hLOL4bd/1L6VSf1glJGIh0h4vtFm80UwAH7FH0Ic0pg2Fxsmnti1syqF+KhU0SMl7dwOwdEbYCS9ECCH0+D9gqsdR88rxUYXinl1h2zd5EqUZZtIY64LBi4ImKiZWDCqCDqEYXdkvR9ypBAiQsmOF5kqavBWaykcbzvFGKIMYYfMTk41gWhiUCNLW7kqA7Sz07shF7kXheHT5r3Gko+k8OhQPhSG0h1CVeTEJJUiJeTGM/Uh+58EoTqOjDpEovn/kO1+zFvbkLuKFsvZBER5UOyH62Apb6ni7r8zUEPUfNsCiApj/APZwJc6J+wY+UkYaSM7HxHbx/vML1/8ApWZVyhJQZfqmt/YCyAr0P9uGT43/AK4KPm/+JSG2qV9XQ96SomoYj/7puPsj3hAM+G9EnZYPdqN2o16lngmLLBC/sN/yiyOlkdeWsPdzCbCSv0QUiFv+zWO6/TH8sZ+DlhxGXKajgmsvOonFw3GSoFZWwsCUEp9QVLlxAl8BB+v7g+iDffk/uN4Ar8r1FQqNGNY1cVjAE3re2fXtI8wFwEBbYYSM3/n4i6CwoQ0pdU8mHOoy8NTWG+DLwzdYqLUXjXCuBK59Eth4xZxDIsETUrXuAmAR0QlwyMQwwYJwM2zWBz2ShlZrFYqXvC4JWXC1CoSh9JsBAEXrXQiVWEG/OTY0Kr8MGlkdDtvxC2ui5bNlCAIPcHLpoSx/aDVmtZ3HgI9MABQiRJU0KR0I8Ao9CHr+pPNp9xTyj3BOh7gnmFbiV3D+YB5isgG22INMpdHoIE6EvhAK9mPQYpJ8wxXzA6ZU9+4gV2vU0iwgm4xdIRawKwiRS2sP795Ufude6JAaoQoicixjsb4FWT0lHAN1nuHTGk/yjoBBToizW8D2xaUo7kABv/J0/n/2n2cyfZsjCQHX+CACOjCg0RCixeiIH8X+SF+9/wCKDW62K0MD1YCEBCUgUnQeQ4VkeFzWbxWLyMrDmksrcE97Nd0m+DUDEPBLJ1gUSUAODDV8IQxrsCsEWxgVJL1XCCUwSovZ0FddFOtkpqIKpG8Dhxub4ETDLjN8Swm8XkyUvIivAl1xqE1CBBLRLM+oNQIsVEWspDIZowyuNIZPGLIOCCQxeQ5sMFRvwJYRRDahbJh2an3GVEX/ABhng6ekHKKHr+hMvPeggoOwKgHlaf0m8aOjRZpHqEM6F6ZSZbtKS3n/AJD7IleuoLhHYRVaZ9RgXgztAMqUMo4MSfQSg6myHABcol5rJxEWLgO2H9ob+55Oa+pT9YrAeSBfiQtir1+xdLRe5hOGDLyjq3bPzUuOAlBAH0jyhIFs8242GOTT4IIh9+hYXdUvW4x9uCKBWgFY6CfxIiFWbKBDGoYa/T/ln3XQ9EQKdPsEqESOgwMzGiMcAavIme2XHFSuHZDNzWblwRl4I5cJNYBuXnvPKilKFwJnrFYFslS1SBLx7EWi4cCoXsJt6jF7krQQhOgiiqhLhXsC7jAjGWy4sKm8hK5EMsrNYqdRlZQhx2QrBKII1T6IaIYQEDWdRhBc2QrhWN4IkqWYYY6gYvFYCVnV4GbumWxMKAnjMIPe1vTK1MGjSQVz5Q6ZteWcAoeSqQVkV5Krii2BuIVSEXAKSMLEQICQyqBDYKlhja28FjG4BwDDK46lso5V8IcBiQqpPWCDUJACgQQCNjKjqH2la4qBcakaBgAAFRBKSPIE4JjthVUFKRIhRIqW+8svAw070of2GPgiyyDhAppjfdIGgcSMOBKjK+K5R8FS8GVqCQn8Tyj7f+ByZGjv/ZisIu/ob5QAxqQr0TWaFxUJaoMsKLKY13ESIl01tOpbgIAFWAM2MlogTq9emCAOw4KZTLtAhtLcLLqwxcswErA8dxl8QlSsVGGCEZbUFggqGyBVEGEUlYCiouNTqOS5RgcXLIypvC1iQZRdxq5ZcuXLg7rhe+NcBdfZjoRjpSA3C3QToiVpjQ1aXfSQqpQCCWjIiaocQOLi8vxEvDB+Eea0y5cAgBC9uwo28L1+Qp+a/wAF41ArIblQJ6LjtWIPUDCTrFHSH0kp5qa5appFGHlXBhL5UmbzcrhfNxfC8GEQAYb/AJt6uVDfhSpWR8GZlgXdvTuACAicm2sEexC32n7maPhqAEKAAIkSmDtl1FlgVUG1j0i0xavlQOqcVKvJ6oB7SxHY/wAItCugIhQRK9XmW7YSP8gkUDJ58HbFwFH3L0LC4hlekn+7AIUCxS/KMQL0hl0AuLEQgYYThfBl4DhUTF8GXWBj5hKphFL+QFi58IlUxqWmdcKYZ1KwSuQMohGeCwKVlNRW5bCHx78RKICAwoJUrUQIhH7zbAturcBT56m5WNXL3geVTXwkfi3m3IwwwxZLwkQClhMlFPsgkRR5+vyP9JV7Khq6VfdIXFeFT/8A+ql/Xj3wuXisgWRGu1r6wJbwfk1lxXHrI1i5fw9yo6/rJuBrFy0pdoA/UD8iKs/H2kVqiCCWJZLEv0mHAsP0+JRKo9Qd3VdfqHFoLdfcNJAK/ZYJtk+2FMIEjEBsEioKvg9L5vz4Lz3t19MJN8IIoIKA5FUa41v+o0VpKQWLUpxQ9rlorNKMaHLQUtog7AQi6rpuqJSSUWTtSHZB5qr8HbHnXd4GBgNx8yt5WVLeIxhxGLB7biwG71CZS0WhQclYFzuoS5RgG4JCo4uJK1KnZisOagMpmqjFpcvhcMVDgOsTxL1F/ssEeILvNysmVzZmpZxs8mWM1DxxrkQhwcGgAYpEXUvcRlDffsBLPq/6MNRhFir8I96h9dXuFa47hfwdzwcNygbUqSWkQ+G8kslwmpfJxrjfwmdQX+DPUaf1meeCRNSwEsKiUrUGjoqvUOW3uBQ2j2Q2AAoni9Cso2bqv9jgpBVRCrGiG/K+iFY2yJBUq/Do5gjSCJ5Wn9S/pWyGXHxU6jp007ruMoIRVmi4RbQH2wq64pIN+Zp8C/UPoIsbMWsMNICeWE8MJtTguLlxgzcCaiy83KxeLmnlcAiQgiH2mHKtQCmazXCp1mshfECaxfFbzc3hZcHUKy6Ju5cLJc1wZc/sTc+oMHGsDjU3fIMmDOib5rK41lq4YuGLlCAINvL6Ov1hoLdsnX9xgb/h/wDuW8qP51ekY83dLL0YY6Sh2y3JF8hZ1wvaAe2PY6e+pdnBrFsvWdS9ZOFy2/guXgzcvOr42F9f8Rq/3X0wPBYTGjWK5FWxCgZSGvcDRcHz8GmWjLySmLFFSVElfXAYAUBLxRKLtjbSB4UcOpcqUffC8kZcrg8LYxxq4DBRhB0wutcJWLi1AYzsxfAhKlSpUF5gGHBwHDWGJLYQZZkcWQQwGXhSLT9/9IbP7t/kOK4HC81C52xx3LCLDN8ejAYRm8LU6ixdy86wpVsbtlQaJbgMuv1F/wCv/FF8GS0YbaWIEAt4D2zFwS6AYgNiBMVHN8RZURdLX+M3p1/1lqGOy1YGas+C+FSspwqdy4ReQkVjA3lh+4J0ej7MbxcNqF/wPuDnyTEdQvHNDgz4ErGK0UEbW8XzMLAK05bZRSvqAAGwcGVG+SS8HmIy+NQhjuECMDWAzsbZdAgfSQEDLKh1wrcJXBl8xgYCoy55Y8LnZNVNytwQGBAy4trFMKiYTG37P/Idfr/xLMiYa4MI3BnRxvG64VK4Ge81EZVTyL3EUfYWhdcOoCB5KiLe64XKPuf4EDX9v/CFGbJvK2HrcsHxeQw58J2v8xuc8Prj3NYrgYQiRntouBPUhFQnLoJGXQeWCT1osHbQfEolSuI8HJGaxcbw1lvLWBlwl4/tC/0RPs3vUPlMjSAVuIu9qP0RgESxdNTI1ASpUYYuVEi0Kx13v0jxN38WCpWWsVKzeDuHbHRGMH4/wSP3xZ6y1CNysMTLhJ3twM3Hk/ApLvDUO4IECiXFYQQ2YqbYBjdYrCSsDGODBmuV43wTd5plSpWS5rD5xUSE9Q9sKuvaBRhghNjee8XFbhDDlMMIYrFnMnWXC06k/wC0RSXQflA1F1y5eDCweGv9f/CNcxYlQy+CgSWMTQ9TxhAw+sWam+gSUNXFI1EUexhktBBhWDyLorD8RsSVPzA2Fpkz40hImDa63ZPrq3XTll0CMrUaVFEIRgGph4zXK8GNS5eKvjZlaRjfewnaVjLbWL/CLO8d+4a5sALtl1gvywdQPapuLvC4/kFHxVdgmwR8QeUdhj/s2Hb0QGxPuVc0sh0LaDtbYONQK/qCs1WGVwuXGuLUE+0rrHJS8XGEc3m4GEg4WVuJnRB4MPMtuVR+4LqHWKGbyDUDhc6zcuXzavDiuNRhi8PLVcKxqJNRlS7/AJvTNozzg6+BY3Kw5tvF8WskvGsPF8o717lwsVDUivWpjuhvPsgHV1ieNUPaKEYDbh/WnUZ3xXCg7oe8s2/n/wC8f+E2XGeoFf1BVKSAVHzv7KifMT3RbPxh1G6vUdwpC9EwWkJYeRpmg2l/MVAz/wAIr4I1Ki4s+r6zHl+cNNsqEA3CHyNwPQhX5DxB1FvZHCklFXsWTyc9EWbZHgaDZWrAgsANqt/EVUgiN61EBQrGlTAQQ7GKwObzTwqBhhXK5qH0RJ/k+/NPZZm6sFTXU7hoNNkasmGggME/Eb6IBaU77uAohSdlSmXm/hqJAE3A5vW7gatby6Q3S0CKqQWD6Ipq/wAPMIXFpLxrOsODDKKKrQhQoRQ3SHrc8r+P+SiIICTSQjfwH2YMVASVwZeAwcnAOLV9eAaYLSDJp4VgGbhdYrGsmGDLl8GKwcE3Nx41k0xeVzVfsf8AWbl+8AlY3ee4xdQSQl4IORualYuJDmckQ/t5+W/0T+3MSg1ekKo3NSwD9RTlKPqN8KhfyMxq2DwAindkRUbvyarH0fvIt/r/ALiz+X/sMMufXHsEr6EKEBEgSzNlwfZGIS1JdJqPwf8A+aDPQr/diUu2GvURpjxPqD4hWjKkURqCdPEuozzd71VTcMOvWNh0VhgYj+hIXti+sevCrUZND+yytAgdECE7fHG1id9wrujcpHChqWr6IU93ZBYEwiwp4lCWKxLTo3sgB14CuBFcV8dKcB6iJu0a/wBviYRCpS4nKCtO5pDa+xg0vV/lBIzAw4AEApCdz0tQl95pwLYQrhcX4VxWVC1lHUagC2gGjapL5rPHXYpaBQDlYysWtVXLJTB/Rmh5w1NXweF3Cs6i0QeBVEQkGEAlS2LhWNYtgGFwVUImLM6Ma4byuo8+uF5uduUMmK+uL6gXpSLJpiDSI9olvhuA22E8gIj2T+tDgFPpl6nEdKU8QHuDug7HDMwD2jB9kOwLPpEsXg83BBAgkLetZv8AJe2tH7DTpr+uXpehhlhN9Ql91oiVgDCW4rgsZogbVF9LTZA8FD6CLGaQB3//AJ7zbdGIn1QUPyXYXx+wvIgrqPmXDgNMSCLXCYguy5c8l1BJEB+oW1YtNpb10yyoVFlw0i9Z2+4hUuNXnU951DosZutS1AwddIx6Hn+lDKDqAwAKCKtpgNCeYE8IIzABRHitFmmXBs0CCZQIRWVUFKYAELXUHoBOotty/kriA4jElD/Z/wBE/k9PuOFlxUMHBA7wl0ELDUecGLLwmuF5XAZqUPNqo6V4vK4fcBGs6jpH3xXnu12xlS452aFplkB6QrFRSIUzdjqDS+uHfIvKkvOsXghcqPZclxgVVLWDC3hz1CbvOp0vJ4BNysWRwGLl8b5svV3EqURbcPJJPEXhW0YewIUiImaXqVQKnbB7gq0kEVUriEjtpPyEzp3hIqH9weGkOkI95hMe6T/M/CPRD0QjxHnxUIviliGo0+4vqRQx4H05WZbuV8Fy0EngSGWIbTGbAwM2/n/xZY/A/wC8G6Z6iYkKIBgA8RuFJ7xyLFLjcAAUgAHhLMCUBIEnaVLNTG4BhEFd/wAgnXP2g4GUDG8e0MEiHVcUhcUgjswON4ca/i2l8U7IRJ2e40hCRtgxZeEZAj1GD3Hhvy3BgZFya8AYrLPs/wARAPtF/kNS44qeCBCskuPFyxgZMG2pY4KRIMH6J1irZAyxSyke+Vh1TBGkhm4/QH0iRIi4FcrZRR5Ovw+oAwDUWfdlf+s8AdAOK3l4b4uAqXBhKr/IaEGEWqYFwNHC5cHJLjg4dcNQrGsLll4OFYslkC9k87DwEAsZjtTrWmPtZvId1cJgEB2slfEUiglEAuXqoMGIZFXwj10YJ8oTgUFYGo8v6FAG6AlfAPKs1iuVf/8AX4hX/P8A5ZEcmah2Huhl3SU90lodEe9J28H+UopXHilT0FxILZi17WWEPP8AUv1ECHYF9KRNQG/L5lmUCfuAdkzl4X/Rm3lVGiQESzdN6XDi4HYBF6Nl0iN6gniW9iJ/E3s+B2QCgCXN4IzT6sNfrQ8xl8TBeSN5OCQGqSHgVJTufqCruSVJpxcXHgCr7w+8YRqxcp0YEHajcAbS977iJQuugQD1Wkb8DoSguKQaXgTN47S9Wy9xlzxDgHw1gwXdMID7YIz6nhFlxahnXKo4MDBxQTeWEqbw+M1yUJ5Qy5sTwkWW6PkHonSH2VDeoP2PbgWtL3BqBPDyA8CAZWGam17l7nuAksZUThcPOCNr7YaiNP8AkFZWDzWMN1NAT4wXm5UeNZI5HXwFV9Ir82AdgCQDDHeGdjf6TAv9YZWvaSjMXQhuo90fvPUNJZb0n+MEIoiMpDsZsJfUZp6UEd3/ALiWcr4JgLnhgDov9Kxe5vNuF6Hf7IX2EHqET8dO4QdBZBWt7/Agha8peCQeoY0B6BFViUQUCWrXb7EQLYI63AMdOGGFYJA5FAzqE7eOCWciXxvhrBgwjAj6UQj+OEJ9SxpdQH4gtrGCeDhsIZV2XCSd7h/0NP0qj1XYuXSG3ccCQVGgQX7Zt0t9IuJrRgAANRld6nuO6Tf7FYCVgxeFgcrw46uK3D4BuAFEBqVESLHF4eE1fHrhc85EZrCy9Qwm5oiS2XmZeFcoO+WBN2KUFXRhzv3Zh+zPCCA+AmiDkxcCJEln9SEKPGv0EKxUSVAJvgKRdkNqQT2oXLwoocLz/wDpZMXbFiNLeLzfG+WufeRf8v8AEY35uN4MGCoDmvu1siW+sPQI8AF/VQZKKz+wBG1ekV4DTpHDsE/oUx4qiEpNublSpm9ZPuPEmXwuODHWbu871H8Z/tF4DDgvHZUa/SMlyoWl0aafiF5CaJfMdHVIfvKj++TEl3FjsmyLlE1dbH6wVk/u+hNiaHPSCASXhwRhheDLr/UbPtcQZ6zUGnFy3HccWYZqXlYEvpEGXs1Q0LnC6IRV/wBh6JaBmy7tjK36AFmuBdxRBYRiXhWCdkBBkY6GGiqESoXQ00+4qpqNfyLW0ieJG4PYCopPcj/JU7zV6w2kqJii8al4vJN4M1LsgEsHSQqwalxbIjNA43LlsXWCHDqVqBPBrU3eER8giXkzygnnocpWagvLiDFPOgCBNx7YQQooA1I2gEB8DJKxeBw41hwwv7v9BNl+4hAxY4GE1i4CRpI0ubfppijs7i4YQy4rA0jPoOqe59hWPUvhUDN53xcGLi4uLE7iz/m5T0v+IwPBxeoEFiWH0GGBgU9TxGdNjaJWF+lXCdNQLRH4l/SPfHeLM1g/uD7DNneS/wBUlfAnpnuHstggQLRLCCNn6ijF1afbuG4eX+sBr5vcVOzVeNgYZR4ivAXRFbIXFXol4Yx8Ssscd43+5Gz+v/GTCEvgHEl4uXLlZHgbAvfA6KY12fZCKzJuxWNQ467VCn5/lUI/ZphUtLW4KWjXtDSAKIyzVR4G7kQUjEggVlwWwUNxZWoCJc3f2iUC0eJeDqD+zf6MOOuBxcXnWLRFj/TReCxwthDLwYymVm8LRAXwCXGRan8PVg+n2RsmnuKQ8qJK7QRTFbUShQgPAg8LF438GsM7cF00rx9V/wAlYCMcHAW4R+l/iG7VJ7MLkgzc1EluQDHd/EK3txHC4eYkqXwud8LyXXDsf/6crLo0rm8aM9f/AAO5/d/+MaL1N5PG8kZcuBAMMcODwsGCWghAEGDG+e4ZYdp8kogArYr4LxTcr5HKFIwUs7ZIQXIrQpizb+00hlc1lFRNF22oZUPAiq/9Imgn4njSGaYkgIQVH/gDzGJYksjzAixnKX/QgCeAHo5MJuVm82R41LHUutTwuXCgDsYDYYeXc3y1cIN1BiNQUfUoHxCkzV4ZbHxwSVFeJL4EYOKzu7q72wp7v+w4VDxN43kLXuLP5jhIkuJFqBFCNIGt2N4szWR4DFwzcvDg+Cm8VajLfxr9ifBcuLB5mNcWGFArVBcaQFly8AH7D/RJv/L/ALE3gZXmOXlUDAjcFhKl51hyAXRNQiypXFj5g81c9HJIQDCgBAAMVOsvtokg6OkTm+A30NEEwtYbw0GSJKswOF4OKzrFxlgmiKiXiYJBJcHFEXhUDI5ZadwA/H/rFmXAxwsGnF7m5TwrF8nCkI4qB1fyM75EHFsvKwzcdaoU/Pg1KiafXqCa3/VZYpoj0Mmwh66fyWVyyXyZWD4KYPGyIRFTgTcH4agtzXwawMMsSN0CASxJcEagCMaobf7EplY0/nBJ59W+kjeC/grN/G1lHgQsutHjBKIQHBzeNcD49c6yjh0JgAEaYQySQWCI4Wj0wjwWOEy1WsGLjU3KjK46wuO5cYoaEMqCxkpLSixeJFvJGVEyRNF5gx/Af5CYIOLwxxVwWAwjzFyoHmCFsAJeLtzcQhHNQuXLMWYMm3euALLSB/umJV2PfDVfcKS6glkHQmPdMQtnhx3OhAluv4lIBagQSwS4O+ZkMXw1fAdyzvr/AKjrffxsrkPCvFLNEXAnvoJbMdI8hNV/cFRyFAvZCFdZjVNzTfjV1F8rHfQMAomohKRcvGomSMI+ON5uXGMF5P18scsLRKMNy5c1HxLn935hCykyIbDB7AmqEgvGuYsuXLzbisrxAJe2InzHmmtPeNxIj695+wQrRUypSo3RNMGoAsRJWTbG6uoSwqXWS8XL5LKzXC4gkpqCy4QCMMrheUxZUrgsuMdtPoYbdiemGdcNSsXDF4vBK5If0hLar89uoIAxf/rMbwCCqhMVFYsHhf0AjB+oIxhO6Wv3A5QCgQ+p/wCuJZHsCEKl9VEplE/EMH7/AGMaR2B3cCSXK4Oghs6uDFRdB7lJqUBGFrU9ku6oB6Y64WjLmpZFg4qVgl8CWX3tP/c8r4nxO0PSJkS32eoVABU/IqQp+iTQcfgxcE7wB7MU1vIy2BtvSCK0kY8RtxsmoBshA9q4MH05ixQ0DCGBIP1jztAPc6swIwmqyDKeTKp4VNy34r1qD9wH/YKhZNxYuEIAIArD1PAWirl3f/IkWCgwh4YIm6tfUYBkH3QttIIFpE1EYnAiCJwTLAYnw241G+o/+W5dUaWxlK4G5YwUUDtPB0vfYIAirBKOA9QsVJY1HCqP7BBUwTJENMYuj42FglHeDxKprcfzUDUOGxLtFqD9xIEZfMbg8CsvJl4TGiQGoEJU1gqsViuDKlQuM1KlRIaindKbdQHBcBwuHDudYWPB8WwN5oSBw8oYITgsBUpYys8s2UBY5eTv1KqlWv2FuRBxaSQDD5Pdy2LOsBC6gRrUT7Li35YGGogkqD6/5gK7CMQdhVJbapEZrS/5HaQU76Jf3Af5F7Feo27bZb5YE8JI/gSgHd3qo4jRt7Q+BVIIfmx/eK8HFQYOTlb+A17+Yt1hu8rZkcASAoAhfRfVc+7qvYpCE7V/kOz1B0BlbeSftB9Td7hYCgf5fiASKMDan/sIcr0UwuoDshLL2I262uLFl2Ax5uQ9EBXqRVPRr9xPRA/wuBmpWXFS8nDeB9Jo96jhcEuKIbj2uWxLrC4NW7Hqwlcmv5c+ttB9ks61gT4QaGrSEvrA8U2mi022ay9EbHo0sgqAm8PX7Dbk5+lQ7q+kol0DgZWCWS+G5ccanUGjDv8ApSEL0gSVEWkDqHdlNFbSx6qUQqwIHQlqE0sz2M2Rv43cKyruIVEXgm7LQCVGl246TQMMQqwgCy52f9yijpj5eVbm8PtS26ONxcbwstc0ZojQd8YTshLbpi4GLXC5ZaKYUBYIliJhDA5uiEsvI8BizqnFYXF4UBWDDYALWiL26Lsdz+ozFKaIv0/6BYWY06EqJa7gNKDHSrDksKS5XrQhj+o+mXjWBLTwODg+QEVKhWZlFRXNbEPwuyJB6TfuBYvaBKIGC9RCmGF8rptEXmJYC+5r5JSMjAts7I04DI6/aXLlweDhJRkgy+F4Iw/j/wAEW8XwbhxvNZLvDhiu6hXfzr/ilW8/6TuLop7qE1It0xq7RRY3oe4QPA0BTUqIObYg2JFIagekMQi8uofVv/USjO0nll7gZM0blU/DiLlGK4uGuFzzoA1HxNOuoL2nUKAXrqOEOd/qUn079zv4vqKOf/RE8BTwXBaEI3ZLt1a4WyjTNpEB1/hGOYICmEtD1l2vF9yqKvuGB4LgHFVjd4eJEyqEY1uI+bsgCDoEujXBLB91DwAhZUu/dGvUAwzb1FTdH5EqlJWohDSs/FIQoCCCoLG+GWRIGgqUg1F7AJdWJ4Bm3slvC+BxuVS4LLlQcMRC640w2TUqXhW9Ev3dgmkh1oBF2V0yEYXLMuCocLm5dEuXKzcqLLiWQFqGl9zyRcTMzWv9/plmR4wIJGAtf8xXZBuIshBw/SGkjW+/EswMLKIFoPyGKDCTuHHqII9wAA2Af0eCFF1NR1gXGBuVLZc2mljcuXnUF+sVLSvpgal8B4Xi83ed8NtX/wCQjwXiPCsVkhlWSFhNU9kLtSPq4t1n/HioKGesBKI3ctFZ1P3cL+KN/wBnQjn5LGLJQ4iqeYyu6V6iAN1phMp6hpOIF9y4iBPxPM7MAlOyOwbf8Zsn1R74tS2PAlSuGpq5WHZREiqncPFR4gESARDvIwaHanqK0rd7GFC3TBkHWmGAZ0vNUYqzZ2xWGdQZrlqsHAiEvDcvFxBbo4XGsIWEoCiawkJeEeBEl4OD4zWTN4NR4Ay8aijNRusl3CMYrBcUdf8A4T3fBZX1Gr7Ev9cOFl6GNEtIFAK1gYTfK8GLx1wohGoShCVzU1fshDVVQd09IMCoFrAF9/cUhasfPCqoLRURMRi1+lsgdjq9S8XjWLSJ1t3uLudlnqLwfMI8GErGrgln9HUASgD1g4V8xHxhP7F7GpqVy+aS/hIY7JuY8vZjYYNfzB3Ao9CsWJPSAUr7RKsVpBGwDXF7CVKLyRL1X7ZaTau/dcHJF4LmssKnTwvDC9hcqRWiOu4vgmoAFAcKMWYthnbxTinHvC53fPeSUBKwRrHcWXzTLcolQggaJUSLRCrWXHxm4WtxjKwQt/UnSugvswbT2f4n8Kgy5/Eu5RSB6jKmWItFYBLxoLQ6oxUYwDTGFslsF+DfA4OELIZdxfTKOqPtA3LJ0QaBECr9oLVBKxdWmVOBEjXsv8ipCLDDbQ/EQEbE5Mf90X/eeL3NxudYbqJAgGHJwslnj4h46mwf0Jr/AP4gzV/Zzc74VKxcONSnPWKipBHwxcdypWCDeRqFIjRmrzYzUfv/ALQX9T/rJw8WVGDLxcvFcbiwZeDhGGof2uyMprFMvPed4Ms1kc7uVm5cvCxmkw8+44I5vN4vNyoy8XwuXFg0Twly4+JtLl4uEXfAcVVPFAdfV9kVhdBAntbV7YpqwFJe4o3cHxFVFaAoWDyRunZEU0ksVwugLu4VO3vhi8yiJFpHBLwyoFEalFYThbNcLlHls3M6tEYJt0BCp8CHjAQRa6G4Io1K/YuP6o4F0LZXSVYWIElax5Glr+wMUwMXBHWqC+5bgY41CLi4sVhijBjeFMqDDk4OQgegV6JsPf8A9kXmmVDhRityviZcUYAYOPWD/wAYL+Qcxf8ALT7mhff/ADhc7jHxi+KcaxWsbuXwUC2FIhdPoCGzN/V/qGyjO6lzcviYLiwjl5uAlyyVxfEGXw1cKwS4RrHVQa47hRL3HF8LMo1BdQsly4u08eFSyLLwwMeLJiNMqC9zU2tQbTUZEUn7B6ylQguyqUtp7gg3NSUpCC1EWx0g4d1SxKgAUYRhio1FlxZc3DW2Xxpi6g4YBs81EasXbDQNdp2y7dtYlU2KfUbCdl3CiBSYfYepb1EUcixAp30gsslksixGB2JHqEfoPDDFMBuVKXFsWoKmCDwTgwGU5r4NZD6aS+//APnQSia5nwb49b4OXIXZcf3e4OVdFvYQxcqL5hKg4DnueZTQ9tT7O2H6QOCkX7irEgAcBhrTdiSpU1K53wTDxuLx6l8FKhcclxXF8CbriZ1CuN4viJWdCB2jcElcKI5MN3uiFsGg0ENeCGwBgM7iSggTqampZwcVEJWKcBCblS4sIMYg9QAQCiKRHBQ+YfVEIhhMFRm5/g/94Df9wRrI8EjEslAOCGLxepRkIXOoPOsMMq/3p/upf9L/AKBKzXNyvMfgvHeNTdMdrqj7xXKpR8SQ4ML4bwZNTwYINVH4BWbm9/8ArAtSAW938i6Chip3m8nDfCsGDxxCV8LisXDFxzfC4ZqFVEly/hXLJcpdTwlEQz1guMqDwMLKjbdfrEqG0GU8y5c3eLwHFzcuXLpw+IMuXuLBl8DKRJUSUSsK2wv8IdASUfOEewEfrwupMOgQISXhovKESEVwGVklGNQOFZYvgxj74D8MH+wDm+V/DsYuDkwEMBigBAWbKhSxVPugbrovyM65d8nlebjkjWawgiQl9/8Ajh8rcCo3AABC51Lhw6jwKrhtOBjudYcVGdSpuDhZZLnc3K+AwFxESXGW5RzRFi8LYdWYvCsQYZUGWJLxV4slQjEE8xYPrDM8JCXN9mCgrn3AwS86xcrJlzWElJvBWNTsmsNxlWPcsVNJ5jsl74W7kbdjHbkEQJMB/MEeWcUA1o/IfYSrvyNXsngLKFi2YthNwrDKONGDFwg8E1rDcTR34EDLgMuhD1D6pEUXy2KvxfiOPcP/AIBE0F2TXdaNuosIKPo7GVZAjG4ZuPw3FyGHBhZu+VwpirgHQIPGsblRZfBWXwFzcZccVK4uTF8NXhxXFlzXwrhI8Dwq7kMaiwVeNQAzcDT+QiqUEAaIm4/6257WLLw3BRRCp1CtWl1llw4OdS8b4GWJhRKhDaEQ9Ov5AlOGEWQQIlk1+oQY9+ERph9Ugv8A+ESgB0CEqPBhp8hLU/7CESQ4IJeKYDVakTAUXyWDgJUrh3m7TD9cETXrEUdL2sBCDPtOJXvAeyNciV8d5uD4Iy9EXe+bPKKFuQelYV+wAvg7iQaDlmVpaiVBBIXSD9kbwsH4TF5rhUqE3jsyDWdxjH6p/qB9nK8N8DJiww4uLiuBB4NRzXCuFcVyMKysuXm28C4vZwWGGoHLoibt9zozqWGNxhiyWRjETQCtwHRogREF+bIhewHuUUuzxDXQ5GoLAip/F3AywqkVZUUFqWEqiUgwgfAPMY5YYrFSpUIZ1NRYB9ELRxvyNGbhADNkYLwgjHTdQyNgPD9QrFy8WXhM1/b/AOIr7UAVAIbYJG6gAHYMEIBauIoUm/5Fyam8dYUPLHc6tm6wMsSxHipkhATyfhHQTYjqpa+kll1oPyH1Vd/kOCUGU8EpYZ/Fn/EIIyVKwLXK+VQwQF/A/wDVHf5jEfpYk2BbcuBmQSL1qjP5KPTg8YG8wKxcqDNCOd3z6jd8jNnN4V9CItq7e0gYH4Lw4MF4qHyUzdzXMqJN4SWZVvIYSVgLaZqsXxchOpeNCFlRqLKncI1wbhgL7SEfA/qWh/IhDUIxB08vRKk3BV2HVceCyLrinUAtXiha9shIbIAigADAQzXMayy+DCMuHuYV7NhAVEQ2FBe0e92gUaqPtFGNkRDyliGsgFjOr94lRaxG4B3QoI6ckSVl8S3p+4gPuH1XEFguiCkTVuBfdCkSngG/5E1tQgFc2r6jiIwx0U0mlTrQ5glQ+KCHqLd2aCmF2lGIdLpjx3fzBCIkCXhwWvCL0QZaX0QUN9MJQGn8YrakH2RQrtT72nieJ/Bm4JuvxEV7yqsoUIsHQkRW0lkJhhOUYBAREGD8NzUP/wDBaBQT8n/p3KxUIdbP6Tv9xcHNRgLxrXK+fkuoa9qpdQRYGhfLqMvUZoGX759sHVHgjPCGJ8QRdGpYwYiYuDi4sa2wQsl9IZYwL6lRf9S3oYMXi81K4VCVkbl4vhvkxlYtvFSgY1xcWQMPma4bhUbGXqp1kmiDi6jCE1l4QJWdVLlwl8BwRBJ4Pqbg9KlEBSKwlEPHAcb41LwMvFMKw4uLFcBwbDTQb7fohCQw4Jur0VZuz+jFfdK25bKj0rfU1GDa37FEWrV/cqbx4Q/EJ9LBaUGHIzd/nOkoPdWXIC/MsjGE1JlemWRIwIC/mrWCQFPxFeIEP5Fr3YRxy6Eugom6lKS6gs1LECls9TV1BBot7MOmTfwWWOCSdf5KVHeF2I/ZspFyDRDsiAqLfoiD2EP5APLXXqBqFE8pJy7LUZYCtKArFD9JbUZDyhSnuEFf+3DB2x7IYMqL7YXanb5l4LdnogADQCE38W9Pf+kGynZGO6/+DB4mkTBNhGC96r1DgjaltpqdHSXh1GpO+0KUGCWpKUSlUpgLoRKWtL7mPI2kO6PsgQne5TqHVrNCPoWeVnsx9Id8X7lp4k9eCL4C/wBi936RoPYJ9aAtyK1KviHwQdFodVA7BgP4/omvX+k60++xa72sVraG4o8ujN3xHg/C4pyOL46lMI4cb43LZWVxWLcsDN1wMHCoEPiBl1moQjll41LCAILgecsIZYYIxYBdi6hOgCBeEIkKyYeFSoysXKxVnBWs1h1YwKAIKgQegCAYOSiABRWbyuLwQVA0Qqx2dQ0WoF4CeQHBAIEoFbL6IAH0TVxBKZQFEewGIEqEQdJGdG95cEQCuggXSQCICtAEVNh+93GRVBf1UIzwUGbVV0tBA2UKIKRihoQg/wB2+prsqAHWLbOhYF58KCmiwuyVxIPxRBf/AGStFv7rsgOVM9oAN0DAlkJtojVICzArgrDDzs7sP9U8cL+r/wBsGCp94ljJw3+xCIaL+yYqldoQnzcvcJdCbiG23pLAGdP/AFiB/R91stRofdA8SD7kKsNGDu0H+zCgoj0y1q41f9mfVM/n2J4QQKoggAxe9YSyGUJsTyBi7VYo7MOwzV4wLrP4yFzQh9MOgMdSiCsoVLMv8nnwWTC5vgMDN4ZcuGTF/CYrU3LYS5eBhEvF4eaQjeGXByJAm5cCeQQ64JKlsMJwUhkO1IAjsZWVQ5kUBZVkwiII4q8iWAxUPKjl2haJ9akpg4CNXL+DvHUEgS+DU9OW8jg4uKwvKWKhPL6lvirgQMVKyxQkhRGzb3iHbelgFj9MMR+Qo2JXlsHrcL7az3Hzf2JSbCI9H4mAkJEYRuqnp2RAaIMZQIL1SQOO7X7YJ2kBNW5Ef82I3EAEmhOBCXBlxl8a7vElSv0MY+Lfu0q0BBcBFLY19iNMFJt3AL9ItAkQYEQnYyggXQjctv4Iy1qp+RUiknVK4JAKdRSX2/1F1BCEEPQA6PjUTWAiZrAZvhTDFSiUSjLLlhLzcHmuHhfFXkmK4GOs1DBcaw5uaxdRwwcIy8VNwg4ViacFbnc1AywY4damLxSdQDeTS4V0ia/g+5cuuJKiILUyiCkOboegUP8Ab9xG1VpGoxIm8qE/UafVwm11vyLdGA6UJZUcXGMrgcglYI5MECJOmF8bl4veGKj6kHfO79SrKzzFpMHKl8pwvCywg41weAR8gTwhyC62Jao/7lQrWK07O4WT8jBAIIVRKlJB6I10UVAQlsJuObyY1m5eGFs6X7AitwwEnXgEUGpy59Isaws8K0SAwXf0gChH+I7cG6iEpaWJaG/ogBooOd87MVwvhWam+HeDg4plTcM2y8VLhky56lYrj3LiuKONcE42zctlSrwETFQiYrPcYuEouEEca53HDBdwNLbAzrTZ+5dGqtGP0ujEgm4FCAKEcui09RdEHcD9tgJT+yKxZuH2rgNQEqJ02n846lLdhtijX6BicKraO1ZUAzvHbluWxxeNciVm6YJXEqUVyvoUl6n+4rM/9LimNp2Si9ChmmiFt23Z+0cqhdgQDZsqBijheSpqAsFVnRNRVxbcHNEqAG43hWyVhJUCPBZbCCYaREigGaQCGKMVyJcuMvKCARKcdVwFykWDZhwRxeLM9ctS8XwqGaYStSsBDxK5VglkeSGKwXm94ZUQ+HeFiZHLw6lFYaOBcOLO4RBhw7lQGz+ptFhbZadwFSgdWFswug13BFwAioRAACOqRtIRV82pWujQ/kaGxBFASAP2Epd1ijikuLwvjuXKy3x7w51XBiw07WiXcXVBQgCJGD1T3Q1W7n55gv2v/VNodpY1E7JTQ1iFrI7JEPbhorvW7+o6TtuoiINcGqPwO8Ba53YEKAbubxEEhAIpO4WcUzXDYwxUCBCshAlSsGN/LZNS8XLgzuXNVLj8FuSJginCxyOLzccDhhhvFYrjWG5rD55F4bxWCMvhrKYWLLhlYTXB8MIuaymSLaBqGLOQcKZuOKhgc1CeaERE2iZZOrMPWv8A3UHYEjFZT/4AYJbi8ubcvG8MD2hQ8jErAxrlar+lBdI8Fi9G0CdFCEQaxZAEPFo7O4ZCIPq4D2Q+6IUy+DQrR7Q36YoB7liKUIvjWCUOtvqHBYlwINvuoy2mmDeTULbw9Xu5sS2sNAgg9k1ArIlWHLogS0JstxRyvgmKiZIxZcvgzUIPHcqHBv4kl43AMVi5Uol1lzeHBA+C4uDFy5eN1jUU4hHh0Rl4ZUrAGL59QZctg43wXDNSsEDKA3HrDm3L4itQnU6uDFKWII7EYVC5uuAIehY/ZTldHPBwAAMBKlS83G83wawXNxcEHj18W83hXVGAZJgoi2nqVtEBtDZEWJ+jDRLLWLBBKgSjshsGFgy4jYqMALDCoVyXCDeqB6hBq3L8piofSghm/RQH/s8Gri9Naf6h79V/eiFxdgh71l+kEFK74StM2J55eqaxUqVTiuD7qpU+hnR8S5TNYeA5SVycJDASuLghcYvIHgTXC8rDha5ExcrheN4Tha4WXCVhuVHNSozcHBh4MJeb1DDm5uOKqBFqGGa4tYsm4SulCYU0I1XhK5lN8mL9wADsGXKyVFZuGGowjyaly81kw8GEOG8W41DieOdYZWEnWCUZZeSDLA/jGia1ERLJuMEgpful7U20djNLaSRpYCvqWAdAfSMavEh/WEDFrb8nmO9ysA1i/ptBtKJ/TqFSz7xfMOO+Kxhi74Xvjq+DKw5rIRM7wyuTnXx3yc1DDeRMVzIc2Xi5UI8EhLzcsly2+GssImNYGXHAkWkWoEJc1FhF2ReX1rMxy5AdUGDNlRuqlx+6Jb1Pu8LfsAYcLNoQSNTVjcsAVlxg4XNxyHA4Nc9cOuW8jx3w3xrlWRUIUwYHp+yJq9gxfPu0EqTYn3eYWI9kvHgD+kFEwML6YuhZa1QLYbyWII/LthAN+ElVQGDtXlvBi8GLyypUZZ8BZeKyRMHz18NcKSErNcQl43gnfAuJi+D8D8FxlcKlRzfJOIku2NjHAxcGGwtZEhFYSy4pm8LPqWFxV7sCfZH02S2BB7UvmEDXZekjxBQP2oKHSeyIFARcUjQJtCbtdkUQFAgNmVGzCLLiS7rpueAoilBcHNcDxwWXO8Xx1wTFxg8ryV8hDzL3jXwEojVhNGBE+z/lx5RlvnT0qxQkcGACiInHVS5cvNzuawcql4UhZrGuR8JiuLDmw4vEwTcR4XKIsvlvBoxWTLio8DFMSai6yPBeO+Fc0ws3jWa3wMJchquDUqHjLAcJLle1UIFDgDRqdhV9xesS/AHcIDf6dyygQf7FLRUgFlRbiWgOjuE1AoNcPLDaKs9VG8joJabH2IXuW1uUFIKfp8xYX/J5vB9lTyUaqrolgnzBD4UIcaxWaw1Kw4a4Xh04eVzWd4MmW8q4uWVDrMlAIwLGgjCuoMI7wRgwPBjFezEobZfIl4UFrRC7AS4YZRGHNCauCQJFZUL/AGbnEn6Q5axeCHrYIUYajK2x3K6/zCBqmv3N1i5fB+N4GNxwy94QxXCpWWpU3m48xl43i+REnWOpebJay953hDAxxcqXCMPOA4uVhcfE81xeCObwhhgRI7vUGFuoDZb7RAFFygKgIdRMr8Ir3AFGlBjyBDGpYSpYuKbFXQl5AIftIhoRpRP75+BEA8Co9wRZUeieLzgHBx3i2KYGVijI4XlZlzcvN5rgyjLi+DlMULURtiVAIC/tiVQa19xqMTHWD4HvFaTw3qnslYQXChLRUAAIgoKQylinpMNiHljgBFL7Yv7j3QfUSD1UfeIBYB7IspXcRbnisrO7TC77/wC4hlTZl3xGkiuNp1vTCJ4ZLzcl+oN3q79ZXwuE7JWGKQ51wcvwXC5vL8O+ZcZccE3K4XxYY1eCVheBLjBxrF80gFyjFLcXO4PJYLLOB90l/qVQP2k+2i16luKtmwwwxtALVezGF8rwec9RxUZfK+Z8ZeaP/gPnGpcqaBus9EcVXt/sGylEKCyzUaiPuDAg6n3HRBITFkd0BuWh0blJeqF9wBbRNVtECbBcvWTX9/8Ahxj+P+GX/tsnyYRCtB6T+wpf2G/1lJSLCoS1L8uMA90+rl38/wDuD/O/9If9lva/xWp5gtgDq7vy6jB1tVEBkGfSG7QQD1Lx6IPqoWp0ntiax7JcUVFM1fj3HC79u4cogSRvUuLmv1FFClgddl3nnUVj+QmKpCd7av8AVMdMMXHDm81wviVGsMt4VwrF3msPJeNy5fx0RrleO5vCRMhLyHNlzdR1LlcA6Fj1DRFhzqahwprCQcXg5VT5qFhdcCIJKIGsWSsV8N4ZRyZuo4qVDIxg41w3wOV4vCfDYRfRi4/wegImqFjArCHBXLDc56oU0io9CUp/UzvJT9rDg6aH0ljLGKEBCu4P+RdobNP5Efg3ohi9UCsKyuz92D1+ScRaKI68UOfdju/u/WAVvH+CY/nG362itZQj0wVUUm3sl0trI6IpAYDQrx+JISTmhokN/Z/1gRuk9AI79v1rwBV8EQpp7X19QSSEX91EYrvfkHEP/wCcWI7KFSyH8BKIKoL1QSoWlCHsgA9xnZq/ikWQCQkoSGw/YEIWBtSzfwKiZoN/7uOINp/EINvfwQN5dU/k2JBKl0geyI95X7TFnJeHTGXRl+O8Xnc2axUGMv4LOCQnXC8hlTgZrD5YOO8XCLTFynAjcawyso8NytYByc9caMXHC04LiFxxeSrmsESHAhUZZK4F475rioTWLy8KzfDWLl4uarF8u81lW2zhWGmIjRK0JWIkKRVC4cCli+qqB8t1P7GtKBqGZV0n2EJwG9+wfNVdv7KKAIf2meea0dLSrgdr+2Uf+xYIrhUg0bKg/cfbBtPLZUuHdQg/ZUVKxx5HqUAftIDt1X1Ab5Ff96RUgrdSIq0Iv0RyrYPUFqDRv+RvAN/y7SlpRigBKfVjBPLn/ICEKY6uKbqKbJ0jnWt6w+6Ck116DFXRfkFK0L1/ksUukAC6a6llAv2BNVQgdqmkyJcW6FBg75IVrgv6VAMHb+iVroIwbwwDka94goHrFcMX8FmCPHWGuNwDlRi8uKvJKycbh54jL56gQ49wjlGdYYxlFuN/He4JW4GuO8kFgYtxessXfAxWbgy8bzUUx1hgcKxfPcXDzYuDiZvHWahVcqhy64KOwiCFcUQUINLqr1C77P8Ahag84GXCyr6GDHiD6EHUdxFgT+IUmkH2qOLE14ub/iU/itSiN/CJ6hBKYZry3+XqBZtHpSAAIiAQGEFMQ0lKzwExjWSoVAJrCQZc6lSpAY9YiHlTAONYFoR8EY6/ZSJKOxezU8D+AFBw1l4OdR4X8FSoPC+FYudQxeKzWCd4OGrzq/lawHAxbNwlP1Kw3HwHCxjwGMtvDJxfDm8EYOW4OE4BhxeO5TAzvI5ohwvBwXgZXheCDmuD8VSiXLm8VLwwibhHnXDZtb9EUqDIE0kI17CK3QWTqHQsLqgjgLWEB4VXH0Mbvg1zONHAMPiHBa0QBoPk65HiazRzrGvgvHeWtS+GslYOZk4pyYGpThl471F3m8oscUfAy5RzXgdy8XwLwJwY1wOFYMMCVOjLnrIxazcWLDmTvlqEMXLxfK4PMfjM3wYKjodSgjuVZgv21LDSrfyrmpeAM6fm/VY1H3/xwv8AlrBLcxcX1lZL+EwfES+Vy5vNy8mOuG5UTgnI46+NoZublnBDBm+FsMmTgHwEHDAzThuXrDWGMriGHD4hbcbzXMmrlEtvCYRqBKgcbwYrc6m4ytQqiOCXhuVUay41D4rg53DDBvKl8B+Fnc3wDDCGRgAWrFgV9wSS/rDLgUAMWp1/0I7+g3+wLcMXhtpS4QbK/wCtx/aQPYYas/SNgBgBWaD6Ix9I2vUIikrI8qwcXBLeG/nvi41xvLScrhhvL54VlMuF+zOpfIy+cGCJuVK4WjF49YK8MMXgZaPOnK4VrCkdMIrGVGy+HeEIkOFkGNQxdRlGUvTK4JKc1Lcs7gYrfNYYvG+F4uXNQxfIly/hMsrK/Azc2VAiCwDYfaG4Qxb9wPUB/aCsNCL1MyhtRmkCLjAW+kbqXovc3XIVx5I/2FwK36pCEtPSk2FbP6mBZBv6IxIIH8diQTTJGN8L5bODD43leDg81eaQeHeQ4VyvgcHkOGazWdTfBblSs1DBiowijNTqLLm+JWHFcaO2IrAcFcTIxSdSiLgOB4l4ckrgOL+E+FZcXFy5cMXL4jyKx1yKx3xM94YO4M6KiuAQGkToZLYyU0ki959GoIiHsEV5uP1EcTbD8dx2SqhKemJ9Q2LaSVCXY/sRCPKPZaICFBexG70SPRBpjg+dHqCMAEsJqWWggCKUTf8AaFfH48E0EJ7NcXL+El87gy7yOFms74Di/gOL8G5cvguV+MeNYagZDBKly2XLIwd4cdZ6lZ6xZFtgEoykIu+VZWJhzawIMjhuXbgN3HATS8bcGnLLmpv4lzeXhcawrfC+BwvBzuXnVZuDGXKlSo4M3inhUolywKNu6guJqepXHspuMqKspBUj8EG1+r1KwLG5RZSjCfh2MJfX6LsioQL2IsrFWRsow9SuPjsoI172hD8ln0Fp9pyPrFy5eDF8DjeOuNlwqLhf/g3gfh3jUCGLyR4sqBkwYHiR47vNynhUrDWLjHD4wmbxcuozVTcDOsPnBXHaDwEsm4TUIhKlQc0VglmNQiwSDg5GEeGuA4ckuOA43zLji5cuDg4jwJfEZqOGEQxWbxUrSNRtYFrgAEqPpVj9COGiC9dxU7iDw1WF43PtjZ+Rpd7PZpl8h+MYPAhAix4XLl5Hjeb4XLwuNcN3KZ3l43yuVgtOGjAfAOLeG4GXC8lzZHhWsXkji8JKxUswWqBjUrO8W4GGLlwlZalwc64VwXhbhrK41hmrly87rFZYXnWCuFy83lcXvj1Ll5vheLlTWLm+CDWUsUTrSuCNOGoXBKwwfkET/wDsBlMd8UxZHBX/AKEbWL9PTI87l4uDFiywmsjkXNy8vAysK53LwRcLL4PkIYuXnXA4nI4d4oxcKzvN8U4Phzby3wWFxyOXNRjk2rimVi8t8WGKcrFYm4HAimbzdBFpxeG8W5MXL4a4W4vO+Iq8lhx7m64HhhNXBw+ZrI8vICtqDgj6gqKVXcRFsV93Lpf0HqWxPH78jsiu9D/sf1w/ZlYWCrRHZ1xLC0YAspLuWHWqFH5Z/EIh7EvRCFACO1cxP2WNPF+osGWXwuXLxcWWRfjuHC5cvF8Li1Lly5cuMHheKgUyp1HG6l/L3wtxXFwnBJtjHAuS44Z5I8vPNxeKiYCNYI4ZcueOLymLwzvBG5TCMG5bi+BfFZfDWbcVEm4YCOXDCp1NpkZbl4XBwwZeCXliwRZWDF4VCC4fHA4g0qQX8gH32/Zlm+kPRUTuGetJueBGLZqtZ6SD2VH60YtAMEEEZ/Ks9xEP3NXBaPoTzh6DPFpG/wB+r2x0v9MKhgRESisF92YPoD/cJu5FRVQVemPsDsYJVgABKHx1/TKJNdHb2YA7B3No1ggy8awaeNy8LhYMHheVzeB43xsl53i4MHF8tYPh6hLy5rgMuPCjK4eAcOiIQxu8OTNOLOJEzeTF7wkLtZYMviHFtiS80XgCFEJ3m4S5cGVw1LJWGDi4zeLz0RvN8Fw7J3LlzvDjXF4HK83Ll8Liy4LwG6wluBZT6E/0mUv7XsrjCG+29ywwUP4C4ql2qspmAL9xUc0y/Y/rxI39l6bQPK/4O4RmqntTa0vU7YzoPsBCGtUAMN49YE68798xwUof3B6HW8ONT6/qhmFVSXSWhY0VafsFwX4Nk2fQvxi5cGXi5cGXeLcLGU4HA4M3LxaMbgUBHkMJWR4PC+C5uDL5XO82Xgx1gmuF4ubYYDHdOWdPEyYcBLwFjm95s4jhhxQwvEwcV8AsvBNXhyXwcU5ZcudYWDHjbLneSbGGdxSDi48LxcX4bl8bzeN8LwSyHgBgstDpMDQBbUZYr/KIsFKwItPUtErp9vJAlJBw72r7hsirT2YXqAh/Xf7NR1+lX4iGTo/7giJ8AEVo2t+pAwUU9iDS43A1KFEDQifqXAYUVoRq7FUEC4mwjB+S2Jt47JYy/wCtdzT6lwmDFy5cHhqMTJl+YY8bhfCpbeSXBxeHKwfnHFvNcBxuLCMuHG7iwxcOesFSxyjAxQxq8XBFlbww8Vm5XNYlMHgRwhUrgZviy8DHxnTG6+FMXgpMXhlTVy4PC+Fy+e5cHgSyXm5eL4mqaD8lhZuAapfsPtIEjhxeJarR+yrbyWQBVQ2ASopUKgAQR+AjCRKHCJQwLQBwBoCRKwEZvjuaCuAKCjkcTFzcSJD6eDE5XF1x6JcuXLj5wEqLgw4tgmKZ3ybgUYuXFzZhee8LyeAwcbjC8azbhhiuC8Lyy5WDJTDki4IcLZeLg8qMjGpeGCy3OpcvNksqXiiXwvjUriGKw5pxWXNDgubqvipxfDZi8GSE3i4ytypXBYM8ySZ4h+Jf3LypSrCdMFsJcvFy4vHUfEM1LjLOVGB+G4ubl8i4srCk1hc3gcXLw5uMvneLwRcBbwTj2cHFZZeLlSoGLzcvcfOa3jsj4gYbqFxc3xSVqMJRm4Ss9YMVi8blZrLFluWb4rgdY1lGGGoVLxeF4GLjL3Bl5XKQ4F46xfx3lZcHgy5cuKHkGCvCqLwbGhLMXkVbUoTdvX7Bit1sHD21ejqOyLSrGxLIjCbrRfVTeVaCCUpL53gY1WR+AeFRIfBUMMGLg5dYuXyHiZ3LlmCVNcKxfEjDbis2kty5rhqEYNwxeblmG8LjeCuIuKxebiy4kJbLxuUSs3DFRZeCOUbhgll5VwPBIHKtvGzhvFw5DFMFy5dEvFYvD5jzZeWWxY5GXFyuBzUUfyFv0BqzbL8YdYUxbwvDdb0fcX+7V/jAZfR4XNDm49ioMSwtd+djEjJP2H+gYiGK/wDQgAQIk8bZv2wyGoF3BgIH0WNs+QGLai4v5hly5cXcIDcCOdZvkXOjhuXvhc1zqWYvncvDhxeCK4ISmJwvBwIMamq4MMEIwqMoxcLiYXGq53h8uKJWB4DwvFRyYYyzhvBNS8W56iSnNzUb4F8R4VL6rIxlXgnfwOLZeb4KZYsHF4GbiuLmo7B6QWk0oZ4Vp/AC51MQKbAQjYUF8y4ELqhLboxqBZB7/wAn5Rd7ElssgLQP3tgqwl79RdqofpFYV2/pFX1qH7lqN9AT6CE9bRnlB6gpIEr9sw9bQOpPqYppdprl2fqkZPwg/OJwBi4R4vBwjWoYrcMhxqIwMHiNXkuLw1WVlxjlms3KlMqUQ4WcjFQxcM3kymHDGVKm1ys3AZW4kIsFl4YZXm4oqJB41lriuKMDxYc3PebxTBxsj5lcKeG5TwTCSqcJL4dOCLm8azfADKwl5rXLqL7GogtLuobP8gkXRjjYBOhIAQR1E9JIlUCBQGgjLG7D8QniKZCIpENI8wNGyXs/qwMR2h37gPQLn+Q19o/6KL+cB/IoDCk+ozXLB9QhmvJ+yDu8oX1AW8GgfZLo2p+ijEvv2y330IKqwgFtbivyVjeUhKbxrFQJXAjTwCMMVy1NYOA5s+Aal6l8rmpbw3woDF5vgXkl8ezF4I8bKzqNTpgwzWKm8M3c3jUvF4WbhfM56nWGGDC5XgxcvEIwudMauEeBccXO4cdY3yc3gvBkyZrNx4VGN4Xe8EJe8XFX8/8ArAKK9mo5nodxZVflLlFKq6hBATWI/BFFnneoAYRKFntD1Cglr/NDZPKRRUNiBLqilQWENNUiM0qiPbEQfrBG3AFlX0MdEltwfHYH0YpqyjAADES6q9su7V3ocCVKycO5fG+Q5MVlyfCS5v4L4DFLzfMlwmoZ1HAsuXHFkLjwHBFji+DLw1O2XGosL4lxqW1Fc1xvCTeTLO+FGL1Ny5eNxZcSOAYwOfUEuXL4ORjkyYfE1KxXO5c1KZ1LyPJrFyzlrLUcHHyK1nqPJToP2eFY7gAom7BEvKQ3u32g4Cim4AofAsMAoBAiJ3ggYNyRI6grcWDWgg9gkvcMbGkSgyUGVwA1u3/BLwYezxXJKzeGHK+BLY5Hk5vDgy3DC5IXjvN/AVi4wxcshLwBx642YuMHLinPeHK4tl8ax3lZcGXhxbi5eFMaxusXCXCdQhLjgNEWmE1llzc6ebL+GsXi4zyRON5bvg87zfyXvNt4WObwYBXIikFaYr/dQqgWtEAbAJ+PBiux9pPolnoY1bLCWCCQ0GHKbUo0FlA4ex9mH5BVcqkCdZa+n3ZEpbQFgqp6ufalArNcZUOTU0lYDoGCUBKjUKxrgYOVy4SzFRi8jl0cnC8OpXxXxGpfC6l8WEWXgcDjUc3LgxXiMalSpfDqOCI5ZbBgMUrFcFg6rCyoyiXK4FRcXFizeBhL+CzI47vFcVgkvKy8Dwvm5Jb8PT8euBwqJCObZeGCh/JTmH2wIg+47qCA0iMS0TYf/wAeD4rHsy5brRBeq/6gShAn6iU2BDgtNn9CFIoGn0S44NIVFV4rQFahRGH2W0dg6P0G4lVHV6F6lZADf9hFOlg2kpJ4kJsfKfgEeNpWS3BDgu4fDoYUvUHptCks42zrGnmVNYFqdY18N4qOGF8d4sJrHiLlcLyvqsHAxZLyRMVKK4XOnFy1x3m5vO5eoYcjl8cExeNXDBWX4LjA5uTCTfG8XLLncuLLl5uW8LhCsrijO5UKwPK4VEyPBmsXLwcrrFTxEJUqKIFlNIF+1E+zqOrRygdqNEuokfRNLOh9ECpqBp2ytRT2tDu4dS3DRodBHCE12PqB0n+hFU1Q/ERG5X0Ra0LOhvvO5kQmCypCAihK/oQEvwv/AEJR1WPyLeyA95GqBABoUE1BLTUZVyw7SLRLIFpetxKW/CCtgXsiEE2JcsgU0kQCJZNaU1+4Jt0/vA/BeRyZWW4tvF8bw8b5XLjNXFl5rFc71m+Fy4PC2LGGVyMHFahGXDCIN5JU3HKso42HMhm8EsjcuDFshU1LFl4twSxDLDl1CDGDLitwTgstolwIRZbioS3F5vFZOO4stYwmuaGbl8DN5UYzv8zufuReoKADgUGxsZ5BBPUPMth/ITMNiayMQr3scLXSGKbWpao4HaQ1ghd5I3QuH3Sv9i3hkrDuCgCS4Y8IEPuP7giKWU4Cdl3/ABD5oCK8VC/2RXrbV/YV1HNdEMtAhPtRNUOp/FQmRa373BU0r9KOiLS9dRJFbCGUY9MfBq9Rmm6uHDRJ3LxeSNx49Mtv4jFsvkGOs+CXuuTOyDm+C4K4CS5fAc3Lwy2W3O8VNcS+Nx8ysEMXLl4qUcFlmN4fEvhcGHB8yiXGODJi8UvHuXCMuXGoMKl4tluNVLw4RwMLuXg4XzJeRb5JKcublnHcWXuHHUfM/PL6lCkpE0jyxBpO4A/IBYEDwYv4Q+o+0CiBVofccWoTvhmLlCqIhqgpf7ZF97h6FdRe0pFXqDRIQCwkLLHZiuUBQdsYllsdkJsw9CB60j9i4ug/yiP9sB7JbO9b+IfVQ7i1+iDZKQ+o0aCo8R/+N1l/ivVCOxsNRBcoE/SYNd1x7ly3v/zQa3UP7B80ugxLMdM1GbNI3QVX5pPEoA33EMre/wCZ25sIuUhHNxaIMuEYcHxnd/ARxqHw043wuFXi+Bm2bjCdzrIk1m3InBuHJN5eF0y8Erk3G7xUIvCuF4bCXDzFam8WZuWwmsDFMDLjKlSriYDnbNXDBU1gwxg3izOuFRYPK5fByGCprgsahwFFBL8DuFIJ365weJuXu4c/baueaJpGtChcXVY7jAXf/gofoy8skPeDG8UA9Q39toxT5/8AvgsFjDsAoYvCA7gqlrUGjdFocCEMvmjvM16RyO8f2FGCrHkT7ArjguqfbTAIW6f9irqj/qii3Tr+VBYTBSBoS4A6lSDxKKhuPVD+AJVozTHBD3DxhF+oEZQEwFTZ4hCrSvRiqtldeXcEfFHsSuF1ipRKwZvBgSXKz3nWXzCzNxeRiuYYvFSsbuGVFx3glyz6hLzZweNcEx1K4qS8BHFTVcVwYMay4eN43GVwHA8b4nGo4IS8MG4wJ3K7uC4rNsFvg8bow4siYveLwk7xcMjFhzrNwbqmsW0BHqp0sGoeVD9hKvY/EagbdouxD6JqBmifvcDGsuSdHuV4bJQl6NRTpFPaME2oc4neCDQnhgYBsqDdYITQ0kAoBIu7gq5h8xZRbqFACAW6Zr3GYuk/lQYYZUYOyHBcE0N7S9kqt+QtBMD5KyIBoZGra8Z6cHAxcvFS4jWAqemXOuHebli1ipuUQNSpqXybhNJi24SzjZLxZms3FwQYMZc1LNYEzcTjbgMXmmsWYply7cXEOTOtzU3gzvDUXA5WLAw4SUU5MVLjgcGNTVxi0xxeKjwcXN8GBwvI/H3m/gQRYSEt0JY5OCBkMBGnTsNZQNhAAAwxIu7EKqAc3xgd1FxUrC2AGkKN7QcohnWgFIi6ElxjedEHeuC2OggEboKxcOwuomhtOoITHaT92nXtD+oJSmRfd3Gf8r9sb43wvHcMVq8VgimHBVQchi286l0Z3Ejm82ZIuLm6hkiS5cs4XhgtYt4dy/goYS+DlxcWEeSwxuVwUy3wuM3gbjizLlxbKtw4YMWbheGHwPAxbllzcGEMpN43nphN5eHbhWLDNl5aw5o4GLlxWXnWD4jHTDjsDD9gD/GFiA9sMC1A9zwoQV+SlJUe0M37V+xTS2PSIh2npXFEoAIjBaIv4Atj9JFfNCopcFdJBASnuKMWW/Y1Ky1VDZwAbZZu1B/hH7B70GBrgZXBed8g2LwefWa4DkrGpUOd8mXLhgZcuXKOAy8GCbi4qDeam4ZfBwomo8d4OTUqVwti5MLC+IyosvAZcdzbKxUrDw1kGVEl4CaqBx0M1LhkupSTcrlZi8awcdYZW7qHBJXwXhSA8gy4sGMuXgwS45uLi5eGbmkO2wXq4a4FL7jsUYs7UrqN/U8pao/wZAZhT+zqCzgg2Ral/UAUCSuAiIQoe57QxkYoh9Txh9Q+sIMFdDlYNA1LtjDGuLi+A1LORHheGdORzrNxIRjc6mqjC5u4uRwZMMGK4oqVisU4c3nYy4YuBWaIpBMMtyS94TLB1hysKlmKwy+DxubizcYQwLO4vC8iRwYcXgyFljgw1H4yWZVl4WPCmJleDOskRzUTHUsly8rG6pOULjswqh8G7qW8m1vFSnCSCBhhD20oF1U2PzN5uXheBLg4GIoWwCNAAZYjcd+W6HkAAj4wwAUASuKApgLUGe4Lis+TF41EiQr498Kx3mp3N4anRHDgwwZrAYPgCVZAgZuCy5cGMM3BwMYcGsbvF53mziPGo3KOTm8KzdS4YBONYGdTc1GHC8OHDhgWxMHBhKykIYrgYFwcqwPB56+C98HFAILR+38UWgEAgHyAgPfN6k/FqvQWGgyVKDfT0RBAe1f1DaISgtoor3hcVYuLFzbi5eNVwL4McHwDLywXF8blxTKuVc3LIXc3L575kXgXkrCQwcC8DgxuOKxZUGUYXOoQYsuXHzwqXkOIZQhwuDlhi3iYaiYvN5YEGVKhwIPCsk3wZcvJHBipq4xlRqEuXbxYHIx1xqGya47J1KneQmubEKpCANl0qO+yz0JRTwW9QJYjEQb6J50rax4vXFSRUPUVhf8AsYbBdj2oJnWCy8vFZeBwEuXxcBxDFxg5scXwuXhqGO+N1grIy+Opc1h+F4BNYFvgpCsmRgyoQy8C+N4qBwvheLwVjvCTU3iuKy5eCMrFReFMrXHUCIGd/CQqXi8VElSoVKMXwHcvBi2NjgI5cIw4WS4SrYjlMnDUvC4NLFhwrhU3UqaiyoHXvQZTKox2ilQbvVXuEwAnpALm2LXsVp5B7FwBKIsfsX8U21K7PiXn7RdAaVI/mxnhk/wTBs4mG4A4MnO8XAAqJKYMuLWFwRWXi5eLzvI7hy7cDFg5K5sJc3zrN5rFsFyy3I8tyyDxDNwU4BBi8rcbzUrN4HFmblty5eCsGalZuXFhkyTfC3Ny8M1Lw4ZccLL4rguKS6+AaOQ8jPfF+C8Xdac9U2aPyEh2e4kJpLIsBDTFC+2OGvpDNF6VF2sQp5g7p8IRjcZri/Wh9iW/hIfgJedRwuCXFi4GXxEcal8KZcvGpTHiPw24rG6jg4bXBEIfFU3DIS+HhwMtIMJfEuXgzdsuJjc6YsJvdEthljB4Di5upuOUxbwIy4R4XCKhCUTXBrA4ONYszeeoZuVxYz0cDTy3UWEYDy1Ll5vTOiOBxeEgEXLyTUqSon8pAAWh0IHVm2DVSvKjgrwublHAintE9EAY0W9RurASd75PC4LFl4tly5cZeFhCVglwuuNxFl4KwY7xbCDi89k6llXi+CzWLwS8MZeK3A56yYVls3WHA4uCQx1CEqXqbl4smsauVzJuaxT9wl4KiysVhcjxvhcGOL5XuGKMGCahm8GDDFRcahxeRgcJKjUKwXedzeGXLmr4MrFHBZWomaJc1UTlQYeAqAl6AYGbl4WuTnrhSS2fRjD2T6YHhfAwPwdRrgYSGTzLY/BcuGNwly7yY3N4qWYSVjuuVcWW1Dhc1zI6cXiy8HiDHBLwzcuXL4XjsOV8dcblSs64MrBL4Vk4axWDF7lsBwxZZKmosuVgN5rFy+BCE3w3WSprg8Q4PCjDXLWHgvGrxUuJkowFxDovlWLxc3luIib+sVqe88R4wKgIQDBsR4TFQXpux6ZV1P8A8SJTwKwErN8twOQ8r5LwcVOjG5eKcXl5MIEciY3nVQzXCs1w1hl8KJZcsJcqA4ExZzslnAdS8E6hzNsGPBrK4uXgnedQeNxm8jFjmsMSdy2DjWKwLFhi5RAhU1O4YuXNPKqh8A5rFkZcYsqMSVxHI4c3L1ghrzr/AAhY0s+YCFvyGJQRB5gHw3B1AXirO+pNRuGugelB0GFOKgVik0LZ/RqCMAVAe8MwTZVQ6LSsMatqX3FPAdw9GEDHbsQnlixT2T7/ABv9wRZcal8CuDi+NWyskvhebyPw3BxcrFxm8C4rN4JXK8OLc3m4QwPAxUUqXeKZUvcuLCVC4MuXgYuN5Waqau8DwcIZXhfOsaqXF3CXrc1NY6jtxbkIYp4Xi5UMGKhxJXFheHxrlWDJ3XB4HwW4vA8GDLxZcuK8iWOWkpGbJ/YsvkWnuJrC/ELcF7bjbmn7TCSaYe476QB+EaGv5VslzBd0NqagiP6QILbvyHfX6yhAiRg7Qflx37RT+xcr6PuCEAASlbysjeKq4ewGy/cXKfFTuXis2S4uL4OSJ8F47zfJrhvC5DWLgnSZ1gwYt4XHBdyuC8tRvolQhcaS5uA4YEcCxJRlLwYtqOUweIwHDCKYSURCaz3KLlRl5qPGsNyrmp3HiIsZcMWvDcfONcLw3TFhwTDeSdwyxgy4pUJWLhmuFGExvNPHUePfCm8rG1HBgxfFlys6o/VAakNe4zG2LlRULoI3cAAoxlwAQgOKAvSK2kHR9w/efvwuD9LqNaCIBi0S02Jp7I4WDUL6sgAbAiqokQboHAoB/UWUK/Qn6kLFXLIpA8b/AIwKxcJqGCXKzeDJgw3lwLjo5sJrPowOKhByHGuHUJcvDNS/ieLwawoQbmsPF4EpcpqDFvFcNYujg+JWpWFzUYZ7jmnkBBzfIi47lhLxcuMDHWTDKxVM6jBYrfGpU7YZ2TrgRM1yDJDDFMXDzN4ZUQzeDHWVMN4ZxWbi5cq8CVQy2pGVqLTZABQalrrwZTWsIRKxiNkYEQ4vAcGUobgo9n9UVptf89ZvKSyXgwHCsl8EiSoMHgmWXyeIRhy6gy2pcuyVFohwZeeuV/LeW89M2PPxLcDLgypRi4Lh5NwuJXF4LvG7iM3cuDwKlQjKI5vjU6LMmLyclljklxvFzvDjt4HFJ0RrNyzJGHEwZ3m5fG2XLalxeVgiqZ7JmsXDDXBObEsPlr+kYWFN43cqawjWWbgzvJjeL4awnG+e7l5uVNYIyoHEyQhEgMthgypgzUYeYTqWwcXno4NwlwZ3k59sNOLYLUWWS5vFtS5qXiuF5bqUyst5vF6iYSBgIyx+Edy4MvDFww1is1uOspki4CVN5byZqMuEODHkPBctYubmsOOsVi3GqnXwABwcGS8XLMHAzRK4LL5AY7wYPMqUwzeGVH4Hl1wrmGbhxqaqXm5WDFZOBHBHhc1yedk6JWNQXDgzZEGdvEcaiTYY1CsLyIVy6yZqXTLxUqXiuRdYviy8WmCXLl8mGC4ZObOrmpXA8Ss9kMEYMZTOpfA+FDF8LwmDHUrhcYRzWLhNYvlfHeL3geTWK4BKSJ8FRG5vA8A46zrAzfAyZrFTdy5eG8sFubyFud8DC3CCxYXi4rNVgxvI8bMXhhLIu4TuEYEbwuGs1hhm+LWBl4uPiMJUqVwCVKJUuDFlQxW8VKxu4S+Rw3cHNTWHGsXHCwvmxrFYeNYcEs4ErLijGspxD4Hkac3GXxvlU1wIwJuF3hrmVBmsOAK4dxx3NVL4HK9S4ZImKiEONPwXL4GNVLhwuKWnMq4YWDCdx51BcXhNSsUcUgMuXkCMszoI8dY6xWN4duBz1KnfCsmNzWKX5LMOd1wvhuFxhh43ipqOHxHleN8CI82dS5rleOuNuCzjfwHIYmKgS8LK4srJw1XBxUQeJBgwxqPAxXC3JpnWdy964kKjDzC8rKwaJbOpWdYvF5WdYCVisXyMErfI0ZvUvknBIDL3DhdsbhlZqI4rlfCuOql4uXNwxU65MS3heTTDL8OsXi9plWVCs6ly+Nwvgy25eKlfAHAjKaODGXByMtxU3xrAxOb4xWKjEbm8jyvUTF8OuVy5WKYG8NY1G6WHC9QxeE2JFwY1PEArhYw0cGCxl8qw4uGbmuDhIri6jDNZuaWaqVDzFwROKy8CYYRzfExThahc3N8CVhuBqDgMkJU1LMNy3LcSJXEgReRHDwsikYwW8t3gd4TfKq41xK5MMN8X4Xjccry1c1k4Hzd8HzNxzeRyMveLguaji94PNYTlc3LYGGW/eBaqVK4VB1KIsGXi4SyNZSVwHIoYrcttl5bhEXDdct4oeVmE3COnFx8QhlzWAqU43jqXhcVw8/FeCXljh4VN3yuDC5WNcbwwQl4qVKYvEy4YQYjNcDF/CHAqblR+C3NbyHC5fG4kIy+V8hzeBm+NYqUYJeCWwluTi58OGGNRvgkFjLcODCmG4VggS5eQyy3HWQ43gmpc6lw4vBgRqEHNcCXFojndZ6iEYXKwEsgErJhwkBjg8c7zp3nWSDDh3kuJiuDpyLHG5fMCVwowfBWalww+OYN4D4HguXFzeKhkwmCLL1LlxTBxcPDd5uE7w3FjjuOB4EJacm5Uri+cGbl0ZvDDF8BweIOHgy81inHcsgkvIRU42ZqajgjwMLwJWNZYEQneNx4MHVQJ1hZWU4F3gTGo8rOKxYcLhWL46xbLjypMXCVLcGayS+GoHxVK38F8bxWXhXLdYrBi8OKlYqVDghCPAMay+eG1lNzeOnhq5WQtxUuXilxq8jRCXxvNErWNDwaISsrCDFwRxvIqzcHIsvHWDg46nesdkYvC5XC8Ky3BCXKgRI8QiYaIsu5cXgcK4PBS45WpfGz4Bw8Ac2cCNzrg1Dhea4VnvBcGEJXEJrjW8EqVBxrlrBNYrmEE42IOLiRMVrPUJRiohBxUvh3hIMaxWKxc3gx1gIXwGarJlhNZeVYtxRFMMqbuXFhAzd4rA4YSgZbNS5cXBwZcqVO+RDFGLwXN3EzUJqLCDOpcqJlYbHAIxPgHNzUGEIwi5HG45HjYE7lDGW53FgsuBCNxy51XB+NIZ3Awzd/Ay9YYRIErDy3BTgjAlcqwLBIQCsgikshm1EiUxlSuI4rNxvluHO5ZKlzrBYxhw04GalS4XHHeeoUE7w5YMuD3m4RlE7ljKlSqZe4s64EWUOKmsmbx1lDDyHKRly8hm8HFSVrAYqLWL1Bwwd1FWFQ8wwRgzRLJZi894sMJHNSsdYJuVlheCGLxUvkkAw4DIcqxTipWb4NZqGKyDhymQxU3joypCPDszUIYwQFc8kRLdEF1DGOHF5cdcTbwvheawsYZsuVHF4pxdR74Dw3wZWd3hwYeqymSFxcBN3CHCoRl8QbwsGOHy1i+F8FxcYY3NXxCUTfK2GN8Ooec2ShzusXAMOLt4i4uET4K418G4ErhXHebc1wvBLwacGFl47MXjWUxThHLkHhWCsIwJUrBHiQhTLVG0UlsvLiqa5XAlwvDUInAx3fB5XLJuMMgSrCEXWRmqy8ByuNysaMmHRiqws1UISyBmsMEiSuN4ImAxuEJrKsMVCJDRNwZWKlQvF8L3iuKwzqDbLhO5bLawYvgXjcWXHFZWXwuDi41HDwHGpXF85orAOKjGEMVu45qMuJEcudcAQwXioECNXipUqJKlQImAxUqBAl5WM3GEuXqXuuC8Kc3waxUvhfwjGUy4mL4UzcHN8FytMHF4POnDUMuNSnDEzu4S8Hni+YXCXhlOFlrm25a4vm4oneaIy5dmGF4uWYHDBjHFzc3hDBipuBFv4t3CXgWWYvJc1lqWZcFTvkkIHCtmO4cHBK40fUI5I4MBKlGAmuO4RZUBxUDDV8GdSpTmp1O5RisjlJTKlY3UOCWkGEVwMriMuFXjVTVRu5TwXGsVElkVwudjFxq83neDAxjargyZ1grgMZbLxqLw7wVwPOGC3yvheKJcUnZGXgxTAzrFS3NRrm3KlDOmXvC4Ljhg4qEreXDm8aiy8GOjLgwmGg4BGpeKwmAMBDKO96qVElECVipUrKEqdxMHIxUblQIkqVhM18BK+Rq5XCpqJEiYvF4rA2tQlYF+FvNBlqNcFm5fC2BinDDDO5SZqM1lMFYvCOKjGdTcrhZwuLBjjeVhfCm8uL4OLhLlcb1L5FXLwYHNSiMvgzWCVAJTU1KwYWXLjAw5ZZXEx3H4KMNTtxcudGLwSsVuViuVHCuCYrBHxK4BEeNRuHmVKgQJUqVXBlGNwmsVG4HK8FZ7y6SpWKywy4c04c1yOS8VhaZ0kZWSXLcXg0xc9wuDN3i8F3E49waw4ed8CXuWQYMcVzMWQYzWaxUpwhElTUYS4TVZuXGVKZ3NY8caxfByvO4Dwt4MqdYbxuPF4VncvHc1wM08Ums1OpcvF5fOXiSjGhgYrhXAGI5qMvhXAlS8MuJhJTO2VgGXqCIQKI3Kbhnd4pZUcs3jcrN8DFwtMGSJDPV4uXC6nRBwRYRxqrjLg7jlcXh8QY8mpdxMC1CLNS8A4rcKIwixual2S8MSa4twJfwM6hCwmomWErJNrNQjOyVGxuVZkC44JU7zRx6xTm5cWXNxxWKZWGdMrG+QGaw3yt404JUpyEcplJTKcJCVKgfArgj5lZWpeL5iy804HFSoBYCAlIFK3AYGiJlFpGGEJvDwDCcUrFxw1yH4rlwymSpXBcUyt4HJBm83wuXirxULuDGEoycBxupUQqGCpWSsEeVESpcuBwsly2GmM1CBi4YZeXbwXNiyuKTfJwcaw1VQhK52RgSisDy3is7xWsViomarFalSs1NYolYvF8GF8UxRK4eTgzWCaxeAWXkcEGXLbYOosWLFikG7ji4y43yJREjkub+PcJeKUblOCdzcuKS52mDbG5bC45uXK4jhchGMswrgIhCozUclYLxqKwYpNSoOCOWGCq4LLg3h+AYMrBihlY1kUlSoVea1GXvicmgwcTzLlEcE3wArByMXRi3HUGJvJcDkuDgYrFTUTJk4bDDU1NSo0EuJCVElSnNRwRM6vFsvI47gy4MWCxWKS2WRRYGazcrhvDpylkriYpzq4MCVgsiYHDmuLNwwGRPguKwlxgYct51cKrG4S3CYHGoEdGRQlsvjcqBFl4OBgcblYAuVgl5auavNQlEZfI5U4dONy5UTDKly42vwMqU46l4OFksuOLlkqXCVLy4SXBc1N1LJvjZgcJCLllZ6mpUeNQCd4rFSpq5eDB4hUqV05GDCWFQYstlxjtjKlYrBF5GGBKiR47rGsawkIxMawVGuDisDndxuN4MXZh+EGd5DV4XA6lbl4WDgcUVU2YJcXFMDN5shXJmuJkxfJuDGb4LjzHCy+TV3EKwfFZk4j8JljjcWXuU4OVxlcSXLJeK+BlcKzeUxUqVh43B43BYVWblzcuW4uLLxeosajlhV8BYVGMMOKuVh4UuawVhlGKYeT4LyS4vNhhcE1weJGEMDGDqpWLODxJqMLiYoJcJWFm53LjKhh4g5cpjd8EgcNTWagYuXio4OAZYeY5PMqsmyPApm+DL1L4amsBAx38u+BjTqVi4ssqPAcbvNY3cTFSpvCMA4MONQcWzqEuCwwSyXAIuEI5szWaxTgwlyjDWspx3gDLDDUI1i5u8OUOCEuXi98zguWErHXF4sIMcX2QhGGbyyoEtyRlZrASsphyFS25UImaiMrhU7zUKm5XBu3BhyRzUM3CFhitcbly8lZc04KyQwOdVCd5uWzbguM28qlHxplu4YrLiokrFVmuNwxSZqalsMDN3HTU1E4U1C8Ukc3LZuVioRCokCOK4gxwBwr4HiLhrFRwRzcuLDhUIMbxvgs3AmsVKwoEuEcLLjC8U1x7PiqJCM1eLMEZ1HhfAMBEcBi98NxuDgZWb+DuarOs3m3PhyGEgcByPDZgcXgmrl4ElcC83Hn3ghLxr/wCAk1NQ4HFgQw7cMSdfCmWVyqHO8Oa3xIwacNwiwSdcm4S+DkYwlRZbCa4Vhg6gcDG80MNYeC8NcNsJWALlZTBzTBE1KBjDDK1C4wOJKj5x1zJeKz1jUJWKeA5POLjNyiGCBFL4uLhm+JLMXK+FxebjfCsViuNBSZrDxcWwLM0Y3KzuEauEWPmFxxU1EjiubUWUZ1UqGW5STcDFPBIJxUlYubyeIOGBl4pWGam5RhTDcublQMCyo8d3BxUTA5GXDDdxIR85cAVneE3DNQvg+SBG+SS4jKwDzThWTFUZqI4DhXwN1kSpe+FwYwzVmK4VGoMElmNfBZN3KjeLnhw8FOIPwhG8GnCcGdYMXkJUp4Bg84SVHARlOHNM6+DeNyg4XKw1CawyolxIjisruXHojKINkSGKvAS5ZkwwZ5c9yuG6xebly2EuNQgNy6lk1kMlxgRXAl3LCLUMAYfEIcDTlzWWbms7lQvuUzqMrCHOpWDFFysBiyK3CohDF4qNwYkOBkOsXmpXDUuVGVwKgyqjgc2wcaqESbxUIx+C+VxYTrFwlzcqWy86jfC7CVCGCMZRLYMYM1GayjY8aYlTcI5qUZrGxibuXmsEbvjeGdc2alo4643isXF3WRlRjxvHeCKJkJ3HhuENkSDU6g4HcTcLcsFhfCpTlCBUKwy+NYslYqJLyJHN8qZusMqyuPTB1GMrKzfO4o891momSFcW4zcYQlyiFQcXwKxvGmXNcdy+O0wOGnheLzcs5JA51i2uBhILnqVG5WNZYZY3C8+DK5vi4cEcBc3NZQjRLjcqJGXKcVKxZgxUqJBiy8MIYDF5fgGXUfMubxbUvBUagRxUfMBhK4kMVyPE1glS8U41AwsJWTPcuVhxrFYcXLhdZrfBquVVkMMIysXw3O8XLl4qJHNstlwY1WbIPEwzXGpYYsl5MMOGsEXFsvNQ5Iy+KwzeLlxJedRHleprjYnAxWDLKJWAl4pg4pIZTCZrlTneDBHDd4qBXEhjqLgYW4YGNYrmFbcMSGLwsHgYI4WWTVQmowZcvIy5rNYTkmbCNSwwy4pFgyyeWb4CYqNZt+BMFxW5cJrGoZuXDF4rFf8AwHgGLwc7+DWL4WXncvHT8HTh4ETjfxbmsGGXGWSzCy8JeK6DDhC8a4WxlzcZqXKltxd1wb4GLjhhFhUTKsqaDDCazXGyNYWGKKgYEwEQzeKxWKDA5SVgIm7l3jUal4ZXBcM1gxUuEvIQquPTCb4d8+mEM3i8b4E2S7xU6heCpc1AolwjG8Xkx3nvjeKl+IjhZXC4eHJHncuXiyMvWbwsuXmzhUuGNQMW8UlfA8tS8XguI4TLG4x4lcHxhms3KiRrFSqjiuFy+AS8GbJfG8EUIBhhhSokCWVjqHDaxlQxWacmL1i8mBxrBOnIy8ODNZJ1NzeLl5vWHROmBF4HG4OF4nKiOnmwrjRNZGd5b4N8HNxlnKnNy8LFl5uLLwMfEvFYrBWLhcvN4KyXHxyvDjvISsXLlzWTN8Lly5dmHRgGETDlqdYfLmsVxLlSuVYPgb5rDF4fEvFkWWYL5EY1UqEag8DD5iSsVG8BgIzqGKyLi4LElErNRms3FuXjqeSBgilyzAPG5ZNYvFy8VBeNQzRndZCHiN3BzWKxWDN4vN5pms1K4rFlmR3gM2Qji4Jm4Xi8XNZuCcH4lI8Ll4IuWCxeQY0PJ0ZePcE42kZfHZhqK3ipWR4mO2XGEAiVBzWWs6GMWEoIJLy1C4uLi1DDVTebhkvA2/BvO8DllFZrF4csuMMGNYXBeL4XnQysXGVm4eZXBMdcLlzQMEWLB4owvF8iGLljNwiy3C8bixZccLDKkuOyajBneBxfG+IGCajGsbmp3Gs3GJm+VuGGSJi5ZWamtWy4LeTC5JeBnUvGo1gw43LgSpRNRJ3iyLNcDRxJctZWdRlRnV4awsBCMDUcBkvLnqOQgyiVZKXkwWXwoqODxgw4WXC7xupbKjN5qDi8dcFrFlxrIRTgS8MJXEl8XzmpUtyVZNYvIzTwMW43XEIwnUOKuXzwuON5rG8XBiTr5BcVyHLms3HgnC8JkIuVnTCOQjGqjKajc3DYyo+c1Ey1KzcIyy8VioXkY4JqsGDNwIwIsMoxIMMbqDgKw5pxUSDGVgl4YcjCGbbjyvn3Lm5cXhWKxWsXNcBjnUKxfPuGB4ubxvBwGMrBeDFwdxeAuNy8MZeBlxxbBxeSWcA5kWXnuX8LLl3wbxamagRGN1gxUXjTwaxfB4ALdq5qXLl5uOawIzUaqVhMLHHcrCS0l4SGDJLhtwZHLUJcuXqFRuFyy4BUqKTea5OnhbByEfOFwVKzfAgy74X8DWE3LhgWLm4sK4XKOCwcORyODzz1K43WWobYZbhDF1LywwcC81DIxfgozS7cjwdsPEvFsI+c3FwMcvnDcLrhZCIRJcavCkPGAisZWTFk1O3N6wscXlBJed8GLbi5ZmnhcZea1CGzFRhOjjdOGEEx4YMYEreByyohUJTKhBjOshGGEm4mEYGCaiYRolSsEWd8tSoMahLIw8Ztl8L5M7y43NSozd4POGVO+DV4KZUJeXIvAd4sqVgxcXgwXJeGXi5eHBnqUDGLLeF8NVxYcuuAkMaiahg4MHFx4Fxq8VwrBO44uF4QiQcVTLlstjUsiN7lRZ24vLKwuGOWEuVBXCQYmK3Osbqbvisvg3eAlwxVGBw3GXLCWXFjBgvG4UOLy/AML52XjvhXC5eG4MsxfUYstl5NONS4EqJyQGXl2cCGKheO4EGmF5csvlbV3N5uHHUqVgyYIYtjwXLN5IwYSzBFwNlwYsHcNkFxrgYLms3jUvNy8NcBly4yuDLlyuC5uEKuOTNtZ6xVSjDOyJrJF1Di57iRt4hgwcGdQly8byMbrUDNYWIwGXBxdxZUHLljgWLLlw4MMgVzrFy83Ny4MqXGo4vFw4XBgx43lvF8VZcYuCoTV8N3BxdRqDl4LC5TLIPBGVNPG5Z8Dhc3i+F5rVS5Td53LyVUHCzrA8N4cEt4viBG+G7lvC+Q8WryuKlDgxfK8BhYBV4slMqX8WpXB0cquVhh4gmWDUuWTWLJcDgjCCSrUKuCMqeIwGEZua5F3bi6wSyMGEDgXm8GAm5TK5dypemKQcFRlRuWY6JdGNVNR4XLc6cDZLhwrFYuXNYI1jqXgyxIGBlssgwo5VKJuocXzNfDeO5cveN4VJeCaHF4OAYXFxcHiXKlkFl7wLj0x4qRqpeXxOnguNYIhxvCQqW5YRzaxuGE5ORzRPDRhqUYSNzqGTFFxgdErPRhJQYuBTN1EwjdxWauK0wYXLcWxwIZuEKx1i3BHg4tqXAxeUl40EtXFy2XhYM1nQmTheNEMM1d4uETDi83jU1KnWRhhm6yhw3WLws6wy4pNYKzeDgcGJFSKwuLLOI8Lzu8pnUtzu2XisDL5XwvhRCsiS5c7Iy7eDnWdRJQTrhd4fivN4R43G4DgY3AZdYWVN0S5ZccGnBwDPbluBGo+ZdkJZeKl0VGBLhUGWY8yglwVcGGsaw1UJbhhO5qXmjCksly4Spq81COXG8pCd3cHUvDm4Maw8BxaxZcsrgQMthcCMIM6gkuXwuKQZZisUwYRyS4VghkcE6OK4ualTcuLC48hJeFgTrHULysGXguoMGXBjKyZuM7jgcdxrhqXLJcIuLcFwjlWW4pvFMcXi/hsxbLl57yYbyOWGLlXjrgsFhCLxEjKheFTLYUkGXBZZVSpUqJZAiwYw84UqpZHlvKy5uXHxwMLC8XrDi6gxYONS2+CwSWZMOLPuWVyqazUArKYVlxuGbMb43jd8N3gCpWTJK495Mhwy86xpyMcVFbwGL5IObJeNTt3BwOHzHFQGNysXEvJwudOKy4HGpUbw3A4lBFlQlYqpcIE6wvICVN52YWEYY2PAJeLm7iQlSo4ZWCd4uUwMXXBgEIkCVi2DLwQxsYR28bnUOI4YXiqZq8FVKlMrikuWVwKl51URwMawRDlrhZ9y9VgxWTxNSrWsJHGrlsuyFJKiY3L4rAl5vKGLxeU3moOWPjUslnGsPAyRWWzfC8M3edJgIGax1xqVhxWxhipUTCM3KYhjqarFKY7iWy5cIhgZusUYrFOXFGEbxQRMsSVqJCIwxWQvNSpUqJimU1KlYqA3KlpTEUgOalMQiQJWAYjCOjCwlwb3i4uC8LLly4RY1wZUsJcJdsavAUZWXrFS5fILjhdzeGUcLi4JUsjCCy4NmAaxqvKmAhRwauMErAl4tvFchzcEuIy8LklmaxqpeVl56m4I4uK4qHhgRNyiJKbgKYBlYrG5V8bgQrFXRKIkDhcqGBgSpWElSnzGASpW6ZUCJbElYJEgSkqBCJKwkCJAlUXKwIqAYIFPC5WFS0pgblSipVOGLRUqVL1FZdiVFMHFfUWMC2LqXluAXBysFVwTw968RlgoRneFCEK8VLQKygOP8A/9k=;" vertex="1" parent="wdatiC-RJkYWve1L5PLn-1">
          <mxGeometry width="2016" height="1512" as="geometry" />
        </mxCell>
      </root>
    </mxGraphModel>
  </diagram>
</mxfile>
